<?xml version="1.0" encoding="UTF-8"?>
<svg width="403px" height="559px" viewBox="0 0 403 559" version="1.1" xmlns="http://www.w3.org/2000/svg" xmlns:xlink="http://www.w3.org/1999/xlink">
    <!-- Generator: Sketch 42 (36781) - http://www.bohemiancoding.com/sketch -->
    <title>Group 26</title>
    <desc>Created with Sketch.</desc>
    <defs>
        <polygon id="path-1" points="233.366701 264.067165 0.0885972437 264.067165 0.0885972437 0.294701558 233.366701 0.294701558 233.366701 264.067165"></polygon>
        <polygon id="path-3" points="0.765936021 305.646905 165.72919 305.646905 165.72919 0.873142841 0.765936021 0.873142841"></polygon>
        <path d="M0.351226359,34.4594403 C0.351226359,15.6569277 15.593448,0.414288404 34.3963783,0.414288404 C53.1993085,0.414288404 68.4419478,15.6569277 68.4419478,34.4594403 C68.4419478,53.2627882 53.1993085,68.5050098 34.3963783,68.5050098 C15.593448,68.5050098 0.351226359,53.2627882 0.351226359,34.4594403 Z" id="path-5"></path>
        <path d="M18.2266434,46.6509207 C18.2266434,46.6509207 24.775073,44.1284389 30.7705612,38.2264996 C38.1454795,30.9676823 37.2350473,28.5738304 46.7916618,18.22372 C55.3927401,8.91016585 55.5409985,32.4389908 53.0285398,36.2181196 C50.3736695,40.2110747 48.976699,50.2199819 48.976699,50.2199819 L46.9040041,50.2199819 C46.9040041,50.2199819 47.6878946,38.7276549 46.272966,37.0416849 C41.2413665,36.1229001 40.1906109,49.3964166 29.2090448,50.2199819 C18.2266434,51.0435471 10.5744192,49.1107581 18.2266434,46.6509207" id="path-7"></path>
        <filter x="-50%" y="-50%" width="200%" height="200%" filterUnits="objectBoundingBox" id="filter-8">
            <feOffset dx="0" dy="2" in="SourceAlpha" result="shadowOffsetOuter1"></feOffset>
            <feColorMatrix values="0 0 0 0 0   0 0 0 0 0   0 0 0 0 0  0 0 0 0.0613677536 0" type="matrix" in="shadowOffsetOuter1"></feColorMatrix>
        </filter>
        <rect id="path-9" x="8.08835167" y="41.3731492" width="147.381701" height="28.0495927" rx="4"></rect>
        <mask id="mask-10" maskContentUnits="userSpaceOnUse" maskUnits="objectBoundingBox" x="0" y="0" width="147.381701" height="28.0495927" fill="white">
            <use xlink:href="#path-9"></use>
        </mask>
        <rect id="path-11" x="8.08835167" y="72.2277012" width="147.381701" height="28.0495927" rx="4"></rect>
        <mask id="mask-12" maskContentUnits="userSpaceOnUse" maskUnits="objectBoundingBox" x="0" y="0" width="147.381701" height="28.0495927" fill="white">
            <use xlink:href="#path-11"></use>
        </mask>
        <rect id="path-13" x="8.08835167" y="103.082253" width="147.381701" height="28.0495927" rx="4"></rect>
        <mask id="mask-14" maskContentUnits="userSpaceOnUse" maskUnits="objectBoundingBox" x="0" y="0" width="147.381701" height="28.0495927" fill="white">
            <use xlink:href="#path-13"></use>
        </mask>
        <rect id="path-15" x="8.08835167" y="133.936805" width="147.381701" height="28.0495927" rx="4"></rect>
        <mask id="mask-16" maskContentUnits="userSpaceOnUse" maskUnits="objectBoundingBox" x="0" y="0" width="147.381701" height="28.0495927" fill="white">
            <use xlink:href="#path-15"></use>
        </mask>
        <path d="M0.21952439,47.2934634 C0.21952439,21.4881707 21.1385366,0.568585366 46.9444024,0.568585366 C72.7502683,0.568585366 93.6698537,21.4881707 93.6698537,47.2934634 C93.6698537,73.0999024 72.7502683,94.0189146 46.9444024,94.0189146 C21.1385366,94.0189146 0.21952439,73.0999024 0.21952439,47.2934634 Z" id="path-17"></path>
        <path d="M0.430756098,42.2622439 C0.430756098,19.2021951 19.1243415,0.508097561 42.1849024,0.508097561 C65.2454634,0.508097561 83.939561,19.2021951 83.939561,42.2622439 C83.939561,65.3233171 65.2454634,84.0169024 42.1849024,84.0169024 C19.1243415,84.0169024 0.430756098,65.3233171 0.430756098,42.2622439 Z" id="path-19"></path>
        <path d="M0.0868146033,37.1145635 C0.149611974,16.8533159 16.5940792,0.447609756 36.8705,0.447609756 C57.1381877,0.447609756 73.577671,16.839187 73.6545464,37.0883859 L73.6545463,37.373672 C73.577671,57.6237621 57.1381877,74.0148902 36.8705,74.0148902 C16.5940792,74.0148902 0.149611974,57.6096336 0.0868146033,37.3474905 L0.0868146341,37.1145535 L0.0868146033,37.1145635 Z" id="path-21"></path>
    </defs>
    <g id="Page-1" stroke="none" stroke-width="1" fill="none" fill-rule="evenodd">
        <g id="01-landingspage-pt-v2@2x-copy" transform="translate(-905.000000, -131.000000)">
            <g id="Group-26" transform="translate(904.000000, 112.000000)">
                <g id="Page-1" transform="translate(0.000000, 85.000000)">
                    <g id="Group-3" transform="translate(53.842754, 228.769821)">
                        <mask id="mask-2" fill="white">
                            <use xlink:href="#path-1"></use>
                        </mask>
                        <g id="Clip-2"></g>
                        <path d="M119.451592,0.294701558 L199.107799,0.294701558 L233.366701,79.5128999 L233.366701,264.06723 L69.7753382,264.06723 L69.7753382,230.665986 C69.7753382,230.665986 4.79817172,183.549509 0.0885972437,145.866604 C0.0885972437,145.866604 21.5386274,142.818125 81.9233083,141.962183 C142.307989,141.107542 147.288169,108.201261 180.691672,89.7900557 L169.127845,51.2525099 C169.127845,51.2525099 121.166943,52.5312194 119.451592,0.294701558" id="Fill-1" fill="#E8BE98" mask="url(#mask-2)"></path>
                    </g>
                    <path d="M67.6970996,178.907891 C63.3583066,186.228926 51.417844,187.181779 41.0294594,181.033437 L13.5929356,164.790054 C3.20455096,158.637159 -1.70147262,147.712193 2.63471847,140.386606 L5.25425665,135.966408 C9.59109823,128.64082 21.5315608,127.687967 31.9225474,133.840212 L59.3564692,150.084245 C69.7468053,156.232587 74.6528289,167.157553 70.3140358,174.48249 L67.6970996,178.907891 Z" id="Fill-4" fill="#E8BE98"></path>
                    <path d="M54.4817344,377.867801 C55.3774642,382.127347 56.9744263,386.480553 59.1086962,390.854572 L230.551518,390.854572 L237.43114,356.771046 L191.866657,356.771046 L187.159685,357.190561 C175.34867,364.863469 160.032796,370.385464 135.766128,370.732134 C93.2784804,371.333765 70.0857776,373.018981 60.0590675,373.967932 L54.4817344,377.867801 Z" id="Fill-6" fill="#000000" opacity="0.100000001"></path>
                    <path d="M59.3563391,150.083985 L50.1154255,144.612721 L50.1154255,184.564912 C57.6286278,186.097933 64.6012699,184.133039 67.6969695,178.907631 L70.3145562,174.48288 C74.6533493,167.157293 69.7466752,156.232327 59.3563391,150.083985" id="Fill-8" fill="#000000" opacity="0.200000003"></path>
                    <path d="M256.086259,371.845737 C256.086259,379.035511 250.743754,384.867532 244.156204,384.867532 L65.7407398,384.867532 C59.1531899,384.867532 53.8106851,379.035511 53.8106851,371.845737 L53.8106851,13.8744761 C53.8106851,6.68470192 59.1531899,0.857649032 65.7407398,0.857649032 L244.156204,0.857649032 C250.743754,0.857649032 256.086259,6.68470192 256.086259,13.8744761 L256.086259,371.845737 Z" id="Fill-10" fill="#4A4D72"></path>
                    <polygon id="Fill-12" fill="#39C3DE" points="72.4676904 315.278484 237.430944 315.278484 237.430944 74.7152481 72.4676904 74.7152481"></polygon>
                    <polygon id="Fill-14" fill="#000000" points="237.431205 74.7149879 234.369331 74.7149879 72.4679506 305.57278 72.4679506 315.278224 237.431205 315.278224"></polygon>
                    <g id="Group-12" transform="translate(71.701754, 33.175439)">
                        <mask id="mask-4" fill="white">
                            <use xlink:href="#path-3"></use>
                        </mask>
                        <use id="Fill-16" fill="#E9E8ED" xlink:href="#path-3"></use>
                        <g id="Group-14" mask="url(#mask-4)">
                            <g transform="translate(1.070175, 27.824561)">
                                <polygon id="Fill-19" fill="#F2F5F8" points="-1.52081077e-14 111.74617 164.963254 111.74617 164.963254 0 -1.52081077e-14 0"></polygon>
                                <g id="Group-10" stroke-width="1" fill="none" transform="translate(35.315789, 13.912281)">
                                    <g id="Group-145" transform="translate(24.614035, 0.000000)">
                                        <path d="M70.7179711,11.4616412 L56.257495,0.223978332 L56.257495,0.220853634 L46.7515396,0.220853634 C46.4646924,5.95592381 41.7382746,10.5217321 35.9319614,10.5217321 C30.126273,10.5217321 25.3992303,5.95592381 25.113008,0.220853634 L14.8133794,0.220853634 L14.8133794,0.245851216 L0.381025639,11.4616412 L10.7237751,24.7703537 L14.8133794,21.5919111 L14.8133794,65.0789541 L56.257495,65.0789541 L56.257495,21.5706632 L60.3758466,24.7703537 L70.7179711,11.4616412 Z" id="Fill-138" fill="#2E2F41"></path>
                                        <path d="M35.9904557,12.2861239 C42.5748187,12.2861239 47.9517985,6.69791453 48.4386264,0.221041116 L46.7519146,0.221041116 C46.4650674,5.95611129 41.7380247,10.5212946 35.9317114,10.5212946 C30.126023,10.5212946 25.3996053,5.95611129 25.113383,0.221041116 L23.542285,0.221041116 C24.0291129,6.69791453 29.4060927,12.2861239 35.9904557,12.2861239" id="Fill-140" fill="#FFFFFF"></path>
                                        <polygon id="Fill-142" fill="#4A4D72" points="14.8135669 65.0793291 56.2576825 65.0793291 56.2576825 45.8455648 14.8135669 45.8455648"></polygon>
                                    </g>
                                    <path d="M55.2595006,73.1200709 C55.2595006,73.7740003 54.7289024,74.3051467 54.0744249,74.3051467 L1.18562388,74.3051467 C0.530598203,74.3051467 0,73.7740003 0,73.1200709 L0,44.5368335 C0,43.8812596 0.530598203,43.3512096 1.18562388,43.3512096 L54.0744249,43.3512096 C54.7289024,43.3512096 55.2595006,43.8812596 55.2595006,44.5368335 L55.2595006,73.1200709 Z" id="Fill-296" fill="#E65B40"></path>
                                    <path d="M55.2595006,42.8070175 L55.2595006,49.2317505 C55.2595006,54.1408802 51.279466,58.1203667 46.3708845,58.1203667 L8.88861617,58.1203667 C3.98003466,58.1203667 0,54.1408802 0,49.2317505 L0,42.8070175 L55.2595006,42.8070175 Z" id="Fill-298" fill="#F86B4F"></path>
                                    <path d="M29.6912997,60.162238 L25.568749,60.162238 C25.0639134,60.162238 24.6550019,59.7533265 24.6550019,59.2484908 C24.6550019,58.7442033 25.0639134,58.3347437 25.568749,58.3347437 L29.6912997,58.3347437 C30.1961354,58.3347437 30.6050469,58.7442033 30.6050469,59.2484908 C30.6050469,59.7533265 30.1961354,60.162238 29.6912997,60.162238 M27.6297503,54.7257989 C25.1318825,54.7257989 23.1065103,56.7500749 23.1065103,59.2484908 C23.1065103,61.7469068 25.1318825,63.7717309 27.6297503,63.7717309 C30.1281662,63.7717309 32.1529904,61.7469068 32.1529904,59.2484908 C32.1529904,56.7500749 30.1281662,54.7257989 27.6297503,54.7257989" id="Fill-300" fill="#F2F5F8"></path>
                                    <g id="Group-38-Copy" transform="translate(18.192982, 28.894737)">
                                        <g id="Group-25">
                                            <mask id="mask-6" fill="white">
                                                <use xlink:href="#path-5"></use>
                                            </mask>
                                            <g id="Clip-24"></g>
                                        </g>
                                        <g id="Fill-29">
                                            <use fill="black" fill-opacity="1" filter="url(#filter-8)" xlink:href="#path-7"></use>
                                            <use fill="#2E2F41" fill-rule="evenodd" xlink:href="#path-7"></use>
                                        </g>
                                        <path d="M24.1345965,44.1347451 C24.1345965,44.1347451 29.5900899,45.3851276 31.4088661,43.5663514 C33.2276423,41.7479928 43.9122739,31.5181597 48.2313975,18.5603711 C48.2313975,18.5603711 45.6813522,19.4870908 36.8647771,32.3133261 C30.4683646,41.6201982 24.1345965,44.1347451 24.1345965,44.1347451" id="Fill-31" fill="#6B6C8B"></path>
                                        <g id="Group-37" transform="translate(45.103979, 18.375695)" fill="#000000">
                                            <path d="M0.115599829,7.16823346 C1.2770273,4.96189713 2.31525409,2.62150175 3.12754335,0.184633975 C3.12754335,0.184633975 2.3353003,0.474468806 0.115599829,2.93931776 L0.115599829,7.16823346 Z" id="Fill-35"></path>
                                        </g>
                                    </g>
                                </g>
                            </g>
                        </g>
                        <polygon id="Fill-18" fill="#2E2F41" mask="url(#mask-4)" points="0.765936021 28.4374043 165.72919 28.4374043 165.72919 -1.26720804 0.765936021 -1.26720804"></polygon>
                        <g id="Group-9" mask="url(#mask-4)">
                            <g transform="translate(0.000000, 132.701754)">
                                <rect id="Rectangle-6" stroke="none" fill="#2E2F41" x="0" y="0" width="166.893002" height="32.9582714"></rect>
                                <use id="Rectangle-6" stroke="#B8E986" mask="url(#mask-10)" stroke-width="6" fill="#E3F6CF" xlink:href="#path-9"></use>
                                <use id="Rectangle-6" stroke="#EAEAEA" mask="url(#mask-12)" stroke-width="6" fill="#F7F7F7" xlink:href="#path-11"></use>
                                <use id="Rectangle-6" stroke="#F86B4F" mask="url(#mask-14)" stroke-width="6" fill="#FBB5A7" xlink:href="#path-13"></use>
                                <use id="Rectangle-6" stroke="#EAEAEA" mask="url(#mask-16)" stroke-width="6" fill="#F7F7F7" xlink:href="#path-15"></use>
                                <rect id="Rectangle-9" stroke="none" fill="#4A4D72" opacity="0.400000006" x="18.3715055" y="52.9690134" width="82.8144795" height="4.90867872" rx="2.45433936"></rect>
                                <rect id="Rectangle-9-Copy-2" stroke="none" fill="#4A4D72" opacity="0.400000006" x="18.3715055" y="114.678117" width="96.850832" height="4.90867872" rx="2.45433936"></rect>
                                <rect id="Rectangle-9-Copy-3" stroke="none" fill="#4A4D72" opacity="0.400000006" x="18.3715055" y="146.233909" width="82.8144795" height="4.90867872" rx="2.45433936"></rect>
                                <rect id="Rectangle-9-Copy-4" stroke="none" fill="#FFFFFF" x="34.5133109" y="10.1933846" width="95.4471967" height="2.80495927" rx="1.40247963"></rect>
                                <rect id="Rectangle-9-Copy-4" stroke="none" fill="#FFFFFF" x="49.251481" y="20.010742" width="67.3744918" height="2.80495927" rx="1.40247963"></rect>
                                <rect id="Rectangle-9-Copy" stroke="none" fill="#4A4D72" opacity="0.400000006" x="18.3715055" y="83.1223256" width="40.7054221" height="4.90867872" rx="2.45433936"></rect>
                            </g>
                        </g>
                    </g>
                    <path d="M304.030572,308.282656 L269.77167,229.064457 L190.115463,229.064457 C191.830815,281.300975 239.792367,280.022266 239.792367,280.022266 L251.355543,318.559812 C217.95204,336.971017 211.955789,385.785718 211.955789,385.785718 C211.955789,385.785718 200.453109,452.411295 243.129399,492.836986 L304.030572,492.836986 L304.030572,308.282656 Z" id="Fill-36" fill="#FDDCBE"></path>
                    <path d="M67.6970996,234.145864 C63.3583066,241.472102 53.9020795,243.889032 46.5749183,239.554038 L27.2298857,228.098986 C19.9033751,223.763342 17.4809365,214.307656 21.8197295,206.982068 L24.4366657,202.56187 C28.7754588,195.235632 38.2323364,192.813499 45.5588471,197.149794 L64.9045301,208.603545 C72.2303903,212.94049 74.6528289,222.395526 70.3140358,229.721113 L67.6970996,234.145864 Z" id="Fill-37" fill="#E8BE98"></path>
                    <path d="M62.7761797,210.983857 L60.9060103,209.878807 L46.0669477,235.348931 L47.7543284,236.352516 C53.7596864,239.905065 61.5096685,237.918707 65.0652671,231.91931 L67.2099449,228.289362 C70.7655435,222.289964 68.7789357,214.540958 62.7761797,210.983857" id="Fill-38" fill="#FFFFFF"></path>
                    <path d="M67.6970996,285.09899 C63.3583066,292.425227 53.9020795,294.84671 46.5749183,290.510415 L27.2298857,279.056664 C19.9033751,274.720369 17.4809365,265.265334 21.8197295,257.939096 L24.4366657,253.518248 C28.7754588,246.193311 38.2323364,243.771177 45.5588471,248.106822 L64.9045301,259.561223 C72.2303903,263.896868 74.6528289,273.352554 70.3140358,280.678141 L67.6970996,285.09899 Z" id="Fill-39" fill="#E8BE98"></path>
                    <path d="M62.7761797,261.940819 L60.9060103,260.831867 L46.0669477,286.305894 L47.7543284,287.305576 C53.7596864,290.862678 61.5096685,288.876321 65.0652671,282.87237 L67.2099449,279.246975 C70.7655435,273.243024 68.7789357,265.494019 62.7761797,261.940819" id="Fill-40" fill="#FFFFFF"></path>
                    <path d="M63.8538527,331.961675 C60.2858946,337.98774 52.5105433,339.97735 46.486321,336.412443 L30.5771963,326.994481 C24.555576,323.429574 22.5631138,315.655203 26.1284698,309.629138 L28.2796525,305.995938 C31.8476105,299.974426 39.6236124,297.980264 45.6478346,301.549723 L61.5563089,310.963133 C67.5785797,314.532592 69.5710419,322.306964 66.0050354,328.328476 L63.8538527,331.961675 Z" id="Fill-41" fill="#E8BE98"></path>
                    <path d="M59.8051147,312.919376 L58.2679981,312.013352 L46.0666875,332.957261 L47.4561421,333.77808 C52.3920884,336.70038 58.7656258,335.070448 61.6876436,330.132523 L63.451132,327.151686 C66.3757517,322.21441 64.7430125,315.845578 59.8051147,312.919376" id="Fill-42" fill="#FFFFFF"></path>
                    <path d="M224.628708,230.068108 C224.628708,229.729243 224.599436,229.394932 224.561056,229.064522 L194.504994,229.064522 C194.464664,229.394932 194.435392,229.729243 194.435392,230.068108 C194.435392,236.335475 201.196623,241.416492 209.531399,241.416492 C217.869428,241.416492 224.628708,236.335475 224.628708,230.068108" id="Fill-43" fill="#FFFFFF"></path>
                </g>
                <g id="Group-77" transform="translate(329.281915, 245.627917) rotate(20.000000) translate(-329.281915, -245.627917) translate(282.281915, 198.215636)">
                    <g id="Group-41" transform="translate(-0.000000, 0.000000)">
                        <mask id="mask-18" fill="white">
                            <use xlink:href="#path-17"></use>
                        </mask>
                        <g id="Clip-40"></g>
                    </g>
                    <path d="M39.8613878,52.6133476 C41.5453634,50.7453841 44.256461,49.5291159 47.3223512,49.5291159 C50.3882415,49.5291159 53.099339,50.7453841 54.7838878,52.6133476 L56.2827293,52.6133476 C55.251022,49.3714939 51.6303024,46.9773598 47.3223512,46.9773598 C43.0144,46.9773598 39.3948268,49.3714939 38.3614,52.6133476 L39.8613878,52.6133476 Z" id="Fill-45" fill="#F86B4F"></path>
                    <path d="M9.71616098,50.3799878 C9.71616098,51.4827683 10.6108805,52.3769146 11.713661,52.3769146 L12.5728439,52.3769146 C13.6750512,52.3769146 14.5697707,51.4827683 14.5697707,50.3799878 C14.5697707,49.2766341 13.6750512,48.383061 12.5728439,48.383061 L11.713661,48.383061 C10.6108805,48.383061 9.71616098,49.2766341 9.71616098,50.3799878" id="Fill-47" fill="#F86B4F"></path>
                    <path d="M42.5615378,48.6020122 C42.5615378,57.0018293 35.7516963,63.8116707 27.3524524,63.8116707 C18.9526354,63.8116707 12.1433671,57.0018293 12.1433671,48.6020122 C12.1433671,40.2027683 18.9526354,33.3929268 27.3524524,33.3929268 C35.7516963,33.3929268 42.5615378,40.2027683 42.5615378,48.6020122" id="Fill-49" fill="#F86B4F"></path>
                    <path d="M42.555978,48.3828317 C42.438478,40.0844659 35.6785024,33.3932707 27.3526244,33.3932707 C19.0261732,33.3932707 12.2661976,40.0844659 12.1486976,48.3828317 L42.555978,48.3828317 Z" id="Fill-51" fill="#4A4D72"></path>
                    <path d="M41.4913134,48.3828317 C41.4913134,56.1917098 35.1612159,62.5212341 27.3523378,62.5212341 C19.5434598,62.5212341 13.212789,56.1917098 13.212789,48.3828317 C13.212789,40.5739537 19.5434598,34.2438561 27.3523378,34.2438561 C35.1612159,34.2438561 41.4913134,40.5739537 41.4913134,48.3828317" id="Fill-53" fill="#37384D"></path>
                    <path d="M27.3523951,61.318378 C20.2083951,61.318378 14.4165049,55.527061 14.4165049,48.383061 C14.4165049,41.2384878 20.2083951,35.4471707 27.3523951,35.4471707 C34.4969683,35.4471707 40.2877122,41.2384878 40.2877122,48.383061 C40.2877122,55.527061 34.4969683,61.318378 27.3523951,61.318378 M27.3523951,34.2440854 C19.5435171,34.2440854 13.2128463,40.5741829 13.2128463,48.383061 C13.2128463,56.1913659 19.5435171,62.5214634 27.3523951,62.5214634 C35.1612732,62.5214634 41.4913707,56.1913659 41.4913707,48.383061 C41.4913707,40.5741829 35.1612732,34.2440854 27.3523951,34.2440854" id="Fill-55" fill="#2E2F41"></path>
                    <path d="M18.8063049,58.468172 C21.0370854,56.2373915 23.2678659,54.0077573 25.4980732,51.7769768 L37.4383659,39.8372573 C35.0321951,36.999489 31.4527439,35.1888427 27.4474268,35.159611 L14.1298049,48.4778061 C14.1590366,52.4831232 15.9696829,56.0620012 18.8063049,58.468172" id="Fill-57" fill="#F2F5F8"></path>
                    <path d="M40.5274695,47.3131805 C40.4099695,45.8619122 40.0620549,44.4771317 39.5141037,43.1960951 L22.1659451,60.5448268 C23.4469817,61.0922049 24.8317622,61.4406927 26.2824573,61.5576195 C31.0306037,56.8094732 35.77875,52.0613268 40.5274695,47.3131805" id="Fill-59" fill="#F2F5F8"></path>
                    <path d="M80.4434232,50.3799878 C80.4434232,51.4827683 81.3381427,52.3769146 82.44035,52.3769146 L83.2989598,52.3769146 C84.4017402,52.3769146 85.2976061,51.4827683 85.2976061,50.3799878 C85.2976061,49.2766341 84.4017402,48.383061 83.2989598,48.383061 L82.44035,48.383061 C81.3381427,48.383061 80.4434232,49.2766341 80.4434232,50.3799878" id="Fill-61" fill="#F86B4F"></path>
                    <path d="M82.8704573,48.6020122 C82.8704573,57.0018293 76.0606159,63.8116707 67.661372,63.8116707 C59.2609817,63.8116707 52.4522866,57.0018293 52.4522866,48.6020122 C52.4522866,40.2027683 59.2609817,33.3929268 67.661372,33.3929268 C76.0606159,33.3929268 82.8704573,40.2027683 82.8704573,48.6020122" id="Fill-63" fill="#F86B4F"></path>
                    <path d="M82.8648402,48.3828317 C82.7473402,40.0844659 75.9867915,33.3932707 67.6614866,33.3932707 C59.3344622,33.3932707 52.5750598,40.0844659 52.4569866,48.3828317 L82.8648402,48.3828317 Z" id="Fill-65" fill="#4A4D72"></path>
                    <path d="M81.8002329,48.3828317 C81.8002329,56.1917098 75.4695622,62.5212341 67.6612573,62.5212341 C59.8518061,62.5212341 53.5211354,56.1917098 53.5211354,48.3828317 C53.5211354,40.5739537 59.8518061,34.2438561 67.6612573,34.2438561 C75.4695622,34.2438561 81.8002329,40.5739537 81.8002329,48.3828317" id="Fill-67" fill="#37384D"></path>
                    <path d="M67.6613146,61.318378 C60.5167415,61.318378 54.7259976,55.527061 54.7259976,48.383061 C54.7259976,41.2384878 60.5167415,35.4471707 67.6613146,35.4471707 C74.8047415,35.4471707 80.5966317,41.2384878 80.5966317,48.383061 C80.5966317,55.527061 74.8047415,61.318378 67.6613146,61.318378 M67.6613146,34.2440854 C59.8518634,34.2440854 53.5211927,40.5741829 53.5211927,48.383061 C53.5211927,56.1913659 59.8518634,62.5214634 67.6613146,62.5214634 C75.4696195,62.5214634 81.8002902,56.1913659 81.8002902,48.383061 C81.8002902,40.5741829 75.4696195,34.2440854 67.6613146,34.2440854" id="Fill-69" fill="#2E2F41"></path>
                    <path d="M59.1152244,58.468172 C61.3454317,56.2373915 63.5762122,54.0077573 65.8064195,51.7769768 L77.7467122,39.8372573 C75.3411146,36.999489 71.7605171,35.1888427 67.7563463,35.159611 L54.4381512,48.4778061 C54.4673829,52.4831232 56.2786024,56.0620012 59.1152244,58.468172" id="Fill-71" fill="#F2F5F8"></path>
                    <path d="M80.8352427,47.3131805 C80.718889,45.8619122 80.3709744,44.4771317 79.8230232,43.1960951 L62.4748646,60.5448268 C63.755328,61.0922049 65.1401085,61.4406927 66.5908037,61.5576195 C71.33895,56.8094732 76.0876695,52.0613268 80.8352427,47.3131805" id="Fill-73" fill="#F2F5F8"></path>
                </g>
                <g id="Group-38" transform="translate(337.000000, 0.000000)">
                    <g id="Group-25" transform="translate(0.000000, 0.000000)">
                        <mask id="mask-20" fill="white">
                            <use xlink:href="#path-19"></use>
                        </mask>
                        <g id="Clip-24"></g>
                    </g>
                    <path d="M22.3537829,57.2142951 C22.3537829,57.2142951 30.3850024,54.1206366 37.7380756,46.8822951 C46.7829293,37.9798317 45.6663439,35.0439293 57.3869049,22.3501976 C67.9355634,10.9277341 68.1173927,39.7842951 65.0360268,44.4191488 C61.7800024,49.3162463 60.0667098,61.5915146 60.0667098,61.5915146 L57.5246854,61.5915146 C57.5246854,61.5915146 58.4860756,47.4969293 56.7507585,45.4291976 C50.5798317,44.3023683 49.2911488,60.5814659 35.822978,61.5915146 C22.3537829,62.6015634 12.9688317,60.2311244 22.3537829,57.2142951" id="Fill-29" fill="#F2F5F8"></path>
                    <path d="M29.5995,54.1283707 C29.5995,54.1283707 36.2903049,55.6618829 38.5209146,53.4312732 C40.7515244,51.2011756 53.8555244,38.6549561 59.1526463,22.763078 C59.1526463,22.763078 56.0251829,23.899639 45.2122317,39.6301756 C37.3674512,51.0444439 29.5995,54.1283707 29.5995,54.1283707" id="Fill-31" fill="#6B6C8B"></path>
                    <g id="Group-37" transform="translate(55.317073, 22.536585)" fill="#000000">
                        <path d="M0.14177561,8.79136829 C1.56619024,6.08544146 2.83950732,3.2151 3.83572683,0.226441463 C3.83572683,0.226441463 2.86409268,0.581904878 0.14177561,3.60488049 L0.14177561,8.79136829 Z" id="Fill-35"></path>
                    </g>
                </g>
                <g id="Group-93-Copy" transform="translate(265.000000, 110.620968)">
                    <g id="Group-80">
                        <mask id="mask-22" fill="white">
                            <use xlink:href="#path-21"></use>
                        </mask>
                        <g id="Clip-79"></g>
                    </g>
                    <polygon id="Fill-84" fill="#F86B4F" points="41.2793207 29.0805561 31.3403085 29.0805561 31.3403085 20.7957146 41.2793207 12.5099707"></polygon>
                    <path d="M28.4499768,49.1298634 L28.4499768,30.2395585 C28.4499768,28.6675098 29.724672,27.3928146 31.2967207,27.3928146 L41.3228183,27.3928146 C42.8948671,27.3928146 44.1695622,28.6675098 44.1695622,30.2395585 L44.1695622,49.1298634 L28.4499768,49.1298634 Z" id="Fill-86" fill="#FFFFFF"></path>
                    <polygon id="Fill-88" fill="#F2F5F8" points="28.4498415 49.1296829 44.1694268 49.1296829 44.1694268 34.0819634 28.4498415 34.0819634"></polygon>
                    <path d="M26.1378829,59.3082927 L26.1378829,43.146061 C26.1378829,41.1115122 27.7875415,39.4618537 29.8220902,39.4618537 L42.7973585,39.4618537 C44.8319073,39.4618537 46.4815659,41.1115122 46.4815659,43.146061 L46.4815659,59.3082927 L26.1378829,59.3082927 Z" id="Fill-90" fill="#E56045"></path>
                    <polygon id="Fill-91" fill="#C24A32" points="26.1377927 59.3082927 46.4814756 59.3082927 46.4814756 52.7719268 26.1377927 52.7719268"></polygon>
                </g>
            </g>
        </g>
    </g>
</svg>