<?xml version="1.0" encoding="UTF-8"?>
<svg width="180px" height="319px" viewBox="0 0 180 319" version="1.1" xmlns="http://www.w3.org/2000/svg" xmlns:xlink="http://www.w3.org/1999/xlink">
    <!-- Generator: Sketch 42 (36781) - http://www.bohemiancoding.com/sketch -->
    <title>Page 1</title>
    <desc>Created with Sketch.</desc>
    <defs></defs>
    <g id="Page-1" stroke="none" stroke-width="1" fill="none" fill-rule="evenodd">
        <g id="01-landingspage-pt-v2@2x-copy" transform="translate(-1203.000000, -4256.000000)">
            <g id="Page-1" transform="translate(1277.500000, 4415.500000) scale(-1, 1) translate(-1277.500000, -4415.500000) translate(1172.000000, 4256.000000)">
                <path d="M132.102637,30.4547507 C131.872195,30.4547507 131.638035,30.4157767 131.408522,30.3331888 C130.344119,29.9504078 129.791708,28.778402 130.175469,27.7154308 L137.623965,7.0619611 C138.007261,5.99898991 139.179451,5.44732133 140.245248,5.83056628 C141.30965,6.21334726 141.862062,7.38535303 141.478765,8.44832421 L134.029805,29.1017939 C133.729208,29.9355605 132.942173,30.4547507 132.102637,30.4547507" id="Fill-8" fill="#37384D"></path>
                <path d="M96.955792,25.9538496 C95.908115,25.9538496 95.0146858,25.1553452 94.9180487,24.092838 L92.9281593,2.23117233 C92.8259469,1.10602824 93.6561903,0.110797695 94.7833142,0.00872276657 C95.908115,-0.0933521614 96.9060796,0.73577464 97.0087566,1.86091873 L98.9981814,23.7225844 C99.1003938,24.8477285 98.2701504,25.8429591 97.1434912,25.945034 C97.0807699,25.9510657 97.0175841,25.9538496 96.955792,25.9538496" id="Fill-10" fill="#37384D"></path>
                <path d="M63.2032168,36.708 C62.4974867,36.708 61.8112699,36.3433141 61.4307611,35.6904986 L50.3760265,16.7166254 C49.807354,15.7404179 50.138615,14.4876801 51.1166018,13.9197723 C52.0936593,13.3514006 53.3480841,13.6822161 53.9172212,14.6593516 L64.9719558,33.6332248 C65.5410929,34.6094323 65.2093673,35.8617061 64.2313805,36.4300778 C63.9075531,36.6184524 63.5530619,36.708 63.2032168,36.708" id="Fill-12" fill="#37384D"></path>
                <path d="M37.1567124,60.7011294 C36.7529735,60.7011294 36.3455177,60.5823513 35.9891681,60.3350516 L17.9407832,47.8044262 C17.0115796,47.1594983 16.7820664,45.8844896 17.4278628,44.9569997 C18.0736593,44.0290458 19.350385,43.8003052 20.2791239,44.4447692 L38.3279735,56.9753945 C39.2567124,57.6203225 39.4862257,58.8953311 38.8404292,59.822821 C38.4427301,60.3944406 37.8048319,60.7011294 37.1567124,60.7011294" id="Fill-14" fill="#37384D"></path>
                <path d="M23.7116018,93.4379971 C23.5959159,93.4379971 23.4783717,93.4282536 23.3603628,93.4078386 L1.70016372,89.6686484 C0.585119469,89.476098 -0.162424779,88.4177666 0.0303849558,87.3042219 C0.222730088,86.1906772 1.28155752,85.4432104 2.39753097,85.6371527 L24.0581947,89.3763429 C25.1727743,89.5684294 25.9203186,90.6272248 25.7275088,91.7403055 C25.5556062,92.736 24.6895885,93.4379971 23.7116018,93.4379971" id="Fill-16" fill="#37384D"></path>
                <path d="M4.15930088,134.536889 C3.25750885,134.536889 2.4309823,133.937431 2.18381416,133.026644 C1.88693363,131.936763 2.53180088,130.812546 3.62361504,130.516529 L24.8368673,124.763679 C25.9282168,124.465342 27.0539469,125.111662 27.3508274,126.202007 C27.6472434,127.291889 27.0023761,128.416105 25.9105619,128.712123 L4.69730973,134.464973 C4.51750885,134.51369 4.33677876,134.536889 4.15930088,134.536889" id="Fill-18" fill="#37384D"></path>
                <path d="M164.421405,99.775319 C161.357356,66.6524689 131.986162,42.2816159 98.8187058,45.3410798 C65.6507854,48.4010078 41.2471128,77.7331663 44.3111615,110.856016 C46.1774668,131.03391 57.8069137,147.963501 74.1097898,157.423063 L75.0705863,167.811042 L100.731007,165.443832 C103.746737,165.621999 106.813573,165.576065 109.913861,165.289792 C113.014148,165.003982 116.037777,164.488039 118.969414,163.761452 L144.601493,161.396561 L143.642555,151.028996 C157.950431,138.747527 166.289104,119.96574 164.421405,99.775319" id="Fill-20" fill="#FFCE80"></path>
                <path d="M121.62006,101.597588 C121.593577,101.508505 121.551763,101.427309 121.517847,101.341937 C121.476962,101.238934 121.442582,101.134539 121.390546,101.035712 C121.337117,100.934565 121.268356,100.844554 121.204706,100.750367 C121.154993,100.676594 121.113179,100.598646 121.056498,100.52905 C120.79725,100.209369 120.476675,99.9439746 120.11475,99.7481764 C120.042272,99.7092023 119.965613,99.6855395 119.891277,99.6525971 C119.779772,99.6029516 119.671055,99.5491303 119.553976,99.5129401 C119.455015,99.4823176 119.353732,99.4697902 119.252914,99.4493752 C119.154883,99.4294242 119.059639,99.4015856 118.958821,99.3909141 C118.761365,99.3704991 118.562051,99.3691072 118.364595,99.3862744 C118.358555,99.3867383 118.35298,99.3853464 118.34694,99.3862744 L118.346476,99.3862744 C118.142051,99.4048334 117.940414,99.4447354 117.743423,99.5036605 C117.657936,99.5287153 117.580812,99.5690813 117.499042,99.6010957 C117.391719,99.6428536 117.283002,99.6790438 117.180325,99.7328651 C117.084153,99.7834386 116.999131,99.8493233 116.909462,99.9087124 C116.83048,99.9616058 116.747781,100.006148 116.67298,100.066929 C116.512228,100.196842 116.364949,100.341603 116.233002,100.500283 L111.684551,105.967323 L106.205038,101.422205 C104.880458,100.323044 102.916122,100.503995 101.81548,101.826793 L97.2628473,107.298009 L91.7879801,102.755211 C91.6295509,102.622978 91.456719,102.507911 91.2741305,102.409084 C91.1993296,102.368718 91.1203473,102.343663 91.0432235,102.310257 C90.9345066,102.262003 90.8285774,102.209574 90.7138208,102.173848 C90.6116084,102.142297 90.5066084,102.128842 90.402073,102.107963 C90.3077588,102.08894 90.2162323,102.062029 90.1191305,102.051822 C89.7107456,102.009136 89.2977146,102.047182 88.9041969,102.16364 C88.8108119,102.191479 88.7262544,102.234629 88.6365863,102.270355 C88.5380907,102.310257 88.4368075,102.342735 88.3415642,102.392845 C88.2360996,102.448058 88.1417854,102.519047 88.0437544,102.586323 C87.9740642,102.633649 87.9001925,102.672623 87.8337544,102.726444 C87.5141084,102.985344 87.2478916,103.30456 87.0518296,103.665998 C87.0081571,103.745802 86.9816748,103.83071 86.9459004,103.912833 C86.9008341,104.0163 86.8501925,104.116519 86.8162765,104.22509 C86.7832898,104.332269 86.7684226,104.442695 86.7470509,104.55173 C86.729396,104.641277 86.7033783,104.728041 86.6936217,104.819444 C86.67225,105.024058 86.6694624,105.229136 86.6885111,105.432822 L86.6885111,105.432822 L92.4035774,167.215528 C92.5620066,168.927603 94.0798606,170.1873 95.7942412,170.029084 C97.5086217,169.870868 98.7700155,168.355055 98.6115863,166.642516 L93.5892412,112.344222 L95.6766969,114.076712 C96.3122721,114.604254 97.1318296,114.858514 97.955104,114.782421 C98.7783783,114.706329 99.5375376,114.306845 100.06579,113.671661 L104.618423,108.199516 L110.0984,112.74649 C110.733976,113.273568 111.553533,113.527828 112.376808,113.452199 C113.200082,113.376107 113.959241,112.976159 114.487493,112.341439 L116.221852,110.256326 L121.244662,164.55462 C121.403091,166.267159 122.920945,167.526393 124.635325,167.368176 C126.349706,167.210424 127.6111,165.694148 127.45267,163.982073 L121.737604,102.199367 L121.737604,102.199367 C121.718555,101.995681 121.6786,101.794315 121.62006,101.597588" id="Fill-22" fill="#FFFFFF"></path>
                <path d="M145.863027,175.036231 L76.3325841,181.450712 C72.5614115,181.798695 69.2209248,179.026896 68.8729381,175.260795 C68.5244867,171.495159 71.3000177,168.159164 75.0707257,167.811182 L144.601168,161.3967 C148.372341,161.048718 151.712827,163.820516 152.061279,167.586617 C152.409265,171.352254 149.633735,174.688248 145.863027,175.036231" id="Fill-24" fill="#F1F3F3"></path>
                <path d="M147.124699,188.675622 L77.5942566,195.090103 C73.8230841,195.438086 70.4825973,192.666287 70.1346106,188.900186 C69.7861593,185.13455 72.5616903,181.798555 76.3323982,181.450573 L145.862841,175.036091 C149.634013,174.688573 152.9745,177.459907 153.322951,181.226008 C153.670938,184.991645 150.895407,188.327639 147.124699,188.675622" id="Fill-26" fill="#F1F3F3"></path>
                <path d="M76.3323982,181.450665 L145.862841,175.036184 C149.634013,174.688201 152.409544,171.352207 152.061093,167.58657 L68.8727522,175.260749 C69.2212035,179.02685 72.5616903,181.798648 76.3323982,181.450665" id="Fill-28" fill="#E1E1E1"></path>
                <path d="M77.5940708,195.09001 L147.124513,188.675529 C150.895686,188.327546 153.671217,184.992016 153.322765,181.225915 L70.1344248,188.900094 C70.4828761,192.666195 73.8233628,195.437993 77.5940708,195.09001" id="Fill-30" fill="#E1E1E1"></path>
                <path d="M150.881237,237.666066 L144.080861,234.415443 C144.080861,234.415443 145.703715,231.79351 148.395153,226.668884 L154.905617,229.985855 C153.635861,232.439829 152.301524,234.990311 150.881237,237.666066" id="Fill-32" fill="#F6F6F6"></path>
                <path d="M148.395199,226.668652 C152.912522,218.066984 163.483142,193.205243 171.417146,171.025753 C171.417146,171.025753 171.950509,169.196756 173.388916,169.851427 C174.205221,170.222609 173.64073,171.913341 173.64073,171.913341 C173.64073,171.913341 174.596416,170.422583 175.450354,170.810932 C176.304292,171.199744 175.925642,172.896508 175.925642,172.896508 C175.925642,172.896508 176.747987,171.665577 177.468119,172.010312 C178.188252,172.355047 177.50854,174.028612 177.50854,174.028612 C177.50854,174.028612 178.228673,172.500272 179.020819,172.880733 C180.024358,173.362341 179.057522,175.418687 179.057522,175.418687 C177.61958,178.457736 169.708805,201.380053 154.905664,229.986087 L148.395199,226.668652 Z" id="Fill-34" fill="#FFDDBE"></path>
                <path d="M148.395199,226.668559 C149.905155,223.793294 152.093429,219.095528 154.631084,213.294424 C154.998584,216.428588 155.623938,222.424098 155.810243,228.22381 C155.510111,228.809813 155.211372,229.394888 154.905664,229.985995 C153.635907,232.439969 152.301571,234.99045 150.881283,237.665741 L144.080907,234.415118 C144.080907,234.415118 145.703761,231.793185 148.395199,226.668559" id="Fill-36" fill="#F3F3F3"></path>
                <path d="M151.059179,230.136462 C151.059179,230.136462 152.186303,209.826335 147.124467,188.675482 L77.5940243,195.089964 C79.9751084,207.425719 80.7370553,212.392592 82.6781615,232.386286 C128.683958,241.17633 151.059179,230.136462 151.059179,230.136462" id="Fill-41" fill="#FFDDBE"></path>
                <path d="M98.8148496,205.511396 L103.446929,192.705169 L77.5941637,195.09001 C78.5582124,212.27386 82.6778363,232.386333 82.6778363,232.386333 C90.6857124,227.669543 97.4377699,210.574777 97.4377699,210.574777 C97.4377699,210.574777 89.3969071,212.894197 90.9356681,206.254687 C92.4753584,199.614713 98.8148496,205.511396 98.8148496,205.511396" id="Fill-43" fill="#5B4735"></path>
                <path d="M88.2912478,273.201039 L87.8842566,292.932123 L85.1217345,316.504471 C85.1217345,316.504471 109.336779,323.043299 103.233305,313.503469 C97.5967566,304.69301 88.8013805,312.012711 88.8013805,312.012711 L93.5997876,292.102996 L96.2707832,278.761803 C96.2707832,278.761803 120.472819,282.041192 142.149279,278.30061 L141.057465,289.514933 L136.986159,313.923368 C136.986159,313.923368 159.400407,321.43701 153.194721,311.030007 C149.754345,305.260454 141.300916,308.880866 141.300916,308.880866 L146.667996,289.48663 L150.346712,272.652618 L88.2912478,273.201039 Z" id="Fill-45" fill="#282834"></path>
                <path d="M151.059179,230.136462 L150.34648,272.652526 C150.34648,272.652526 124.408692,278.191946 88.2914801,273.200946 L82.6781615,232.386286 C82.6781615,232.386286 124.438892,239.181229 151.059179,230.136462" id="Fill-47" fill="#F6F6F6"></path>
                <path d="M83.6507124,238.890733 L89.5571947,234.211525 C89.5571947,234.211525 87.3912212,232.015522 83.6260885,227.616557 L78.0174159,232.296229 C79.8014867,234.40686 81.6705796,236.597295 83.6507124,238.890733" id="Fill-49" fill="#F6F6F6"></path>
                <path d="M83.6263208,227.616557 C77.3072721,220.233292 61.4662102,198.34054 48.7937323,178.477223 C48.7937323,178.477223 47.8663872,176.812473 46.6096394,177.770122 C45.8964757,178.313439 46.8233562,179.836211 46.8233562,179.836211 C46.8233562,179.836211 45.5596394,178.595073 44.8134889,179.163445 C44.0673385,179.731816 44.8144181,181.301914 44.8144181,181.301914 C44.8144181,181.301914 43.738865,180.284877 43.1135111,180.780868 C42.4881571,181.276396 43.5232898,182.75741 43.5232898,182.75741 C43.5232898,182.75741 42.4807235,181.427652 41.7931128,181.974217 C40.9219845,182.666471 42.3227588,184.456494 42.3227588,184.456494 C44.4009226,187.100234 57.2164978,207.692923 78.0171836,232.296229 L83.6263208,227.616557 Z" id="Fill-51" fill="#FFDDBE"></path>
                <polygon id="Fill-53" fill="#F3F3F3" points="135.894392 236.785298 137.175299 239.141837 135.419569 241.931731 136.830564 267.1795 129.89406 272.409448 124.372268 266.33367 131.933197 242.242131 129.840166 239.318612 130.919436 237.378725"></polygon>
                <polygon id="Fill-55" fill="#37384D" points="135.894392 236.785298 137.175299 239.141837 135.419569 241.931731 138.321007 266.805071 131.384502 272.035019 125.86271 265.959241 131.933197 242.242131 129.840166 239.318612 130.919436 237.378725"></polygon>
                <path d="M138.195936,215.831171 C138.195936,215.831171 125.53275,215.975004 117.916069,218.782993 C117.916069,218.782993 117.665648,229.100448 129.549232,227.718261 C141.310626,226.350457 138.195936,215.831171 138.195936,215.831171" id="Fill-57" fill="#FF7E87"></path>
                <path d="M113.675881,205.794701 C113.972761,208.297856 113.167142,210.451173 111.876942,210.603358 C110.586279,210.756006 109.299796,208.850453 109.002916,206.346833 C108.7065,203.843678 109.512119,201.690361 110.802319,201.538176 C112.092518,201.385528 113.379,203.291545 113.675881,205.794701" id="Fill-59" fill="#5B4735"></path>
                <path d="M142.848969,202.34712 C143.14585,204.850276 142.34023,207.003593 141.049566,207.155777 C139.759367,207.308425 138.472885,205.402872 138.176004,202.899252 C137.879588,200.396097 138.685208,198.24278 139.975407,198.090595 C141.265606,197.937947 142.552088,199.843964 142.848969,202.34712" id="Fill-61" fill="#5B4735"></path>
                <path d="M147.124699,188.675575 L103.447022,192.705215 L77.5942566,195.090056 C77.6216681,195.584656 77.6523319,196.081575 77.6853186,196.58035 L147.943792,192.342849 C147.568858,190.369091 147.604633,190.681348 147.124699,188.675575" id="Fill-63" fill="#F3F3F3"></path>
            </g>
        </g>
    </g>
</svg>