<?xml version="1.0" encoding="UTF-8"?>
<svg width="18px" height="41px" viewBox="0 0 18 41" version="1.1" xmlns="http://www.w3.org/2000/svg" xmlns:xlink="http://www.w3.org/1999/xlink">
    <!-- Generator: Sketch 42 (36781) - http://www.bohemiancoding.com/sketch -->
    <title>Group 93 Copy</title>
    <desc>Created with Sketch.</desc>
    <defs></defs>
    <g id="Page-1" stroke="none" stroke-width="1" fill="none" fill-rule="evenodd">
        <g id="01-landingspage-pt-v2@2x-copy" transform="translate(-586.000000, -3830.000000)">
            <g id="Group-93-Copy" transform="translate(586.000000, 3830.000000)">
                <polygon id="Fill-84" fill="#F86B4F" points="13.0965606 14.6404767 4.57740732 14.6404767 4.57740732 7.53918397 13.0965606 0.43711777"></polygon>
                <path d="M2.09998014,31.8255972 L2.09998014,15.6339073 C2.09998014,14.2864369 3.19257596,13.1938411 4.54004634,13.1938411 L13.1338443,13.1938411 C14.4813146,13.1938411 15.5739105,14.2864369 15.5739105,15.6339073 L15.5739105,31.8255972 L2.09998014,31.8255972 Z" id="Fill-86" fill="#D5D5D5"></path>
                <polygon id="Fill-88" fill="#F2F5F8" points="2.09986411 31.8254425 15.5737944 31.8254425 15.5737944 18.9273972 2.09986411 18.9273972"></polygon>
                <path d="M0.118185366,40.5499652 L0.118185366,26.6966237 C0.118185366,24.9527247 1.5321784,23.5387317 3.27607735,23.5387317 L14.3977359,23.5387317 C16.1416348,23.5387317 17.5556279,24.9527247 17.5556279,26.6966237 L17.5556279,40.5499652 L0.118185366,40.5499652 Z" id="Fill-90" fill="#E56045"></path>
                <polygon id="Fill-91" fill="#C24A32" points="0.118108014 40.5499652 17.5555505 40.5499652 17.5555505 34.9473659 0.118108014 34.9473659"></polygon>
            </g>
        </g>
    </g>
</svg>