<?xml version="1.0" encoding="UTF-8"?>
<svg width="25px" height="33px" viewBox="0 0 25 33" version="1.1" xmlns="http://www.w3.org/2000/svg" xmlns:xlink="http://www.w3.org/1999/xlink">
    <!-- Generator: Sketch 42 (36781) - http://www.bohemiancoding.com/sketch -->
    <title>Group 161 Copy</title>
    <desc>Created with Sketch.</desc>
    <defs></defs>
    <g id="Page-1" stroke="none" stroke-width="1" fill="none" fill-rule="evenodd">
        <g id="01-landingspage-pt-v2@2x-copy" transform="translate(-932.000000, -3837.000000)">
            <g id="Group-161-Copy" transform="translate(932.000000, 3838.000000)">
                <polygon id="Fill-152" fill="#F86B4F" points="0.158219178 31.0232877 24.7041096 31.0232877 24.7041096 7.82465753 0.158219178 7.82465753"></polygon>
                <polygon id="Fill-154" fill="#FFBEB2" points="0.158219178 22.7523973 24.7041096 22.7523973 24.7041096 16.0955479 0.158219178 16.0955479"></polygon>
                <polygon id="Fill-155" fill="#FFBEB2" points="15.7599315 31.0232534 9.10308219 31.0232534 9.10308219 7.82462329 12.4311644 5.86503425 15.7599315 7.82462329"></polygon>
                <path d="M21.7290068,4.37866438 C21.7290068,6.73037671 19.5803767,8.63688356 16.9293493,8.63688356 C14.2786644,8.63688356 12.1307192,6.73037671 12.1307192,4.37866438 C12.1307192,2.02695205 14.2786644,0.120445205 16.9293493,0.120445205 C19.5803767,0.120445205 21.7290068,2.02695205 21.7290068,4.37866438 Z" id="Stroke-156" stroke="#4A4D72" stroke-width="2"></path>
                <path d="M12.1306164,4.37866438 C12.1306164,6.73037671 9.9819863,8.63688356 7.33061644,8.63688356 C4.68061644,8.63688356 2.5319863,6.73037671 2.5319863,4.37866438 C2.5319863,2.02695205 4.68061644,0.120445205 7.33061644,0.120445205 C9.9819863,0.120445205 12.1306164,2.02695205 12.1306164,4.37866438 Z" id="Stroke-157" stroke="#4A4D72" stroke-width="2"></path>
                <path d="M10.6166096,7.48109589 L6.24708904,13.0461644" id="Stroke-158" stroke="#4A4D72" stroke-width="2"></path>
                <path d="M13.5753767,7.48109589 L17.9445548,13.0461644" id="Stroke-159" stroke="#4A4D72" stroke-width="2"></path>
            </g>
        </g>
    </g>
</svg>