<?xml version="1.0" encoding="UTF-8"?>
<svg width="26px" height="39px" viewBox="0 0 26 39" version="1.1" xmlns="http://www.w3.org/2000/svg" xmlns:xlink="http://www.w3.org/1999/xlink">
    <!-- Generator: Sketch 42 (36781) - http://www.bohemiancoding.com/sketch -->
    <title>Group 22 Copy</title>
    <desc>Created with Sketch.</desc>
    <defs></defs>
    <g id="Page-1" stroke="none" stroke-width="1" fill="none" fill-rule="evenodd">
        <g id="01-landingspage-pt-v2@2x-copy" transform="translate(-581.000000, -4138.000000)">
            <g id="Group-22-Copy" transform="translate(581.000000, 4138.000000)">
                <path d="M11.7735117,3.43741194 C11.4802191,3.43741194 11.2428064,3.19999923 11.2428064,2.90670655 C11.2428064,2.61372259 11.4802191,2.37600116 11.7735117,2.37600116 C12.0664957,2.37600116 12.3042171,2.61372259 12.3042171,2.90670655 C12.3042171,3.19999923 12.0664957,3.43741194 11.7735117,3.43741194 L11.7735117,3.43741194 Z M11.7735117,6.90413145 C11.4802191,6.90413145 11.2428064,6.66671874 11.2428064,6.37342606 C11.2428064,6.08013338 11.4802191,5.84272067 11.7735117,5.84272067 C12.0664957,5.84272067 12.3042171,6.08013338 12.3042171,6.37342606 C12.3042171,6.66671874 12.0664957,6.90413145 11.7735117,6.90413145 L11.7735117,6.90413145 Z M11.7735117,33.210324 C11.4802191,33.210324 11.2428064,32.9726026 11.2428064,32.6796186 C11.2428064,32.3863259 11.4802191,32.1486045 11.7735117,32.1486045 C12.0664957,32.1486045 12.3042171,32.3863259 12.3042171,32.6796186 C12.3042171,32.9726026 12.0664957,33.210324 11.7735117,33.210324 L11.7735117,33.210324 Z M11.7735117,36.6403047 C11.4802191,36.6403047 11.2428064,36.4025833 11.2428064,36.1095994 C11.2428064,35.8163067 11.4802191,35.5785852 11.7735117,35.5785852 C12.0664957,35.5785852 12.3042171,35.8163067 12.3042171,36.1095994 C12.3042171,36.4025833 12.0664957,36.6403047 11.7735117,36.6403047 L11.7735117,36.6403047 Z M6.39575886,38.6884139 L17.1512646,38.6884139 L17.1512646,0.120426059 L6.39575886,0.120426059 L6.39575886,38.6884139 Z" id="Fill-6" fill="#F86B4F"></path>
                <path d="M24.447553,19.278335 C24.447553,19.8476315 23.986003,20.3091816 23.4167064,20.3091816 L21.6946153,20.3091816 C21.1253187,20.3091816 20.6640774,19.8476315 20.6640774,19.278335 C20.6640774,18.7090384 21.1253187,18.2474884 21.6946153,18.2474884 L23.4167064,18.2474884 C23.986003,18.2474884 24.447553,18.7090384 24.447553,19.278335" id="Fill-8" fill="#4A4D72"></path>
                <path d="M24.447553,21.1700419 C23.8782565,21.1700419 23.4167064,20.7084918 23.4167064,20.1391953 L23.4167064,18.4177216 C23.4167064,17.8481164 23.8782565,17.3865663 24.447553,17.3865663 C25.0168496,17.3865663 25.4783996,17.8481164 25.4783996,18.4177216 L25.4783996,20.1391953 C25.4783996,20.7084918 25.0168496,21.1700419 24.447553,21.1700419" id="Fill-10" fill="#D65339"></path>
                <path d="M22.9908763,19.278335 C22.9908763,25.4732939 17.9687794,30.4956996 11.7735117,30.4956996 C5.57824409,30.4956996 0.555838447,25.4732939 0.555838447,19.278335 C0.555838447,13.0833761 5.57824409,8.06097041 11.7735117,8.06097041 C17.9687794,8.06097041 22.9908763,13.0833761 22.9908763,19.278335" id="Fill-12" fill="#D65339"></path>
                <path d="M21.5038361,19.278335 C21.5038361,24.6522731 17.1474383,29.0089565 11.7735002,29.0089565 C6.39927647,29.0089565 2.04287866,24.6522731 2.04287866,19.278335 C2.04287866,13.9043969 6.39927647,9.54771343 11.7735002,9.54771343 C17.1474383,9.54771343 21.5038361,13.9043969 21.5038361,19.278335" id="Fill-14" fill="#FFFFFF"></path>
                <path d="M12.5429265,19.420937 C12.9201935,19.6737861 13.0214567,20.1844241 12.7686075,20.5619999 C12.5157583,20.9392669 12.0048116,21.0402213 11.6275446,20.7873721 L4.47676027,16.1277232 C4.09980199,15.8751828 3.99853883,15.3642361 4.251388,14.9869691 C4.50423716,14.6093933 5.01487516,14.5087476 5.39183344,14.7612881 L12.5429265,19.420937 Z" id="Fill-16" fill="#4A4D72"></path>
                <path d="M11.5933683,19.420937 C11.2161013,19.6737861 11.1148381,20.1844241 11.3676873,20.5619999 C11.6205365,20.9392669 12.1311745,21.0402213 12.5087502,20.7873721 L17.0952303,17.6333953 C17.4721886,17.3808548 17.5734517,16.8695994 17.3206026,16.4926411 C17.0677534,16.1150653 16.5571154,16.0141109 16.1798484,16.2666513 L11.5933683,19.420937 Z" id="Fill-18" fill="#4A4D72"></path>
            </g>
        </g>
    </g>
</svg>