<?xml version="1.0" encoding="UTF-8"?>
<svg width="144px" height="180px" viewBox="0 0 144 180" version="1.1" xmlns="http://www.w3.org/2000/svg" xmlns:xlink="http://www.w3.org/1999/xlink">
    <!-- Generator: Sketch 42 (36781) - http://www.bohemiancoding.com/sketch -->
    <title>Group 22 Copy 2</title>
    <desc>Created with Sketch.</desc>
    <defs>
        <polygon id="path-1" points="0 0.013734408 0 44.2090829 45.3530578 44.2090829 45.3530578 0.013734408 3.62963385e-20 0.013734408"></polygon>
        <polygon id="path-3" points="45.5614885 44.7465406 45.5614885 0.551192077 0.180443527 0.551192077 0.180443527 44.7465406 45.5614885 44.7465406"></polygon>
    </defs>
    <g id="Page-1" stroke="none" stroke-width="1" fill="none" fill-rule="evenodd">
        <g id="01-landingspage-pt-mobile" transform="translate(-115.000000, -1592.000000)">
            <g id="img-benefit-2" transform="translate(0.000000, 1578.000000)">
                <g id="Group-22-Copy-2" transform="translate(115.000000, 14.000000)">
                    <g id="Page-1">
                        <path d="M65.9639937,142.524365 C65.6472969,146.176854 59.5276166,177.119047 59.5276166,177.119047 L56.7489872,177.33032 C56.7489872,177.33032 60.5828263,142.137922 61.4974306,142.383962 C62.4113653,142.594567 65.9285076,142.910808 65.9639937,142.524365" id="Fill-3" fill="#FFC396"></path>
                        <path d="M60.2309112,175.503742 L56.7137689,175.1875 C56.7137689,175.1875 52.2465362,177.048845 52.3878111,177.470724 C52.563233,177.927368 59.562701,178.769788 59.562701,178.769788 C59.562701,178.769788 60.5824245,176.451797 60.2309112,175.503742" id="Fill-5" fill="#FFFFFF"></path>
                        <path d="M78.0281333,142.559533 C77.7114365,146.177256 78.6260407,177.716496 78.6260407,177.716496 L81.3343675,178.419181 C81.3343675,178.419181 83.4093007,143.086379 82.4598798,143.121146 C81.510459,143.192016 77.9926471,142.945976 78.0281333,142.559533" id="Fill-7" fill="#FFC396"></path>
                        <path d="M78.3446292,175.960319 L81.8972576,176.206359 C81.8972576,176.206359 85.9768213,178.805156 85.7659133,179.191599 C85.5550052,179.612809 78.4852345,179.296567 78.4852345,179.296567 C78.4852345,179.296567 77.8525105,176.838174 78.3446292,175.960319" id="Fill-9" fill="#FFFFFF"></path>
                        <g id="Group-13" transform="translate(0.000000, 51.412312)">
                            <mask id="mask-2" fill="white">
                                <use xlink:href="#path-1"></use>
                            </mask>
                            <g id="Clip-12"></g>
                            <path d="M44.3681508,37.0245263 C44.3681508,37.0245263 33.4297244,41.2740634 20.485998,31.5808934 C7.50745506,21.9218213 5.39703577,7.13602643 5.39703577,7.13602643 C5.39703577,7.13602643 9.12575563,8.40032388 9.75847969,6.53897851 C10.3563872,4.67763313 5.99494327,5.27468106 5.99494327,5.27468106 C5.99494327,5.27468106 8.63296737,2.11360314 7.50745506,1.3059504 C6.38194274,0.497629081 5.11582508,4.22098842 5.11582508,4.22098842 C5.11582508,4.22098842 5.29191654,-0.380225257 3.95482665,0.0409843648 C2.65389243,0.462862573 4.02512932,3.79911021 4.02512932,3.79911021 C4.02512932,3.79911021 1.91537959,1.0244754 0.860169942,2.00796644 C-0.230525812,2.99145747 2.09080149,4.81803634 2.4074983,4.92300445 C2.7241951,5.02864115 2.79449777,5.09884276 2.79449777,5.09884276 C2.79449777,5.09884276 -0.441433831,5.62568908 0.0506848795,7.03038973 C0.507987028,8.43509039 3.0408919,6.88998653 3.0408919,6.88998653 C3.0408919,6.88998653 3.92001009,21.5708133 15.4918301,34.0740532 C27.06365,46.6127282 45.3530578,43.9784966 45.3530578,43.9784966 L44.3681508,37.0245263 Z" id="Fill-11" fill="#FFC396" mask="url(#mask-2)"></path>
                        </g>
                        <g id="Group-16" transform="translate(98.423742, 86.847407)">
                            <mask id="mask-4" fill="white">
                                <use xlink:href="#path-3"></use>
                            </mask>
                            <g id="Clip-15"></g>
                            <path d="M1.20016706,7.7357487 C1.20016706,7.7357487 12.1385934,3.52097814 25.0823198,13.1793816 C38.0253767,22.8377851 40.1712821,37.6242486 40.1712821,37.6242486 C40.1712821,37.6242486 36.4077457,36.3953862 35.8098382,38.2567316 C35.1764446,40.118077 39.5378885,39.4855939 39.5378885,39.4855939 C39.5378885,39.4855939 36.8998644,42.6466719 38.0608628,43.4543246 C39.1863751,44.2626459 40.4176762,40.5392866 40.4176762,40.5392866 C40.4176762,40.5392866 40.2415848,45.1405003 41.5780051,44.7192906 C42.9144254,44.3328475 41.5431885,40.9611648 41.5431885,40.9611648 C41.5431885,40.9611648 43.6181217,43.7357996 44.7081479,42.7523086 C45.7633576,41.7688175 43.4420303,39.9776738 43.1608196,39.8372706 C42.8441228,39.7316339 42.7390035,39.6614322 42.7390035,39.6614322 C42.7390035,39.6614322 45.9742656,39.1345859 45.517633,37.7298853 C45.0248447,36.3251846 42.527426,37.905055 42.527426,37.905055 C42.527426,37.905055 41.6134912,23.2242282 30.0416713,10.6862218 C18.4698513,-1.85245317 0.180443527,0.781778429 0.180443527,0.781778429 L1.20016706,7.7357487 Z" id="Fill-14" fill="#FFC396" mask="url(#mask-4)"></path>
                        </g>
                        <polygon id="Fill-17" fill="#4A4D72" points="73.8777982 48.4682568 36.9467998 47.9059754 41.3430603 140.979261 73.8777982 140.382214 106.412536 140.979261 110.808797 47.9059754"></polygon>
                        <polygon id="Fill-19" fill="#2E2F41" points="40.4287238 146.247323 107.326739 146.247323 107.326739 138.344629 40.4287238 138.344629"></polygon>
                        <path d="M119.461114,4.28503902 L94.8404484,15.6998198 C94.7346596,15.7700214 94.4534489,15.9806262 94.4534489,16.191231 C94.4534489,18.0178099 91.2530034,38.5989143 91.1472146,39.3718005 L86.4342573,38.6691159 L86.4697434,38.5641478 L86.4697434,38.4585111 L86.5748627,37.7912615 C87.2082563,33.8225309 89.7050055,17.6313667 89.7050055,16.191231 C89.7050055,12.9599515 92.7655152,11.4496141 92.8003318,11.4496141 L92.8358179,11.4148476 L117.456483,6.68586699e-05 L119.461114,4.28503902 Z" id="Fill-21" fill="#2E2F41"></path>
                        <polygon id="Fill-22" fill="#CCDBE2" points="49.6792165 41.3387157 98.0414295 41.3387157 98.0414295 35.6136078 49.6792165 35.6136078"></polygon>
                        <polygon id="Fill-23" fill="#DBECEA" points="34.3090435 51.4183288 113.447089 51.4183288 113.447089 39.89858 34.3090435 39.89858"></polygon>
                        <path d="M58.4019034,88.4719386 C60.5471393,88.4719386 62.2705591,86.7509965 62.2705591,84.6088447 C62.2705591,82.4660243 60.5471393,80.7103156 58.4019034,80.7103156 C56.2566676,80.7103156 54.4977617,82.4660243 54.4977617,84.6088447 C54.4977617,86.7509965 56.2566676,88.4719386 58.4019034,88.4719386" id="Fill-24" fill="#1E0400"></path>
                        <path d="M90.2328781,88.4719386 C92.378114,88.4719386 94.1015338,86.7509965 94.1015338,84.6088447 C94.1015338,82.4660243 92.378114,80.7103156 90.2328781,80.7103156 C88.0876423,80.7103156 86.3287364,82.4660243 86.3287364,84.6088447 C86.3287364,86.7509965 88.0876423,88.4719386 90.2328781,88.4719386" id="Fill-25" fill="#1E0400"></path>
                        <path d="M56.7840046,100.764574 C59.8090282,100.764574 62.2709608,99.0081964 62.2709608,96.9014797 C62.2709608,94.7586594 59.8090282,93.0029507 56.7840046,93.0029507 C53.758981,93.0029507 51.2622318,94.7586594 51.2622318,96.9014797 C51.2622318,99.0081964 53.758981,100.764574 56.7840046,100.764574" id="Fill-26" fill="#F86B4F"></path>
                        <path d="M93.7149361,100.764574 C96.7399596,100.764574 99.2018923,99.0081964 99.2018923,96.9014797 C99.2018923,94.7586594 96.7399596,93.0029507 93.7149361,93.0029507 C90.6550959,93.0029507 88.1931633,94.7586594 88.1931633,96.9014797 C88.1931633,99.0081964 90.6550959,100.764574 93.7149361,100.764574" id="Fill-27" fill="#F86B4F"></path>
                        <path d="M68.4963629,91.4222112 C68.3905742,91.1414047 68.5666656,90.8251632 68.8478763,90.7195265 C69.1297566,90.6493249 69.4457838,90.7897281 69.5160865,91.0712031 C69.8682694,92.1248958 70.5009934,93.0027501 71.2749924,93.599798 C72.0838079,94.196846 73.0338983,94.547854 74.0536219,94.547854 C75.0733454,94.547854 76.0582524,94.196846 76.8670679,93.564363 C77.6765529,92.8971134 78.2744604,91.983824 78.5911572,90.9307999 C78.6962765,90.6145584 78.9774872,90.4741552 79.294184,90.5443568 C79.5753947,90.6145584 79.7514861,90.9307999 79.6456973,91.2116064 C79.294184,92.5106703 78.520185,93.6345646 77.5359476,94.4074508 C76.5510406,95.180337 75.3197395,95.6369817 74.0536219,95.6369817 C72.7875042,95.6369817 71.5916892,95.2151035 70.6067822,94.4776524 C69.6573614,93.7402013 68.8833624,92.6865086 68.4963629,91.4222112" id="Fill-28" fill="#FFFFFF"></path>
                    </g>
                </g>
            </g>
        </g>
    </g>
</svg>