<?xml version="1.0" encoding="UTF-8"?>
<svg width="40px" height="30px" viewBox="0 0 40 30" version="1.1" xmlns="http://www.w3.org/2000/svg" xmlns:xlink="http://www.w3.org/1999/xlink">
    <!-- Generator: Sketch 42 (36781) - http://www.bohemiancoding.com/sketch -->
    <title>Group 4</title>
    <desc>Created with Sketch.</desc>
    <defs></defs>
    <g id="Page-1" stroke="none" stroke-width="1" fill="none" fill-rule="evenodd">
        <g id="01-landingspage-pt-v2@2x-copy" transform="translate(-232.000000, -3841.000000)">
            <g id="Group-4" transform="translate(232.000000, 3841.000000)">
                <path d="M38.8441684,5.25044211 C38.8441684,8.06896842 36.5586947,10.3544421 33.7397474,10.3544421 L31.4399579,10.3544421 C28.6210105,10.3544421 26.3355368,8.06896842 26.3355368,5.25044211 C26.3355368,2.43149474 28.6210105,0.146021053 31.4399579,0.146021053 L33.7397474,0.146021053 C36.5586947,0.146021053 38.8441684,2.43149474 38.8441684,5.25044211" id="Fill-277" fill="#4A4D72"></path>
                <polygon id="Fill-279" fill="#8183A3" points="0.221052632 27.7616842 39.7532632 27.7616842 39.7532632 5.25052632 0.221052632 5.25052632"></polygon>
                <polygon id="Fill-281" fill="#4A4D72" points="0.221052632 27.7616842 39.7532632 27.7616842 39.7532632 22.6690526 0.221052632 22.6690526"></polygon>
                <path d="M30.4825263,16.5057684 C30.4825263,23.8522947 24.5267368,29.8076632 17.1806316,29.8076632 C9.83410526,29.8076632 3.87831579,23.8522947 3.87831579,16.5057684 C3.87831579,9.15966316 9.83410526,3.20387368 17.1806316,3.20387368 C24.5267368,3.20387368 30.4825263,9.15966316 30.4825263,16.5057684" id="Fill-282" fill="#4A4D72"></path>
                <path d="M28.1101895,16.5057684 C28.1101895,22.5424 23.2167158,27.4358737 17.1805053,27.4358737 C11.1442947,27.4358737 6.25082105,22.5424 6.25082105,16.5057684 C6.25082105,10.4695579 11.1442947,5.57650526 17.1805053,5.57650526 C23.2167158,5.57650526 28.1101895,10.4695579 28.1101895,16.5057684" id="Fill-283" fill="#37384D"></path>
                <path d="M27.0834526,16.5057684 C27.0834526,21.9752421 22.6497684,26.4089263 17.1807158,26.4089263 C11.7108211,26.4089263 7.27755789,21.9752421 7.27755789,16.5057684 C7.27755789,11.0367158 11.7108211,6.60261053 17.1807158,6.60261053 C22.6497684,6.60261053 27.0834526,11.0367158 27.0834526,16.5057684" id="Fill-284" fill="#2E2F41"></path>
                <path d="M22.9027368,9.85650526 C21.7532632,8.87124211 20.3482105,8.17692632 18.7987368,7.88934737 L8.56378947,18.1242947 C8.85136842,19.6733474 9.54568421,21.0784 10.5309474,22.2278737 C14.6547368,18.1045053 18.7789474,13.9807158 22.9027368,9.85650526" id="Fill-285" fill="#F2F5F8"></path>
                <path d="M25.9619789,16.3528 C25.9426105,15.3490105 25.7518737,14.3898526 25.4217684,13.4963789 L14.1708211,24.7473263 C15.0647158,25.0778526 16.0238737,25.2677474 17.0276632,25.2875368 L25.9619789,16.3528 Z" id="Fill-286" fill="#F2F5F8"></path>
                <polygon id="Fill-287" fill="#F2F5F8" points="31.9978947 11.6564211 37.8993684 11.6564211 37.8993684 9.05305263 31.9978947 9.05305263"></polygon>
                <polygon id="Fill-287" fill="#F86B4F" points="31.9978947 8.21094737 34.5242105 8.21094737 34.5242105 6.94778947 31.9978947 6.94778947"></polygon>
            </g>
        </g>
    </g>
</svg>