<?xml version="1.0" encoding="UTF-8"?>
<svg width="169px" height="170px" viewBox="0 0 169 170" version="1.1" xmlns="http://www.w3.org/2000/svg" xmlns:xlink="http://www.w3.org/1999/xlink">
    <!-- Generator: Sketch 42 (36781) - http://www.bohemiancoding.com/sketch -->
    <title>Group 23 Copy</title>
    <desc>Created with Sketch.</desc>
    <defs></defs>
    <g id="Page-1" stroke="none" stroke-width="1" fill="none" fill-rule="evenodd">
        <g id="01-landingspage-pt-mobile" transform="translate(-103.000000, -1996.000000)">
            <g id="img-benefit-3" transform="translate(0.000000, 1972.000000)">
                <g id="Group-23-Copy" transform="translate(103.000000, 24.000000)">
                    <g id="Group-3">
                        <path d="M158.070956,130.917432 C157.895915,124.367534 155.532401,119.13704 151.901749,119.13704 C148.27079,119.13704 145.907582,124.367534 145.732235,130.917432 L143.971132,130.917432 C144.154116,123.523629 147.641192,117.607118 151.901749,117.607118 C156.162305,117.607118 159.649076,123.523629 159.832365,130.917432 L158.070956,130.917432 Z" id="Fill-7" fill="#37384D"></path>
                        <polygon id="Fill-9" fill="#37384D" points="134.489095 169.930421 168.703072 169.930421 168.703072 128.62255 134.489095 128.62255"></polygon>
                        <path d="M89.2059807,100.738545 L126.799809,100.738545 C126.799809,100.738545 122.804411,144.304885 118.514223,165.482053 L110.042292,165.482053 C110.042292,165.482053 109.789964,120.739815 109.789964,108.750436 L107.11547,108.750436 L106.051782,165.482053 L97.8059081,165.482053 C97.8059081,165.482053 89.8123623,116.766304 89.2059807,100.738545" id="Fill-11" fill="#37384D"></path>
                        <path d="M97.2690236,100.738545 L89.205828,100.738545 C89.2953342,103.108698 89.5467458,106.193631 89.9099638,109.730197 C93.1340201,107.438987 95.6453871,104.305403 97.2690236,100.738545" id="Fill-12" fill="#2E2F41"></path>
                        <path d="M125.991199,109.046139 C126.50563,103.949665 126.799809,100.738667 126.799809,100.738667 L117.383023,100.738667 C119.485655,104.160489 122.482128,107.171067 125.991199,109.046139" id="Fill-13" fill="#2E2F41"></path>
                        <path d="M110.382966,41.7204909 C110.382966,41.7201849 98.882793,41.7201849 98.882793,41.7204909 C98.6927832,47.6064035 96.2391523,48.973847 91.8619017,49.6047864 C92.7850681,54.7945849 99.3349063,55.2697784 104.317928,55.0286628 C104.42393,55.0237671 104.528099,55.0191773 104.632879,55.0148935 C104.737049,55.0191773 104.841218,55.0237671 104.947526,55.0286628 C109.930242,55.2697784 116.480691,54.7945849 117.403552,49.6047864 C113.025996,48.973847 109.865174,47.7835683 110.382966,41.7204909" id="Fill-14" fill="#D8996F"></path>
                        <path d="M92.2399051,49.3823665 C92.2399051,49.3823665 87.2889594,60.7710994 105.086642,60.7710994 C122.804594,60.7710994 117.611402,49.449683 117.611402,49.449683 L106.30857,50.9796042 L104.933901,50.5206278 L103.406492,50.8266121 L92.2399051,49.3823665 Z" id="Fill-31" fill="#CCC6C0"></path>
                        <path d="M139.606009,76.376356 C128.099421,46.0839178 116.159965,49.2936923 116.159965,49.2936923 C116.159965,49.2936923 112.43614,57.8994986 105.16567,58.0769695 C97.8952004,58.2544403 93.4617412,49.3824277 93.4617412,49.3824277 C79.4520342,49.9151462 80.9409532,62.6863158 73.9273935,84.8420216 C68.6324751,101.568955 89.3829464,100.627136 89.2060723,100.804301 C88.4964378,101.514796 126.799901,100.804301 126.799901,100.804301 C126.799901,100.804301 146.235883,93.8306142 139.606009,76.376356" id="Fill-32" fill="#F2F5F8"></path>
                        <path d="M108.719525,168.814374 C108.719525,168.814374 105.726413,160.195716 114.904007,160.195716 C124.584424,160.195716 121.894961,169.083028 121.894961,169.083028 L108.719525,168.814374 Z" id="Fill-33" fill="#E24D13"></path>
                        <path d="M122.039301,169.930421 C122.136139,169.51367 122.24489,168.852132 122.236031,168.006698 L108.27123,168.006698 C108.320107,168.803787 108.463989,169.492557 108.575796,169.930421 L122.039301,169.930421 Z" id="Fill-34" fill="#8A3513"></path>
                        <path d="M93.9281204,168.329083 C93.9281204,168.329083 90.9350084,159.709813 100.112602,159.709813 C109.793019,159.709813 107.103862,168.597737 107.103862,168.597737 L93.9281204,168.329083 Z" id="Fill-35" fill="#E24D13"></path>
                        <path d="M107.109788,169.930421 C107.154999,169.806191 107.459565,168.914859 107.444291,167.520795 L93.4794897,167.520795 C93.558304,168.800115 93.8811984,169.803743 93.9233549,169.930421 L107.109788,169.930421 Z" id="Fill-36" fill="#8A3513"></path>
                        <polygon id="Fill-37" fill="#FDF9F4" points="96.5330565 46.8488783 91.7980865 49.14376 98.3659481 57.0993499 104.781069 50.520689"></polygon>
                        <polygon id="Fill-38" fill="#FDF9F4" points="113.181822 46.8488783 117.916792 49.14376 112.570858 56.7933656 104.93381 50.520689"></polygon>
                        <path d="M87.7710404,84.6890295 C83.5388937,83.0033624 76.676853,85.2385771 74.6020198,89.25615 C71.9113349,94.4655314 75.4307922,100.512698 80.2409108,102.180924 C85.2065196,103.903003 90.998457,102.857455 93.8904545,97.9984253 C96.8698198,92.9925234 92.5564149,86.5956172 87.7710404,84.6890295" id="Fill-39" fill="#F2F5F8"></path>
                        <path d="M80.2413995,89.9875747 C76.6693993,91.4376339 80.8361729,98.168063 84.3137792,97.6934814 L85.5357069,96.8774215 C88.0174421,95.0308067 82.9867657,88.8728742 80.2413995,89.9875747" id="Fill-40" fill="#EDAC80"></path>
                        <path d="M129.968115,101.502618 C125.241393,102.361516 120.741033,100.383328 120.825652,94.2122377 C120.936847,86.1168131 120.056143,78.9295496 128.506995,79.9460292 C132.718675,80.4530451 141.239482,81.0154441 141.13348,84.4338998 C140.937971,90.7429886 139.166482,97.4385354 133.838877,100.173116 C132.59251,100.813235 131.271607,101.266092 129.968115,101.502618" id="Fill-41" fill="#F2F5F8"></path>
                        <path d="M137.277901,89.5796977 C140.849901,91.029757 136.683127,97.760186 133.205827,97.2856045 L131.983899,96.4695445 C129.501858,94.6229297 134.53284,88.4649972 137.277901,89.5796977" id="Fill-42" fill="#EDAC80"></path>
                        <polygon id="Fill-43" fill="#37384D" points="81.7338926 96.1631319 135.702469 96.1631319 135.702469 69.2365201 81.7338926 69.2365201"></polygon>
                        <polygon id="Fill-44" fill="#1B1D3E" points="81.7338926 77.599987 135.702469 77.599987 135.702469 73.1121163 81.7338926 73.1121163"></polygon>
                        <polygon id="Fill-45" fill="#2E2F41" points="81.0212033 75.9681731 136.415159 75.9681731 136.415159 69.2365201 81.0212033 69.2365201"></polygon>
                        <polygon id="Fill-46" fill="#37384D" points="90.0836303 69.3384129 144.052207 69.3384129 144.052207 53.0193562 90.0836303 53.0193562"></polygon>
                        <polygon id="Fill-47" fill="#1B1D3E" points="90.0836303 58.0879849 144.052207 58.0879849 144.052207 55.3680911 90.0836303 55.3680911"></polygon>
                        <polygon id="Fill-48" fill="#2E2F41" points="89.3709409 57.0990439 144.764896 57.0990439 144.764896 53.0193562 89.3709409 53.0193562"></polygon>
                        <path d="M92.0412196,92.3894285 C91.3816841,89.275427 89.4889181,87.8688175 86.1713843,88.868774 C83.8616354,89.5648881 82.9192236,93.1247086 82.8520176,95.230492 C82.7114959,99.6412546 86.834891,98.5176805 90.2245186,98.5140087 C94.2929269,98.509113 92.5574841,94.8253689 92.0412196,92.3894285" id="Fill-49" fill="#EDAC80"></path>
                        <path d="M125.408278,92.3894285 C126.068119,89.275427 127.96058,87.8688175 131.278113,88.868774 C133.588168,89.5648881 134.530579,93.1247086 134.597786,95.230492 C134.738002,99.6412546 130.614607,98.5176805 127.224979,98.5140087 C123.156571,98.509113 124.892319,94.8253689 125.408278,92.3894285" id="Fill-50" fill="#EDAC80"></path>
                        <path d="M141.747376,128.361393 C141.805112,128.865043 142.259364,129.226716 142.762187,129.169191 C143.265011,129.111666 143.62609,128.656668 143.568354,128.152712 L141.4868,109.912686 C141.42937,109.409036 140.975118,109.047363 140.472295,109.104888 C139.969471,109.162413 139.608392,109.617411 139.665822,110.121367 L141.747376,128.361393 Z" id="Fill-51" fill="#E85639"></path>
                        <path d="M128.478585,127.810683 C128.376249,128.307295 128.695172,128.792586 129.190969,128.895397 C129.686461,128.997901 130.171261,128.67876 130.273903,128.182147 L133.677888,110.20282 C133.780224,109.706208 133.461301,109.220917 132.965504,109.118106 C132.470012,109.015602 131.985212,109.334743 131.88257,109.831355 L128.478585,127.810683 Z" id="Fill-52" fill="#E85639"></path>
                        <polygon id="Fill-53" fill="#F86B4F" points="125.859322 169.930421 146.02113 169.930421 143.882756 123.114834 128.303178 123.114834"></polygon>
                        <path d="M126.629014,169.930421 C126.75304,163.312594 130.872769,157.997036 135.940104,157.997036 C141.007743,157.997036 145.127473,163.312594 145.251498,169.930421 L126.629014,169.930421 Z" id="Fill-54" fill="#E85639"></path>
                        <path d="M76.4967104,114.420905 C74.87063,110.129476 72.6079253,102.045985 66.3446293,104.542204 C60.4726556,106.882371 61.4382839,114.630198 63.1101866,119.417627 C63.433081,120.342311 64.9088642,119.944532 64.582915,119.010668 C63.211912,115.08489 61.9915117,108.843118 66.2792561,106.263365 C71.5390441,103.09857 73.7415688,111.443678 75.023982,114.827864 C75.3697875,115.740615 76.8467926,115.344977 76.4967104,114.420905" id="Fill-55" fill="#37384D"></path>
                        <path d="M71.3035175,119.928621 C69.773664,116.24916 68.2899382,112.559909 67.6377343,108.607204 C67.4773563,107.635704 66.0058498,108.049395 66.1650059,109.014163 C66.8169043,112.966562 68.3009356,116.656119 69.8307891,120.33558 C70.203477,121.232419 71.6820096,120.839536 71.3035175,119.928621" id="Fill-56" fill="#37384D"></path>
                        <polygon id="Fill-57" fill="#37384D" points="93.2646442 149.208955 77.6771231 154.181811 67.821054 117.460032 79.8662066 113.617482"></polygon>
                        <path d="M92.6697792,149.399002 C90.9465557,144.313238 86.4550548,141.219737 82.5369435,142.469377 C78.6191377,143.719323 76.7410348,148.845476 78.2721103,153.992131 L92.6697792,149.399002 Z" id="Fill-58" fill="#2E2F41"></path>
                        <path d="M61.2418591,122.548886 C61.2458303,122.960435 60.9162153,123.296711 60.5053421,123.300995 C60.0947744,123.305279 59.7587443,122.975122 59.754773,122.563573 L59.6075307,107.668261 C59.6035595,107.256712 59.9331745,106.919824 60.3434367,106.915846 C60.7540044,106.911562 61.0906455,107.242025 61.0946168,107.652962 L61.2418591,122.548886 Z" id="Fill-59" fill="#BA987D"></path>
                        <polygon id="Fill-60" fill="#4A4D72" points="78.1899662 154.426537 61.9557398 156.448481 58.9980637 118.538565 71.5426793 116.975904"></polygon>
                        <path d="M77.5703572,154.50392 C76.8087907,149.18775 72.9603293,145.320722 68.8800071,145.828655 C64.7996849,146.337201 62.0139952,151.030387 62.5757765,156.371648 L77.5703572,154.50392 Z" id="Fill-61" fill="#37384D"></path>
                        <path d="M28.676538,106.001259 C27.3984016,103.337054 23.5917912,105.854999 22.1431959,106.900241 C19.6816225,108.676785 17.6755226,110.939845 15.3459174,112.85959 C14.5846564,113.486857 15.6715611,114.562698 16.425796,113.941244 C18.2815988,112.412241 19.9223422,110.631412 21.7827272,109.099961 C22.8959034,108.183539 24.0833116,107.325253 25.3916908,106.710837 C25.9171197,106.464213 27.4882133,105.989326 27.3318065,107.074958 C26.9902777,109.44144 24.5803308,111.801496 23.1011872,113.522351 C21.8798705,114.943342 20.1645894,116.296098 19.1977391,117.910165 C18.6894172,118.758047 20.010321,119.526986 20.5165046,118.682163 C20.7944932,118.218597 21.7585941,117.305234 22.2791354,116.737022 C23.4146117,115.497174 24.5256495,114.235295 25.5801731,112.925376 C26.8082105,111.400351 29.7374767,108.212607 28.676538,106.001259" id="Fill-62" fill="#37384D"></path>
                        <path d="M30.7550982,106.465009 C28.3540102,105.220877 26.4792675,108.154348 25.6666856,109.948639 C24.476528,112.577962 23.7149615,115.704814 23.6755544,118.602179 C23.6624186,119.589284 25.1898283,119.58806 25.202964,118.602179 C25.2341232,116.303014 25.8276746,113.958256 26.5687738,111.796172 C26.9304644,110.740832 28.68668,106.373826 30.4086817,108.093763 C31.7564679,109.439787 31.3052711,112.761552 31.2157649,114.447525 C31.104264,116.546577 30.7279103,118.642263 30.7016388,120.744069 C30.6894195,121.731174 32.2168292,121.72995 32.2290485,120.744069 C32.2620405,118.100365 32.7550884,115.475632 32.8018271,112.826727 C32.837263,110.815799 32.8528426,107.552477 30.7550982,106.465009" id="Fill-63" fill="#E85639"></path>
                        <polygon id="Fill-64" fill="#37384D" points="0.0401422656 147.985018 15.6276634 152.957874 25.4837325 116.236095 13.4385799 112.393545"></polygon>
                        <path d="M0.635159975,148.175065 C2.35807808,143.089301 6.84988442,139.995801 10.7676902,141.24544 C14.6858015,142.495386 16.5639044,147.621539 15.032829,152.768194 L0.635159975,148.175065 Z" id="Fill-65" fill="#2E2F41"></path>
                        <path d="M32.062958,121.324949 C32.0589867,121.736498 32.3886017,122.072775 32.7994749,122.077058 C33.2097371,122.081342 33.5460727,121.751185 33.550044,121.339636 L33.6972863,106.444324 C33.7012576,106.032775 33.3716426,105.695887 32.9610748,105.691909 C32.5505071,105.687625 32.214477,106.018088 32.2102003,106.429025 L32.062958,121.324949 Z" id="Fill-66" fill="#BA987D"></path>
                        <polygon id="Fill-67" fill="#F86B4F" points="15.1148203 153.2026 31.3490467 155.224544 34.3067228 117.314628 21.7621072 115.751967"></polygon>
                        <path d="M15.7344293,153.279983 C16.4959958,147.963813 20.3444572,144.096785 24.4247794,144.604719 C28.5051015,145.113264 31.2907913,149.80645 30.7293155,155.147711 L15.7344293,153.279983 Z" id="Fill-68" fill="#E85639"></path>
                        <path d="M38.5450402,71.5095851 L33.7566109,69.9505955 L32.0236119,69.9505955 C31.0637877,71.9606059 31.3594942,74.8151327 31.4731334,77.0120995 C31.6860544,81.134013 32.038275,85.1035463 31.1942284,89.1657929 C30.305887,93.4431464 28.7702293,96.7131998 26.5530414,100.573191 C25.5645019,102.29374 23.6812058,105.389688 24.4174172,107.37981 C25.5027945,110.315728 34.1448784,113.82445 33.8393965,108.666779 C33.6933761,106.195039 31.4074548,105.856008 32.0272777,103.210775 C32.6690952,100.469768 34.5438378,97.5118186 35.8241126,94.8840261 C37.7067978,91.0191393 39.1101818,86.5288208 39.7935449,82.4228185 C40.4494146,78.4808237 38.3736648,75.2591158 38.5450402,71.5095851" id="Fill-69" fill="#EDAC80"></path>
                        <path d="M56.4584091,71.5095851 L61.2468384,69.9505955 L62.9798374,69.9505955 C63.9396617,71.9606059 63.6439551,74.8151327 63.5303159,77.0120995 C63.317395,81.134013 62.9651743,85.1035463 63.8092209,89.1657929 C64.6975623,93.4431464 66.5387019,96.7131998 68.7558898,100.573191 C69.7444293,102.29374 71.3222435,105.389688 70.5860321,107.37981 C69.5006548,110.315728 60.8585709,113.82445 61.1640528,108.666779 C61.3100732,106.195039 63.5959945,105.856008 62.9761716,103.210775 C62.3343541,100.469768 60.4596115,97.5118186 59.1793367,94.8840261 C57.2966515,91.0191393 55.8932675,86.5288208 55.2099045,82.4228185 C54.5540347,78.4808237 56.629479,75.2591158 56.4584091,71.5095851" id="Fill-70" fill="#EDAC80"></path>
                        <path d="M57.736851,82.8020248 C57.736851,82.8020248 64.1519716,98.7132045 65.3738993,102.996984 L60.1807065,103.302968 L54.0710678,86.7798197 L57.736851,82.8020248 Z" id="Fill-71" fill="#292A3F"></path>
                        <path d="M48.221883,165.952045 L45.7749728,161.477331 L46.7326586,126.398994 L36.521314,124.481391 C36.7339295,125.333557 39.0742266,149.330981 40.9883763,161.477331 L39.0742266,165.952045 L48.221883,165.952045 Z" id="Fill-73" fill="#EDAC80"></path>
                        <path d="M49.2369079,169.930421 C49.8872789,168.024139 50.595386,163.820834 44.1796545,163.820834 C37.7636174,163.820834 37.9637081,168.024139 38.3837457,169.930421 L49.2369079,169.930421 Z" id="Fill-74" fill="#ED1C24"></path>
                        <path d="M50.5708558,165.952045 L53.0168497,161.477331 L51.421623,126.398994 L60.6288485,124.481391 C60.4165385,125.333557 59.7185123,149.330981 57.8034461,161.477331 L59.7185123,165.952045 L50.5708558,165.952045 Z" id="Fill-75" fill="#EDAC80"></path>
                        <path d="M60.4090848,169.930421 C60.8288169,168.024139 61.0282966,163.820834 54.6125651,163.820834 C48.196528,163.820834 48.9049406,168.024139 49.5559226,169.930421 L60.4090848,169.930421 Z" id="Fill-76" fill="#ED1C24"></path>
                        <path d="M58.0712926,87.2603067 L60.5441689,73.5139654 L65.8705519,73.1786067 C64.1971218,57.0847544 53.5226666,59.2180764 53.5226666,59.2180764 L42.4605549,59.5531292 C29.6324521,58.3233786 29.8527045,71.1667604 29.8527045,71.1667604 L34.8739111,72.1722246 L36.9829583,87.5956654 L37.5135805,87.2603067 C29.2842027,98.660055 30.0674583,133.649657 30.4636684,134.776291 L65.7700483,134.776291 C67.8106676,113.513753 59.6164202,89.7914082 57.9820919,87.5956654 L58.0712926,87.2603067 Z" id="Fill-77" fill="#F86B4F"></path>
                        <path d="M49.70289,64.4612079 C49.70289,65.5716247 48.8035512,66.4730542 47.6943463,66.4730542 C46.5851414,66.4730542 45.6858026,65.5716247 45.6858026,64.4612079 C45.6858026,63.3501792 46.5851414,62.4493616 47.6943463,62.4493616 C48.8035512,62.4493616 49.70289,63.3501792 49.70289,64.4612079" id="Fill-78" fill="#F2F5F8"></path>
                        <path d="M49.70289,70.8315853 C49.70289,71.942308 48.8035512,72.8431256 47.6943463,72.8431256 C46.5851414,72.8431256 45.6858026,71.942308 45.6858026,70.8315853 C45.6858026,69.7202506 46.5851414,68.819739 47.6943463,68.819739 C48.8035512,68.819739 49.70289,69.7202506 49.70289,70.8315853" id="Fill-79" fill="#F2F5F8"></path>
                        <path d="M49.70289,77.2018403 C49.70289,78.312869 48.8035512,79.2136866 47.6943463,79.2136866 C46.5851414,79.2136866 45.6858026,78.312869 45.6858026,77.2018403 C45.6858026,76.0908116 46.5851414,75.189994 47.6943463,75.189994 C48.8035512,75.189994 49.70289,76.0908116 49.70289,77.2018403" id="Fill-80" fill="#F2F5F8"></path>
                        <polygon id="Fill-81" fill="#E85639" points="58.7113384 83.2371037 36.3717501 83.2371037 36.9827139 87.595543 58.4058564 87.595543"></polygon>
                        <path d="M51.7113421,54.8498762 L43.1199682,55.0732447 C43.1199682,55.0732447 44.9048991,57.084785 41.1114245,59.5439802 C41.1114245,59.5439802 46.7423729,63.1396009 53.5225444,59.217801 C53.5225444,59.217801 50.1491075,57.084785 51.7113421,54.8498762" id="Fill-82" fill="#EDAC80"></path>
                        <g id="Group" transform="translate(29.886316, 19.180059)">
                            <path d="M11.8876216,36.1987484 C3.44577515,32.1870953 -1.56189637,19.6300077 0.702787925,8.1513382 C2.96772238,-3.32616671 14.8511038,0.0514987459 23.2934507,4.06315185 C31.7345467,8.07480496 33.3409587,11.0764211 31.0767748,22.5550906 C28.8115901,34.0333719 20.3294681,40.2096251 11.8876216,36.1987484 Z" id="Fill-86" fill="#FFC396"></path>
                            <path d="M14.8788519,28.5490047 C14.8317142,28.4311189 14.8788519,28.2899249 14.9969208,28.2428602 C15.1145408,28.1957955 15.2559541,28.2666166 15.3035408,28.3840542 C15.4682985,28.8080846 15.751574,29.1375374 16.1053317,29.3733091 C16.4590894,29.584876 16.8833293,29.7027618 17.3080182,29.6790054 C17.7322581,29.6319407 18.1331535,29.443682 18.4635668,29.1612939 C18.7701868,28.8784575 19.0058756,28.4548754 19.1001511,28.0075368 C19.1239445,27.8663427 19.2415644,27.7955216 19.3596333,27.819278 C19.5010466,27.8425863 19.5719777,27.9604721 19.5481844,28.1016661 C19.4305644,28.6431341 19.1472889,29.1375374 18.7701868,29.4907466 C18.3692913,29.8677124 17.8736714,30.0797275 17.3313626,30.1267922 C16.8128471,30.1738569 16.2938828,30.0322146 15.869194,29.7498265 C15.4449541,29.4674384 15.0911963,29.0671645 14.8788519,28.5490047" id="Fill-9" fill="#F86B4F"></path>
                            <path d="M10.4671767,20.3114424 C11.3632432,20.2406212 12.1650341,20.899975 12.2359653,21.7946523 C12.3064474,22.6897777 11.6227254,23.4903256 10.7266589,23.5606985 C9.83059239,23.6315196 9.05214584,22.9488576 8.98166366,22.0537321 C8.91073254,21.1590549 9.57111021,20.3822635 10.4671767,20.3114424" id="Fill-1" fill="#21120F"></path>
                            <path d="M22.4335785,20.1823243 C23.329645,20.1115032 24.131436,20.770857 24.2023671,21.6655342 C24.2728493,22.5606597 23.5891272,23.3612075 22.6930607,23.4315804 C21.7969942,23.5024016 20.9952032,22.8197395 20.9242721,21.9246141 C20.853341,21.0299369 21.537512,20.2531455 22.4335785,20.1823243" id="Fill-3" fill="#21120F"></path>
                            <path d="M9.84711484,25.4353072 C11.1207324,25.3174214 12.20535,25.9767752 12.2762811,26.8714524 C12.3467632,27.7665779 11.3802146,28.5904339 10.106597,28.6845633 C8.83297947,28.7786927 7.72456856,28.1430953 7.65408637,27.2484181 C7.58315526,26.3299844 8.57349728,25.5294366 9.84711484,25.4353072" id="Fill-5" fill="#FF5A6C" opacity="0.300000012"></path>
                            <path d="M23.9422051,25.2928474 C25.2158227,25.1749615 26.3242336,25.8343153 26.3947158,26.7289926 C26.4656469,27.624118 25.4753048,28.4246659 24.2016873,28.5421035 C22.9280697,28.6362328 21.8434522,28.0006355 21.7725211,27.0822018 C21.7020389,26.1875246 22.6685876,25.3869767 23.9422051,25.2928474" id="Fill-7" fill="#FF5A6C" opacity="0.300000012"></path>
                        </g>
                        <g id="Group-Copy" transform="translate(86.812632, 0.319476)">
                            <ellipse id="Oval" fill="#3D3027" cx="17.2557895" cy="21.6663631" rx="17.2557895" ry="17.4041277"></ellipse>
                            <path d="M12.9549901,44.3680328 C4.51314357,40.3563797 -0.494527952,27.7992922 1.77015635,16.3206226 C4.0350908,4.84311773 15.9184723,8.22078319 24.3608191,12.2324363 C32.8019151,16.2440894 34.4083272,19.2457055 32.1441432,30.724375 C29.8789586,42.2026563 21.3968366,48.3789096 12.9549901,44.3680328 Z" id="Fill-86" fill="#FFC396"></path>
                            <path d="M7.04611625,18.9298292 C7.04611625,18.9298292 22.8630394,26.0327299 29.530498,18.9298292 C29.530498,18.9298292 31.7200885,21.6455671 33.02903,27.1818345 L33.7181385,26.0327299 C33.7181385,26.0327299 35.4240161,7.43976568 21.6224011,2.63474668 C21.6224011,2.63474668 21.4673213,-3.42384096 17.28041,3.26153101 C17.28041,3.26153101 16.1950946,-2.79705664 14.6440536,3.0526029 C14.6440536,3.0526029 -1.32770621,6.39512515 1.12634638,26.5913997 C1.12634638,26.5913997 4.25492312,24.1523769 7.04611625,18.9298292 Z" id="Fill-18" fill="#3D3027"></path>
                            <path d="M15.9462204,36.7182892 C15.8990826,36.6004034 15.9462204,36.4592093 16.0642892,36.4121446 C16.1819092,36.3650799 16.3233225,36.4359011 16.3709092,36.5533387 C16.5356669,36.9773691 16.8189424,37.3068218 17.1727001,37.5425935 C17.5264579,37.7541605 17.9506977,37.8720463 18.3753866,37.8482898 C18.7996265,37.8012251 19.200522,37.6129664 19.5309352,37.3305783 C19.8375552,37.047742 20.073244,36.6241598 20.1675196,36.1768212 C20.1913129,36.0356272 20.3089329,35.964806 20.4270017,35.9885625 C20.568415,36.0118707 20.6393462,36.1297565 20.6155528,36.2709506 C20.4979329,36.8124186 20.2146573,37.3068218 19.8375552,37.6600311 C19.4366597,38.0369968 18.9410398,38.249012 18.398731,38.2960767 C17.8802156,38.3431414 17.3612512,38.2014991 16.9365624,37.919111 C16.5123225,37.6367229 16.1585648,37.2364489 15.9462204,36.7182892" id="Fill-9" fill="#F86B4F"></path>
                            <path d="M11.5345451,28.4807268 C12.4306116,28.4099057 13.2324026,29.0692595 13.3033337,29.9639367 C13.3738159,30.8590621 12.6900938,31.65961 11.7940273,31.7299829 C10.8979608,31.8008041 10.1195143,31.118142 10.0490321,30.2230166 C9.97810097,29.3283394 10.6384786,28.551548 11.5345451,28.4807268" id="Fill-1" fill="#21120F"></path>
                            <path d="M23.5009469,28.3516088 C24.3970134,28.2807876 25.1988044,28.9401414 25.2697355,29.8348187 C25.3402177,30.7299441 24.6564956,31.530492 23.7604291,31.6008649 C22.8643626,31.671686 22.0625717,30.989024 21.9916405,30.0938985 C21.9207094,29.1992213 22.6048804,28.4224299 23.5009469,28.3516088" id="Fill-3" fill="#21120F"></path>
                            <path d="M10.9144833,33.6045916 C12.1881008,33.4867058 13.2727184,34.1460596 13.3436495,35.0407368 C13.4141317,35.9358623 12.447583,36.7597184 11.1739654,36.8538477 C9.90034789,36.9479771 8.79193698,36.3123798 8.7214548,35.4177025 C8.65052368,34.4992689 9.64086571,33.698721 10.9144833,33.6045916" id="Fill-5" fill="#FF5A6C" opacity="0.300000012"></path>
                            <path d="M25.0095735,33.4621318 C26.2831911,33.344246 27.391602,34.0035998 27.4620842,34.898277 C27.5330153,35.7934025 26.5426733,36.5939503 25.2690557,36.7113879 C23.9954382,36.8055173 22.9108206,36.1699199 22.8398895,35.2514863 C22.7694073,34.356809 23.735956,33.5562612 25.0095735,33.4621318" id="Fill-7" fill="#FF5A6C" opacity="0.300000012"></path>
                        </g>
                        <path d="M54.3765497,103.608952 C45.2120917,103.608952 38.4914892,59.2412394 38.4914892,59.2412394 L36.3531157,59.5472237 C44.2956459,111.870526 54.9875136,105.750842 54.9875136,105.750842 L54.3765497,103.608952 Z" id="Fill-102" fill="#292A3F"></path>
                        <path d="M66.9505527,105.855427 C67.2893321,108.607755 65.3363861,111.114378 62.5885762,111.453408 L53.1351323,112.620738 C50.3876278,112.960075 47.8854252,111.003612 47.5466458,108.25159 L47.3013438,106.258102 C46.9625643,103.505774 48.9155103,100.999457 51.6630148,100.660121 L61.1164587,99.4927911 C63.8642687,99.1537605 66.3664712,101.109918 66.7052507,103.86194 L66.9505527,105.855427 Z" id="Fill-103" fill="#37384D"></path>
                        <path d="M51.6451136,106.452739 C52.9186678,107.727775 54.766528,108.157377 56.5126627,108.200215 C60.0651121,108.28742 63.617256,107.175474 66.9457872,105.816904 L66.7050674,103.86197 C66.3662879,101.109948 63.8640854,99.1537911 61.1165809,99.4928217 L51.663137,100.660151 C50.8969883,100.755007 50.1959073,101.022743 49.5858599,101.412567 C49.7874779,103.267137 50.3278755,105.134253 51.6451136,106.452739" id="Fill-104" fill="#292A3E"></path>
                        <path d="M55.4524571,106.061905 C59.2718977,106.738436 63.1108892,105.510216 66.7345159,104.100546 L66.7051896,103.862185 C66.3664101,101.109856 63.8642076,99.1536993 61.1163976,99.4927299 L51.6632592,100.660366 C50.9591234,100.747265 50.3087523,100.977977 49.7344463,101.317008 C51.1158356,103.512445 52.6062819,105.557643 55.4524571,106.061905" id="Fill-105" fill="#37384D"></path>
                        <path d="M64.1240811,105.093465 C64.3510542,106.512008 63.5561902,107.818867 62.3483146,108.012861 C61.1407445,108.206855 59.9774693,107.214548 59.7504963,105.796311 C59.5232177,104.377768 60.3183872,103.070909 61.5262627,102.876915 C62.7338328,102.682921 63.8968025,103.675228 64.1240811,105.093465" id="Fill-106" fill="#C19978"></path>
                        <path d="M64.0775562,105.100931 C64.3045293,106.519474 63.7772675,107.783495 62.8996179,107.924248 C62.0219683,108.065306 61.1266007,107.029856 60.8996276,105.611619 C60.6726546,104.193076 61.1999164,102.929055 62.077566,102.787996 C62.9549101,102.647244 63.8502776,103.682694 64.0775562,105.100931" id="Fill-107" fill="#FCEEE3"></path>
                        <g id="Group-2" transform="translate(28.107368, 2.131118)">
                            <path d="M17.3061896,0.170280767 C23.6412142,0.170280767 28.7559388,3.91732268 28.7559388,8.50260208 C28.7559388,11.0180748 27.2709691,13.2455183 24.8862509,14.7651167 C30.6379769,17.9354665 34.6132763,24.6433938 34.6132763,32.3735527 C34.6132763,34.3915318 34.3483504,36.3565429 33.8442605,38.190528 C30.320117,34.9144957 27.0857644,30.6434761 24.329227,24.7481893 C15.0798886,33.5788913 7.63261072,37.7186313 1.1656999,39.4478208 C0.423855916,37.2476217 0,34.8625414 0,32.3735527 C0,24.6433938 3.97529939,17.9354665 9.75291566,14.7651167 C7.36806926,13.2455183 5.85733758,11.0180748 5.85733758,8.50260208 C5.85733758,3.91732268 10.9720622,0.170280767 17.3061896,0.170280767" id="Fill-23" fill="#F86B4F"></path>
                            <path d="M9.70534997,14.5699067 C14.5090297,13.5535825 19.4407861,13.4520115 24.5530422,14.5699067 C19.7489898,11.4978441 14.7920156,11.4466287 9.70534997,14.5699067" id="Fill-26" fill="#2E2F41"></path>
                        </g>
                    </g>
                </g>
            </g>
        </g>
    </g>
</svg>