<?xml version="1.0" encoding="UTF-8"?>
<svg width="153px" height="176px" viewBox="0 0 153 176" version="1.1" xmlns="http://www.w3.org/2000/svg" xmlns:xlink="http://www.w3.org/1999/xlink">
    <!-- Generator: Sketch 42 (36781) - http://www.bohemiancoding.com/sketch -->
    <title>Group 21</title>
    <desc>Created with Sketch.</desc>
    <defs>
        <polygon id="path-1" points="0.077351539 0.102865044 50.8415782 0.102865044 50.8415782 58.3919723 0.077351539 58.3919723 0.077351539 0.102865044"></polygon>
    </defs>
    <g id="Page-1" stroke="none" stroke-width="1" fill="none" fill-rule="evenodd">
        <g id="01-landingspage-pt-mobile" transform="translate(-111.000000, -1210.000000)">
            <g id="img-benefit-1" transform="translate(0.000000, 1185.000000)">
                <g id="Group-21" transform="translate(111.000000, 25.000000)">
                    <g id="Page-1">
                        <path d="M44.0919637,128.006559 C46.6570648,124.62386 48.4065442,119.528373 49.5721745,110.93491 C50.0776382,106.969247 51.6709107,104.635884 52.0987409,103.780054 L55.5975117,102.847123 C57.6565852,112.140707 62.2824516,136.172576 54.3143972,145.11751 C71.7283621,148.459778 74.2934632,151.842477 75.3427373,152.699623 C76.3927633,151.842477 78.9578644,148.459778 96.3712654,145.11751 C88.4030231,136.172576 93.0290774,112.140707 95.0892788,102.847123 L98.5861699,103.780054 C99.0153159,104.635884 100.608588,106.969247 101.114052,110.93491 C102.280246,119.528373 104.02841,124.62386 106.594827,128.006559 L111.724841,120.812587 L111.336298,120.385331 C109.432115,115.719545 109.976114,82.7427423 92.9115933,82.8211604 L84.5162727,82.8211604 C78.568757,82.8602754 81.0175019,75.8989259 81.0175019,69.3659613 L75.3427373,69.3659613 L69.6679728,69.3659613 C69.6679728,75.8989259 72.1169056,82.8602754 66.169202,82.8211604 L57.7740693,82.8211604 C40.7101131,82.7427423 41.2539235,115.719545 39.3493651,120.385331 L38.9611976,120.812587 L44.0919637,128.006559 Z" id="Fill-1" fill="#FFC396"></path>
                        <path d="M75.3427373,99.8929027 C73.7492768,99.8929027 62.7100938,99.6187212 61.1160694,99.8929027 C54.2751105,101.019153 59.0173332,91.337427 59.1727882,82.8212544 C58.2402463,81.9654248 57.3077044,82.3155796 56.5685884,82.8212544 C56.8793103,87.4870398 54.2751105,95.3029027 52.370928,103.77996 C55.9854912,120.539628 55.8691349,128.278389 53.7703988,145.194518 C61.6999184,150.483511 67.4124658,154.254352 75.3427373,159.543345 C83.2724449,154.254352 88.9868721,150.483511 96.9158278,145.194518 C94.8170916,128.278389 94.7398341,120.539628 98.3145466,103.77996 C96.4103641,95.3029027 93.8061643,87.4870398 94.1168863,82.8212544 C93.3790861,82.3155796 92.4452284,81.9654248 91.5121226,82.8212544 C91.6687054,91.337427 96.4494629,101.019153 89.5694053,99.8929027 C88.0139157,99.6187212 76.9361978,99.8929027 75.3427373,99.8929027" id="Fill-3" fill="#F86B4F"></path>
                        <path d="M12.023745,141.655114 C38.961254,132.43976 59.8715461,141.227857 75.3427937,150.05507 C90.8132895,141.227857 111.724897,132.43976 138.662406,141.655114 C140.760579,156.08236 121.59845,166.542813 75.9657415,169.925512 L75.9657415,170.043045 L75.3427937,170.00393 L74.7211618,170.043045 L74.7211618,169.925512 C29.0877013,166.542813 9.92500883,156.08236 12.023745,141.655114" id="Fill-5" fill="#2E2F41"></path>
                        <path d="M104.768278,155.226511 C85.2935476,162.887042 88.5193793,163.353414 64.6541269,158.648513 C61.155356,160.788558 62.1660953,164.209243 64.2650195,167.943414 C77.5198589,170.81931 93.2236311,169.499365 110.559963,165.415228 C108.499009,162.266279 106.86645,158.376588 104.768278,155.226511" id="Fill-7" fill="#FFC396"></path>
                        <path d="M69.2017958,159.543383 C47.55032,150.910805 59.2113229,163.742796 64.2650195,167.943338 C60.5722589,161.875617 65.2757588,159.232531 69.2017958,159.543383" id="Fill-9" fill="#F86B4F"></path>
                        <path d="M45.5300444,155.81051 C65.4692598,166.037025 62.1276357,166.115444 86.5374506,164.209337 C90.1140429,166.85374 89.0645808,170.236439 86.925994,173.775975 C73.3608086,175.097048 57.3455625,171.830565 39.6214395,165.493552 C41.7588984,162.53811 43.3920216,158.764824 45.5300444,155.81051" id="Fill-11" fill="#F4B88A"></path>
                        <path d="M86.537413,164.209262 C107.371199,159.075789 91.5121602,173.347514 86.9259564,173.775899 C89.7634327,169.732006 89.5301562,165.454362 86.537413,164.209262" id="Fill-13" fill="#F86B4F"></path>
                        <path d="M41.5649462,166.504845 C19.7593312,160.476239 10.5459453,151.842533 12.0238014,141.655133 L47.7840852,155.810454 L41.5649462,166.504845 Z" id="Fill-15" fill="#37384D"></path>
                        <path d="M109.121901,165.765289 C130.927328,160.242545 140.139586,151.881705 138.662482,141.655189 L102.901446,154.915565 L109.121901,165.765289 Z" id="Fill-17" fill="#37384D"></path>
                        <path d="M19.4478386,135.23972 C16.6881838,132.595129 17.1160139,132.20586 13.1123434,131.35003 C9.0682583,130.534632 13.617619,132.439798 14.5900115,133.761999 C16.959995,136.910948 9.65267126,138.934587 10.3134019,134.501424 C11.0912407,129.562585 10.0026799,131.389333 9.22559302,134.111025 C8.72012938,135.744267 8.60339717,137.766778 8.48685293,138.660406 C7.32065865,138.738824 6.11517767,138.895472 4.91101253,139.050992 C1.80078515,139.516236 -2.0083317,139.128094 2.96697944,140.916855 C5.64975262,141.888902 7.4755497,141.383227 9.4586815,140.605815 C7.90394376,141.732253 6.38755284,142.006435 4.87191381,142.550096 C0.635154793,144.027817 3.51116584,143.639676 5.68828741,143.911413 C7.16520367,144.104919 8.64118006,144.299554 10.2357684,143.639676 C9.4586815,144.571479 8.29173532,144.728127 7.20373846,144.999864 C2.46170377,146.049012 6.81406716,146.399355 8.75866417,146.43847 C10.5461144,146.516888 12.6063158,146.244963 15.1725448,144.844344 C36.8227048,130.339997 45.9962402,137.496169 49.5720806,110.934798 C50.0775442,106.969322 51.6710047,104.635771 52.0986469,103.779941 L57.7739753,82.8212356 C40.7100191,82.7428175 41.2540175,115.719433 39.3492711,120.385218 C32.5083123,127.851114 27.6106346,130.184665 19.4478386,135.23972" id="Fill-19" fill="#FFC396"></path>
                        <path d="M75.5373098,79.9820476 C62.2824704,79.9820476 51.5547612,62.9886294 51.5547612,41.9906206 C51.5547612,32.1913617 74.6433027,35.263021 82.6115451,34.6791162 C91.7465457,35.5751892 95.8669484,32.8119369 99.5200464,41.9906206 C99.5200464,62.9886294 88.7923372,79.9820476 75.5373098,79.9820476" id="Fill-21" fill="#FFC396"></path>
                        <g transform="translate(77.133791, 63.191238) rotate(4.000000) translate(-77.133791, -63.191238) translate(62.133791, 54.691238)">
                            <path d="M3.62967415,1.57594146 C4.95384976,1.47112195 6.13870829,2.44700488 6.2435278,3.77118049 C6.3476839,5.09601951 5.33730341,6.28087805 4.0131278,6.38503415 C2.6889522,6.48985366 1.53859122,5.47947317 1.43443512,4.15463415 C1.32961561,2.83045854 2.30549854,1.68076098 3.62967415,1.57594146" id="Fill-1" fill="#21120F"></path>
                            <path d="M23.3548488,0.00769560976 C24.6790244,-0.0971239024 25.8638829,0.878759024 25.9687024,2.20293463 C26.0728585,3.52777366 25.062478,4.7126322 23.7383024,4.81678829 C22.4141268,4.9216078 21.2292683,3.91122732 21.1244488,2.58638829 C21.0196293,1.26221268 22.0306732,0.112515122 23.3548488,0.00769560976" id="Fill-3" fill="#21120F"></path>
                            <path d="M3.24635317,9.27778732 C5.12846049,9.10330927 6.73127024,10.0791922 6.83608976,11.4033678 C6.94024585,12.7282068 5.51191415,13.9475629 3.62980683,14.08688 C1.74769951,14.2261971 0.10972878,13.2854751 0.00557268293,11.9612995 C-0.0992468293,10.6019629 1.36424585,9.41710439 3.24635317,9.27778732" id="Fill-5" fill="#FF5A6C" opacity="0.300000012"></path>
                            <path d="M26.1080195,7.4656039 C27.9901268,7.29112585 29.6280976,8.26700878 29.7322537,9.59118439 C29.8370732,10.9160234 28.3735805,12.100882 26.4914732,12.2746966 C24.6093659,12.4140137 23.0065561,11.4732917 22.9017366,10.1139551 C22.7975805,8.78977951 24.2259122,7.60492098 26.1080195,7.4656039" id="Fill-7" fill="#FF5A6C" opacity="0.300000012"></path>
                            <path d="M10.8419255,13.6657288 C10.7722669,13.4912507 10.8419255,13.2822751 11.0164035,13.2126166 C11.1902182,13.142958 11.3991938,13.2477775 11.4695157,13.4215922 C11.7129889,14.0491824 12.1316035,14.5367922 12.6543743,14.8857483 C13.177145,15.19888 13.8040718,15.373358 14.4316621,15.3381971 C15.0585889,15.2685385 15.6510182,14.9899044 16.1392913,14.5719532 C16.5924035,14.1533385 16.9406962,13.5264117 17.0800133,12.8643239 C17.1151743,12.6553483 17.2889889,12.5505288 17.4634669,12.5856897 C17.6724426,12.6201873 17.7772621,12.7946654 17.7421011,13.003641 C17.5682865,13.8050458 17.1496718,14.5367922 16.5924035,15.0595629 C15.9999743,15.6174946 15.2675645,15.9312897 14.4661596,16.0009483 C13.6999157,16.0706068 12.9330084,15.8609678 12.3054182,15.4430166 C11.6784913,15.0250654 11.1557206,14.4326361 10.8419255,13.6657288" id="Fill-9" fill="#F86B4F"></path>
                        </g>
                        <g id="Group-25" transform="translate(49.883930, 0.085188)">
                            <mask id="mask-2" fill="white">
                                <use xlink:href="#path-1"></use>
                            </mask>
                            <g id="Clip-24"></g>
                            <path d="M25.4588069,0.102846239 C34.7498264,0.102846239 42.25114,5.66357633 42.25114,12.4682777 C42.25114,16.2013197 40.0732665,19.506917 36.5758115,21.7620498 C45.0113587,26.4669502 50.8415782,36.421729 50.8415782,47.8935321 C50.8415782,50.8882777 50.4530347,53.804417 49.7137307,56.5261095 C44.5451817,51.6643728 39.8016432,45.3260431 35.758874,36.5772489 C22.1936885,49.6822931 11.2714257,55.8257998 1.78698033,58.3919723 C0.698983469,55.1268064 0.077351539,51.587271 0.077351539,47.8935321 C0.077351539,36.421729 5.90757106,26.4669502 14.3810891,21.7620498 C10.8834461,19.506917 8.66778977,16.2013197 8.66778977,12.4682777 C8.66778977,5.66357633 16.1691033,0.102846239 25.4588069,0.102846239" id="Fill-23" fill="#F86B4F" mask="url(#mask-2)"></path>
                        </g>
                        <path d="M63.9926631,21.6525277 C71.2614521,20.0963883 78.7240428,19.9408684 86.4597607,21.6525277 C79.1904078,16.9487555 71.6896582,16.8703374 63.9926631,21.6525277" id="Fill-26" fill="#2E2F41"></path>
                        <path d="M131.238275,135.23972 C133.998494,132.595129 133.569536,132.20586 137.611741,131.35003 C141.61654,130.534632 137.107593,132.439798 136.095538,133.761999 C133.726307,136.910948 141.033443,138.934587 140.372712,134.501424 C139.595625,129.562585 140.68287,131.389333 141.460521,134.111025 C141.965984,135.744267 142.082341,137.766778 142.198509,138.660406 C143.364891,138.738824 144.570184,138.895472 145.775665,139.050992 C148.924051,139.516236 152.695009,139.128094 147.719134,140.916855 C145.036549,141.888902 143.248535,141.383227 141.228184,140.605815 C142.782358,141.732253 144.298561,142.006435 145.853487,142.550096 C150.051147,144.027817 147.174572,143.639676 144.99745,143.911413 C143.520158,144.104919 142.043242,144.299554 140.449781,143.639676 C141.265967,144.571479 142.394378,144.728127 143.48106,144.999864 C148.224598,146.049012 143.870919,146.399355 141.926886,146.43847 C140.139623,146.516888 138.079986,146.244963 135.514321,144.844344 C113.862845,130.339997 104.72916,137.496169 101.114033,110.934798 C100.60857,106.969322 99.0152971,104.635771 98.5861511,103.779941 L92.9115745,82.8212356 C109.976095,82.7428175 109.432096,115.719433 111.336467,120.385218 C118.177989,127.851114 123.075667,130.184665 131.238275,135.23972" id="Fill-28" fill="#FFC396"></path>
                        <path d="M118.255642,139.322804 L126.028579,139.322804 C127.505683,139.322804 128.711164,140.528789 128.711164,142.00651 L128.711164,170.742152 C128.711164,172.219873 127.505683,173.424541 126.028579,173.424541 L118.255642,173.424541 C116.778538,173.424541 115.534522,172.219873 115.534522,170.742152 L115.534522,142.00651 C115.534522,140.528789 116.778538,139.322804 118.255642,139.322804" id="Fill-57" fill="#FEFEFE"></path>
                        <path d="M123.891853,117.973362 C102.979117,140.373306 133.142458,141.967244 127.661683,128.745983 C126.340034,125.59459 123.114202,116.146802 123.891853,117.973362" id="Fill-59" fill="#F86B4F"></path>
                        <path d="M122.103895,143.054492 C124.823699,143.054492 127.078642,142.355499 127.078642,141.538784 C127.078642,140.722258 124.823699,140.021948 122.103895,140.021948 C119.34424,140.021948 117.089485,140.722258 117.089485,141.538784 C117.089485,142.355499 119.34424,143.054492 122.103895,143.054492" id="Fill-61" fill="#F3F3F2"></path>
                        <path d="M122.375575,141.0723 L122.375575,141.0723 C122.919573,141.0723 123.385186,140.605928 123.385186,140.061138 L123.385186,137.496094 C123.385186,136.950176 122.919573,136.483616 122.375575,136.483616 C121.791914,136.483616 121.326113,136.950176 121.326113,137.496094 L121.326113,140.061138 C121.326113,140.605928 121.791914,141.0723 122.375575,141.0723" id="Fill-63" fill="#808184"></path>
                        <path d="M123.230351,125.98527 C112.774829,137.144717 127.896068,137.961431 125.13585,131.350049 C124.474367,129.795226 122.841808,125.051022 123.230351,125.98527" id="Fill-65" fill="#FF9139"></path>
                        <path d="M145.504061,158.492937 C142.821476,158.492937 140.605067,160.66984 140.605067,163.39266 C140.605067,166.076366 142.821476,168.254397 145.504061,168.254397 C148.224617,168.254397 150.401738,166.076366 150.401738,163.39266 C150.401738,160.66984 148.224617,158.492937 145.504061,158.492937 L145.504061,158.492937 Z M142.472031,153.320348 C142.472031,154.48703 142.394397,155.655028 142.198528,156.821709 C143.209455,156.316222 144.29858,156.043169 145.504061,156.043169 C149.54495,156.043169 152.850483,159.31078 152.850483,163.39266 C152.850483,167.436554 149.54495,170.742152 145.504061,170.742152 C142.276349,170.742152 139.517822,168.642539 138.54543,165.726211 C134.658867,171.248955 128.206264,174.864463 120.937663,174.864463 C109.044136,174.864463 99.4036713,165.221665 99.4036713,153.320348 L142.472031,153.320348 Z" id="Fill-67" fill="#AED0E3"></path>
                        <path d="M115.534597,153.320273 L128.711239,153.320273 L128.711239,170.742076 C128.711239,172.219798 127.505758,173.424654 126.028654,173.424654 L118.255717,173.424654 C116.778613,173.424654 115.534597,172.219798 115.534597,170.742076 L115.534597,153.320273 Z" id="Fill-69" fill="#BFE5FB"></path>
                        <path d="M145.504061,158.492937 C142.821476,158.492937 140.605067,160.66984 140.605067,163.39266 C140.605067,166.076366 142.821476,168.254397 145.504061,168.254397 C148.224617,168.254397 150.401738,166.076366 150.401738,163.39266 C150.401738,160.66984 148.224617,158.492937 145.504061,158.492937 L145.504061,158.492937 Z M142.472031,153.320348 C142.472031,154.48703 142.394397,155.655028 142.198528,156.821709 C143.209455,156.316222 144.29858,156.043169 145.504061,156.043169 C149.54495,156.043169 152.850483,159.31078 152.850483,163.39266 C152.850483,167.436554 149.54495,170.742152 145.504061,170.742152 C142.276349,170.742152 139.517822,168.642539 138.54543,165.726211 C134.929927,170.819253 129.177341,174.281687 122.608757,174.786045 L122.608757,153.320348 L142.472031,153.320348 Z" id="Fill-71" fill="#AED0E3"></path>
                        <path d="M103.017577,173.424597 L137.456399,173.424597 C138.118446,173.424597 138.701543,174.009819 138.701543,174.669697 L138.701543,175.914796 L101.774877,175.914796 L101.774877,174.669697 C101.774877,174.009819 102.356658,173.424597 103.017577,173.424597" id="Fill-73" fill="#A8CEE4"></path>
                        <path d="M128.711183,153.320273 L128.711183,170.742076 C128.711183,172.219798 127.505702,173.424654 126.028597,173.424654 L118.255661,173.424654 C116.778556,173.424654 115.534541,172.219798 115.534541,170.742076 L115.534541,153.320273 L128.711183,153.320273 Z" id="Fill-75" fill="#DBF2FD"></path>
                    </g>
                </g>
            </g>
        </g>
    </g>
</svg>