<?xml version="1.0" encoding="UTF-8"?>
<svg width="44px" height="18px" viewBox="0 0 44 18" version="1.1" xmlns="http://www.w3.org/2000/svg" xmlns:xlink="http://www.w3.org/1999/xlink">
    <!-- Generator: Sketch 42 (36781) - http://www.bohemiancoding.com/sketch -->
    <title>Group 77 Copy</title>
    <desc>Created with Sketch.</desc>
    <defs>
        <path d="M0.126109756,27.1685854 C0.126109756,12.3442683 12.1434146,0.326634146 26.968061,0.326634146 C41.7927073,0.326634146 53.8103415,12.3442683 53.8103415,27.1685854 C53.8103415,41.993561 41.7927073,54.0108659 26.968061,54.0108659 C12.1434146,54.0108659 0.126109756,41.993561 0.126109756,27.1685854 Z" id="path-1"></path>
    </defs>
    <g id="Page-1" stroke="none" stroke-width="1" fill="none" fill-rule="evenodd">
        <g id="01-landingspage-pt-v2@2x-copy" transform="translate(-231.000000, -4149.000000)">
            <g id="Group-77-Copy" transform="translate(226.000000, 4130.000000)">
                <g id="Group-41">
                    <mask id="mask-2" fill="white">
                        <use xlink:href="#path-1"></use>
                    </mask>
                    <g id="Clip-40"></g>
                </g>
                <path d="M22.8990951,30.224689 C23.8664854,29.1516037 25.4239244,28.4528963 27.1851805,28.4528963 C28.9464366,28.4528963 30.5038756,29.1516037 31.4715951,30.224689 L32.3326317,30.224689 C31.7399488,28.3623476 29.659961,26.9869939 27.1851805,26.9869939 C24.7104,26.9869939 22.6310707,28.3623476 22.0374,30.224689 L22.8990951,30.224689 Z" id="Fill-45" fill="#F86B4F"></path>
                <path d="M5.58162439,28.9416951 C5.58162439,29.5752073 6.0956122,30.0888659 6.72912439,30.0888659 L7.22269756,30.0888659 C7.85588049,30.0888659 8.36986829,29.5752073 8.36986829,28.9416951 C8.36986829,28.3078537 7.85588049,27.7945244 7.22269756,27.7945244 L6.72912439,27.7945244 C6.0956122,27.7945244 5.58162439,28.3078537 5.58162439,28.9416951" id="Fill-47" fill="#F86B4F"></path>
                <path d="M24.4502451,27.9203049 C24.4502451,32.7457317 20.5382085,36.6577683 15.713111,36.6577683 C10.8876841,36.6577683 6.97597683,32.7457317 6.97597683,27.9203049 C6.97597683,23.0952073 10.8876841,19.1831707 15.713111,19.1831707 C20.5382085,19.1831707 24.4502451,23.0952073 24.4502451,27.9203049" id="Fill-49" fill="#F86B4F"></path>
                <path d="M24.4470512,27.7943927 C24.3795512,23.0272463 20.496161,19.1833683 15.7132098,19.1833683 C10.9299293,19.1833683 7.04653902,23.0272463 6.97903902,27.7943927 L24.4470512,27.7943927 Z" id="Fill-51" fill="#4A4D72"></path>
                <path d="M23.8354354,27.7943927 C23.8354354,32.2803439 20.1989963,35.9164537 15.7130451,35.9164537 C11.2270939,35.9164537 7.59032561,32.2803439 7.59032561,27.7943927 C7.59032561,23.3084415 11.2270939,19.6720024 15.7130451,19.6720024 C20.1989963,19.6720024 23.8354354,23.3084415 23.8354354,27.7943927" id="Fill-53" fill="#37384D"></path>
                <path d="M15.713078,35.2254512 C11.609078,35.2254512 8.28182195,31.8985244 8.28182195,27.7945244 C8.28182195,23.6901951 11.609078,20.3632683 15.713078,20.3632683 C19.8174073,20.3632683 23.1440049,23.6901951 23.1440049,27.7945244 C23.1440049,31.8985244 19.8174073,35.2254512 15.713078,35.2254512 M15.713078,19.6721341 C11.2271268,19.6721341 7.59035854,23.3085732 7.59035854,27.7945244 C7.59035854,32.2801463 11.2271268,35.9165854 15.713078,35.9165854 C20.1990293,35.9165854 23.8354683,32.2801463 23.8354683,27.7945244 C23.8354683,23.3085732 20.1990293,19.6721341 15.713078,19.6721341" id="Fill-55" fill="#2E2F41"></path>
                <path d="M10.803622,33.5880988 C12.0851341,32.3065866 13.3666463,31.0257329 14.6478293,29.7442207 L21.5071463,22.8852329 C20.124878,21.2550256 18.0685976,20.2148671 15.7676707,20.1980744 L8.11712195,27.8489524 C8.13391463,30.1498793 9.17407317,32.2058305 10.803622,33.5880988" id="Fill-57" fill="#F2F5F8"></path>
                <path d="M23.2817378,27.1799122 C23.2142378,26.3462049 23.014372,25.5506927 22.6995915,24.814778 L12.733628,34.7810707 C13.4695427,35.095522 14.2650549,35.2957171 15.0984329,35.3628878 C17.8260915,32.6352293 20.55375,29.9075707 23.2817378,27.1799122" id="Fill-59" fill="#F2F5F8"></path>
                <path d="M46.2121793,28.9416951 C46.2121793,29.5752073 46.7261671,30.0888659 47.35935,30.0888659 L47.8525939,30.0888659 C48.4861061,30.0888659 49.0007524,29.5752073 49.0007524,28.9416951 C49.0007524,28.3078537 48.4861061,27.7945244 47.8525939,27.7945244 L47.35935,27.7945244 C46.7261671,27.7945244 46.2121793,28.3078537 46.2121793,28.9416951" id="Fill-61" fill="#F86B4F"></path>
                <path d="M47.6064329,27.9203049 C47.6064329,32.7457317 43.6943963,36.6577683 38.8692988,36.6577683 C34.0435427,36.6577683 30.1321646,32.7457317 30.1321646,27.9203049 C30.1321646,23.0952073 34.0435427,19.1831707 38.8692988,19.1831707 C43.6943963,19.1831707 47.6064329,23.0952073 47.6064329,27.9203049" id="Fill-63" fill="#F86B4F"></path>
                <path d="M47.6032061,27.7943927 C47.5357061,23.0272463 43.6519866,19.1833683 38.8693646,19.1833683 C34.0857549,19.1833683 30.2026939,23.0272463 30.1348646,27.7943927 L47.6032061,27.7943927 Z" id="Fill-65" fill="#4A4D72"></path>
                <path d="M46.9916232,27.7943927 C46.9916232,32.2803439 43.3548549,35.9164537 38.8692329,35.9164537 C34.3829524,35.9164537 30.7461841,32.2803439 30.7461841,27.7943927 C30.7461841,23.3084415 34.3829524,19.6720024 38.8692329,19.6720024 C43.3548549,19.6720024 46.9916232,23.3084415 46.9916232,27.7943927" id="Fill-67" fill="#37384D"></path>
                <path d="M38.8692659,35.2254512 C34.7649366,35.2254512 31.438339,31.8985244 31.438339,27.7945244 C31.438339,23.6901951 34.7649366,20.3632683 38.8692659,20.3632683 C42.9729366,20.3632683 46.3001927,23.6901951 46.3001927,27.7945244 C46.3001927,31.8985244 42.9729366,35.2254512 38.8692659,35.2254512 M38.8692659,19.6721341 C34.3829854,19.6721341 30.7462171,23.3085732 30.7462171,27.7945244 C30.7462171,32.2801463 34.3829854,35.9165854 38.8692659,35.9165854 C43.3548878,35.9165854 46.9916561,32.2801463 46.9916561,27.7945244 C46.9916561,23.3085732 43.3548878,19.6721341 38.8692659,19.6721341" id="Fill-69" fill="#2E2F41"></path>
                <path d="M33.9598098,33.5880988 C35.2409927,32.3065866 36.5225049,31.0257329 37.8036878,29.7442207 L44.6630049,22.8852329 C43.2810659,21.2550256 41.2241268,20.2148671 38.9238585,20.1980744 L31.2729805,27.8489524 C31.2897732,30.1498793 32.330261,32.2058305 33.9598098,33.5880988" id="Fill-71" fill="#F2F5F8"></path>
                <path d="M46.4372671,27.1799122 C46.3704256,26.3462049 46.1705598,25.5506927 45.8557793,24.814778 L35.8898159,34.7810707 C36.6254012,35.095522 37.4209134,35.2957171 38.2542915,35.3628878 C40.98195,32.6352293 43.7099378,29.9075707 46.4372671,27.1799122" id="Fill-73" fill="#F2F5F8"></path>
            </g>
        </g>
    </g>
</svg>