<svg viewBox="0 0 347 400" xmlns="http://www.w3.org/2000/svg">
    <g stroke="none" stroke-width="1" fill="none" fill-rule="evenodd">
        <g transform="translate(-27.000000, 0.000000)"  class="main-group" fill="#2E2F41">
            <path d="M155.784509,374.995213 L155.784509,273.686704 L200.309114,299.392996 L286.96367,249.362965 L286.96367,149.302901 L200.309114,99.2728695 L113.654557,149.302901 L113.654557,149.969968 L113.590392,149.969968 L113.590392,350.553226 L29.3188976,301.736876 C28.0382058,300.995003 27,299.189081 27,297.72574 L27,102.27426 C27,100.800843 28.0396758,99.0041451 29.3188976,98.2631242 L197.990216,0.556085061 C199.270908,-0.185787386 201.348789,-0.184935865 202.628011,0.556085061 L371.29933,98.2631242 C372.580021,99.0049966 373.618227,100.810919 373.618227,102.27426 L373.618227,297.72574 C373.618227,299.199157 372.578551,300.995855 371.29933,301.736876 L202.628011,399.443915 C201.347319,400.185787 199.269438,400.184936 197.990216,399.443915 L155.784509,374.995213 Z M200.309114,141.965163 L249.991059,170.649048 L249.991059,228.016818 L200.309114,256.700703 L150.627168,228.016818 L150.627168,170.649048 L200.309114,141.965163 Z"></path>
        </g>
    </g>
</svg>
