<?xml version="1.0" encoding="UTF-8"?>
<svg width="222px" height="328px" viewBox="0 0 222 328" version="1.1" xmlns="http://www.w3.org/2000/svg" xmlns:xlink="http://www.w3.org/1999/xlink">
    <!-- Generator: Sketch 42 (36781) - http://www.bohemiancoding.com/sketch -->
    <title>Page 1</title>
    <desc>Created with Sketch.</desc>
    <defs>
        <polygon id="path-1" points="50.2707537 61.4650767 0.223850756 61.4650767 0.223850756 0.385386031 50.2707537 0.385386031 50.2707537 61.4650767"></polygon>
    </defs>
    <g id="Page-1" stroke="none" stroke-width="1" fill="none" fill-rule="evenodd">
        <g id="01-landingspage-pt-v2@2x-copy" transform="translate(-1138.000000, -1359.000000)">
            <g id="Group-27" transform="translate(1032.000000, 945.000000)">
                <g id="Group-29" transform="translate(0.000000, 414.000000)">
                    <g id="Page-1" transform="translate(216.500000, 164.500000) scale(-1, 1) translate(-216.500000, -164.500000) translate(105.000000, 0.000000)">
                        <path d="M215.706104,40.5592395 C213.826653,38.6828784 200.148769,51.520139 198.859827,52.8181697 C197.85216,53.8306671 169.71352,79.1945104 142.217953,98.3274712 L147.637661,105.320521 C178.61421,84.4514508 205.820674,62.1524797 207.049223,61.1606569 C208.584769,59.9196211 210.090119,58.7730181 209.724966,57.4124048 C209.47892,56.4960164 208.571908,56.3831441 207.913177,56.8072532 C208.55625,56.0517915 209.342477,55.4108784 208.528291,54.3257404 C208.163696,53.8401663 207.279611,53.8435189 206.76683,54.2391305 C207.732558,53.2601595 208.309646,52.1917847 207.909263,51.453645 C207.480361,50.661863 206.207636,50.3958869 205.547228,50.814967 C206.29487,49.9315462 217.012941,41.8639755 215.706104,40.5592395" id="Fill-1" fill="#FFC396"></path>
                        <path d="M142.218177,98.3276388 L147.637885,105.320688 C150.953905,103.086712 154.222393,100.836532 157.424897,98.5975264 L152.194197,91.1496354 C148.892157,93.597063 145.550973,96.0087291 142.218177,98.3276388" id="Fill-3" fill="#FFFFFF"></path>
                        <path d="M142.218177,98.3276388 L147.637885,105.320688 C149.015179,104.392566 150.379053,103.46109 151.739013,102.529615 L149.553124,93.0919319 C147.116157,94.872184 144.66465,96.6250562 142.218177,98.3276388" id="Fill-5" fill="#E6E7E8"></path>
                        <path d="M58.8105401,252.195624 L78.5159758,276.415658 C80.2181622,278.507147 82.7770338,279.738683 85.4745854,279.702922 C113.989004,279.322397 144.432641,268.61574 170.424535,247.499692 C202.807457,221.19208 220.792812,184.826547 221.968797,150.507801 C222.186323,144.163488 217.70047,138.65007 211.440293,137.567726 C177.578862,131.713457 138.280948,141.884251 105.898026,168.191862 C79.906132,189.307351 63.2030086,216.902377 57.0104947,244.718118 C56.4244594,247.349382 57.1083537,250.104135 58.8105401,252.195624" id="Fill-7" fill="#FFFFFF"></path>
                        <g id="Group-11" transform="translate(89.471033, 266.439932)">
                            <mask id="mask-2" fill="white">
                                <use xlink:href="#path-1"></use>
                            </mask>
                            <g id="Clip-10"></g>
                            <path d="M2.39536322,13.7059857 C12.1594489,25.7067625 11.4252272,42.8085819 1.34855214,53.930967 C-0.057261461,55.4826807 -0.17021864,57.8066194 1.15115668,59.4309738 L1.54427003,59.913754 C2.79406851,61.4498221 4.95703073,61.9136041 6.71234055,60.9960981 C11.5588746,58.4631782 16.2275849,55.4195394 20.63627,51.8378017 C37.1839375,38.3948307 47.1940685,19.9005479 50.2707537,0.385386031 C34.3930005,7.83439455 17.8805622,12.0525751 1.82666297,13.0421629 C2.01678892,13.2628784 2.21027003,13.4785649 2.39536322,13.7059857" id="Fill-9" fill="#F86B4F" mask="url(#mask-2)"></path>
                        </g>
                        <path d="M57.8750086,238.39392 C48.1109229,226.393143 31.2064897,223.62051 18.2538801,231.207535 C16.4465652,232.265852 14.1466005,231.902091 12.8252252,230.277736 L12.4321118,229.794956 C11.1823134,228.258888 11.1700111,226.04838 12.4270791,224.518459 C15.8974368,220.294132 19.8324846,216.348632 24.2406106,212.767453 C40.7888373,199.323924 60.9500161,193.306493 80.6968322,194.280435 C70.158263,208.291678 62.6555577,223.583631 58.409598,239.085682 C58.2323335,238.854908 58.0601018,238.621341 57.8750086,238.39392" id="Fill-12" fill="#F86B4F"></path>
                        <g id="Group-16" transform="translate(164.962217, 135.686951)" fill="#F86B4F">
                            <path d="M46.5572025,1.89569472 C31.7385627,-0.674663032 15.8770262,-0.169531857 0.00766095718,3.40717683 L46.0259683,59.9678991 C52.7692882,45.1743727 56.5019078,29.7611666 57.0085375,14.7407782 C57.2199128,8.45904736 52.7541899,2.97077479 46.5572025,1.89569472" id="Fill-14"></path>
                        </g>
                        <path d="M171.926362,143.885051 C171.641732,143.5347 171.501934,143.066448 171.548347,142.617194 C171.595879,142.158441 171.822352,141.732656 172.178559,141.443211 C172.533647,141.154325 173.002811,141.01519 173.456876,141.066598 C174.365566,141.160472 175.097551,142.060097 175.004166,142.968662 C174.956634,143.427415 174.725128,143.848172 174.37004,144.137058 C174.013833,144.425943 173.554735,144.566196 173.095637,144.5187 C172.646045,144.472322 172.215465,144.240431 171.926362,143.885051" id="Fill-17" fill="#E6E7E8"></path>
                        <path d="M178.208906,148.855452 C178.952634,148.251418 180.047536,148.36429 180.652025,149.107459 C181.257073,149.850628 181.144115,150.944706 180.400387,151.54874 C179.6561,152.153333 178.561758,152.040461 177.95671,151.296733 C177.352221,150.553565 177.464619,149.460045 178.208906,148.855452" id="Fill-19" fill="#E6E7E8"></path>
                        <path d="M184.239589,156.267805 C184.983317,155.663771 186.078219,155.776084 186.682708,156.519812 C187.287756,157.262981 187.174798,158.357059 186.431071,158.961093 C185.686783,159.565686 184.592441,159.452814 183.987393,158.709086 C183.382904,157.965918 183.495302,156.872398 184.239589,156.267805 M190.270496,163.679935 C191.014224,163.075342 192.108567,163.188214 192.713615,163.931383 C193.318103,164.67511 193.205705,165.769188 192.461418,166.373222 C191.71769,166.977815 190.622788,166.864943 190.0183,166.121216 C189.413252,165.378047 189.526209,164.284527 190.270496,163.679935 M196.300844,171.092064 C197.044572,170.487471 198.139474,170.600343 198.743962,171.343512 C199.34901,172.08724 199.236053,173.180759 198.492325,173.785352 C197.748038,174.389945 196.653695,174.276514 196.048647,173.533345 C195.443599,172.790176 195.556557,171.696098 196.300844,171.092064 M202.331751,178.504194 C203.075479,177.900159 204.169821,178.012473 204.774869,178.7562 C205.379917,179.499369 205.26696,180.593447 204.523232,181.19804 C203.778945,181.802074 202.684602,181.689202 202.079554,180.946033 C201.474506,180.202306 201.587463,179.108786 202.331751,178.504194" id="Fill-21" fill="#E6E7E8"></path>
                        <path d="M208.110293,188.357995 C207.820631,188.002615 207.686424,187.539392 207.727805,187.084551 C207.77925,186.630827 208.006283,186.2056 208.36249,185.916714 C208.718137,185.627828 209.18115,185.492605 209.636334,185.534513 C210.545024,185.628387 211.281482,186.533041 211.187538,187.441048 C211.136092,187.894772 210.909059,188.321116 210.553412,188.610002 C210.197764,188.898888 209.734192,189.033552 209.279009,188.991644 C208.825502,188.939678 208.399396,188.713375 208.110293,188.357995" id="Fill-23" fill="#E6E7E8"></path>
                        <path d="M163.626638,139.39363 L210.421106,196.90762 C210.615706,196.491334 210.798003,196.072253 210.988129,195.65485 L164.969822,139.094127 C164.521907,139.195265 164.074552,139.288022 163.626638,139.39363" id="Fill-25" fill="#E6E7E8"></path>
                        <path d="M76.3879073,194.183264 C66.7462851,207.085342 59.523736,221.00383 54.8690055,235.19444 C55.9292373,236.176204 56.9363456,237.240668 57.8752322,238.393976 C58.0597662,238.621397 58.231998,238.854964 58.4098217,239.085738 C62.6552222,223.583687 70.1584866,208.291734 80.6964967,194.279932 C79.2621642,194.209526 77.825595,194.179911 76.3879073,194.183264" id="Fill-27" fill="#E6E7E8"></path>
                        <path d="M139.742066,266.825541 C123.864313,274.27455 107.351315,278.49273 91.2974161,279.481759 C91.4875421,279.702475 91.6815824,279.91872 91.8666756,280.146141 C92.8100358,281.305596 93.6516227,282.514782 94.3998242,283.760288 C109.245305,282.104083 124.349134,277.883109 138.950807,271.091218 C139.249975,269.675286 139.516711,268.253766 139.742066,266.825541" id="Fill-29" fill="#E6E7E8"></path>
                        <path d="M64.040066,300.801033 C42.598333,318.220236 5.59193959e-05,320.088215 5.59193959e-05,320.088215 C5.59193959e-05,320.088215 10.5252045,278.799888 31.9669375,261.380127 C42.8611542,252.529714 55.638736,256.806566 64.4952499,267.69259 C73.3523229,278.578614 74.9342826,291.950062 64.040066,300.801033" id="Fill-31" fill="#F86B4F"></path>
                        <path d="M62.4976972,295.60472 C53.7491078,302.712318 35.5725083,305.709019 28.4595612,296.967009 C21.3471733,288.225558 27.9931935,271.056127 36.7417829,263.948529 C45.4903723,256.84149 55.1146594,260.793135 62.2270474,269.535145 C69.3394353,278.277156 71.2462866,288.49768 62.4976972,295.60472" id="Fill-33" fill="#FFCE80"></path>
                        <path d="M61.6864186,285.531655 C56.509401,289.737543 45.6146252,291.623403 41.4055723,286.450279 C37.1965194,281.277154 41.2680106,271.004105 46.444469,266.798217 C51.6214866,262.592889 55.9977385,266.003083 60.2062322,271.176207 C64.4152851,276.349332 66.8628771,281.326326 61.6864186,285.531655" id="Fill-35" fill="#F6F6F6"></path>
                        <path d="M57.0103829,244.71795 C56.4243476,247.349214 57.108801,250.103967 58.8104282,252.195456 L78.5164232,276.41549 C80.2180504,278.507538 82.7769219,279.738516 85.4744736,279.702754 C87.4064887,279.677051 89.3474509,279.599381 91.2951234,279.478686 L58.4122821,239.089426 C57.8983829,240.963552 57.4286599,242.839913 57.0103829,244.71795" id="Fill-37" fill="#F86B4F"></path>
                        <g id="Group-59" transform="translate(56.478589, 241.853901)" fill="#E6E7E8">
                            <path d="M4.63292191,0.550894719 L0.363476071,4.02143646 C0.330483627,4.42040068 0.330483627,4.81880613 0.352292191,5.21553526 L5.21336524,1.26333083 L4.63292191,0.550894719 Z" id="Fill-39"></path>
                            <path d="M7.62220504,4.22270664 L1.53817481,9.16841022 C1.69251234,9.43438637 1.86082972,9.69198092 2.04256776,9.94287019 L8.20264836,4.93570153 L7.62220504,4.22270664 Z" id="Fill-41"></path>
                            <polygon id="Fill-43" points="10.6116559 7.89451857 4.42976675 12.9201267 5.00965088 13.6331216 11.1920992 8.60751346"></polygon>
                            <polygon id="Fill-45" points="13.600995 11.5663305 7.41798741 16.5924974 7.99787154 17.3054923 14.1814383 12.2793254"></polygon>
                            <polygon id="Fill-47" points="16.5903899 15.2380865 10.406264 20.265371 10.9861481 20.9783659 17.1708332 15.9510814"></polygon>
                            <polygon id="Fill-49" points="19.5797849 18.9098985 13.3945406 23.9383005 13.9744247 24.6512954 20.1602282 19.6228934"></polygon>
                            <polygon id="Fill-51" points="22.5692358 22.5818221 16.3823139 27.610783 16.9627572 28.3237779 23.1496791 23.2942583"></polygon>
                            <polygon id="Fill-53" points="25.5585189 26.2536341 19.3710378 31.2837124 19.9509219 31.9967073 26.1389622 26.966629"></polygon>
                            <path d="M28.5479139,29.925446 L22.3811229,34.9387612 C22.5897023,35.1678583 22.8083471,35.3841036 23.0381758,35.5891734 L29.1283572,30.6384409 L28.5479139,29.925446 Z" id="Fill-55"></path>
                            <path d="M31.5367496,33.5965874 L26.673999,37.5499094 C27.0587244,37.6516061 27.4490418,37.7320695 27.8477471,37.780124 L32.1171929,34.3095823 L31.5367496,33.5965874 Z" id="Fill-57"></path>
                        </g>
                        <path d="M219.135585,142.066746 C219.859741,142.959666 219.775862,144.509145 218.741912,146.540845 C207.546849,168.545901 183.02899,196.88186 150.646069,223.189472 C124.654174,244.30552 98.4223859,260.188654 76.750265,268.978719 C74.6997008,269.810733 73.1350761,269.800675 72.4763456,268.991571 L72.4757864,268.991571 L78.5161995,276.415434 C80.2178267,278.507482 82.7772574,279.73846 85.4748091,279.702698 C113.989227,279.322174 144.432864,268.615516 170.424759,247.500027 C202.807681,221.192416 220.793036,184.826882 221.969021,150.508136 C222.077504,147.336538 221.011121,144.373363 219.135585,142.066746" id="Fill-60" fill="#000000" opacity="0.0599999987"></path>
                        <path d="M106.602331,212.970065 C107.951107,199.169479 95.7265678,200.291496 95.7265678,200.291496 L109.590104,184.147973 L103.501601,170.179755 C101.118316,172.196927 98.8166736,174.269976 96.5983511,176.392756 L101.371631,182.998017 L89.6945426,201.542589 C89.6945426,201.542589 105.32625,226.024688 106.602331,212.970065" id="Fill-62" fill="#E6E7E8"></path>
                        <path d="M70.8489793,104.276564 L148.991302,97.6550991 C148.434345,108.157804 147.666571,121.883515 152.655141,133.619992 C142.793196,145.463195 104.774717,168.869655 90.4828383,169.622322 C80.7215486,153.078718 73.4794277,128.491011 70.8489793,104.276564" id="Fill-64" fill="#FFFFFF"></path>
                        <path d="M152.655029,133.61988 L90.4827264,169.622211 L98.2862781,183.745768 L84.455734,200.747008 C84.455734,200.747008 97.0180262,226.935042 99.8604091,214.129631 C102.865517,200.592228 90.5945652,200.232378 90.5945652,200.232378 L106.305679,185.878047 L101.715255,170.498367 C101.715255,170.498367 124.232878,154.899648 147.849875,142.809468 L148.686429,143.853815 C151.461709,142.851376 154.247613,141.945604 157.039109,141.134265 L152.655029,133.61988 Z" id="Fill-66" fill="#2E2F41"></path>
                        <path d="M148.991358,97.6550991 C148.991358,97.6550991 154.198572,18.4037056 92.1263652,37.2421928 C92.1263652,37.2421928 72.3074131,60.6436239 70.8490353,104.276564 C123.200773,117.850288 148.991358,97.6550991 148.991358,97.6550991" id="Fill-68" fill="#FFC396"></path>
                        <path d="M143.232778,0.00022350937 C149.035534,22.1583836 152.27103,53.6581179 87.2871008,57.0129935 L86.50367,73.8544245 C86.50367,73.8544245 79.1564207,68.2605438 78.0240529,76.2275353 C76.8900076,84.1995557 85.9964811,80.287583 85.9964811,80.287583 C85.9964811,80.287583 78.7957406,95.1498385 70.8490353,104.276285 C70.3731612,104.823324 36.3037103,35.0694024 71.6565113,31.5418658 C71.6565113,31.5418658 73.1646574,13.9488845 97.8362947,10.9700634 C120.359509,8.24995434 131.852063,28.8575182 143.232778,0.00022350937" id="Fill-70" fill="#533E29"></path>
                        <path d="M112.744461,86.6415073 C112.744461,86.6415073 122.563907,83.9800695 135.671414,82.8463182 C135.671414,82.8463182 137.265116,95.2499707 126.223273,97.0777186 C114.05633,99.091538 112.744461,86.6415073 112.744461,86.6415073" id="Fill-72" fill="#EC7D86"></path>
                        <path d="M108.102537,71.6222923 C108.885967,74.8274167 108.323977,77.7179516 106.847146,78.0789193 C105.369756,78.4393281 103.536718,76.1332702 102.753287,72.9281458 C101.969856,69.7230215 102.531846,66.8324865 104.008678,66.4720777 C105.486068,66.1111101 107.318547,68.417168 108.102537,71.6222923" id="Fill-74" fill="#533E29"></path>
                        <path d="M139.433671,64.4173493 C140.21766,67.8968474 139.655111,71.0348257 138.17828,71.4266939 C136.70089,71.8179554 134.867852,69.3144881 134.084421,65.83499 C133.30099,62.3554919 133.86298,59.2175136 135.340371,58.8256455 C136.817202,58.4343839 138.65024,60.9378512 139.433671,64.4173493" id="Fill-76" fill="#533E29"></path>
                        <path d="M80.1280202,113.492303 C111.934413,145.117761 138.595662,153.826803 139.890196,154.013434 C141.549325,154.251471 144.858076,154.990728 144.439239,156.526797 C144.225627,157.306844 143.669788,157.578967 142.611793,157.512473 C143.280589,157.768391 143.977904,158.114831 143.93205,158.855764 C143.893466,159.515676 142.715804,160.039805 141.963128,160.013543 C141.897144,160.002926 141.83004,159.991751 141.766851,159.993427 C141.83004,159.991751 141.897144,160.002926 141.963128,160.013543 C142.603406,160.11971 143.317496,160.818176 143.280589,161.423887 C143.239209,162.21958 142.181773,162.468793 141.395547,162.39727 C142.066579,162.649277 142.546927,163.037066 142.504987,163.772412 C142.416076,165.320773 139.92934,165.103969 137.68138,164.873195 C134.25464,164.736855 103.104741,156.506122 74.2313199,120.088623 L80.1280202,113.492303 Z" id="Fill-78" fill="#E6E7E8"></path>
                        <path d="M80.0761829,113.446316 C112.12918,144.821443 138.858092,153.321505 140.153745,153.498636 C141.81511,153.723263 145.129452,154.436258 144.722359,155.975678 C144.514898,156.757961 143.961855,157.033995 142.902742,156.975883 C143.574334,157.226213 144.273886,157.567624 144.234183,158.308557 C144.200631,158.969028 143.026883,159.502656 142.274208,159.481982 C142.208223,159.471924 142.140561,159.461307 142.077372,159.463542 C142.140561,159.461307 142.208223,159.471924 142.274208,159.481982 C142.915044,159.58312 143.634727,160.275999 143.602294,160.882268 C143.567624,161.677961 142.511865,161.934997 141.72508,161.870179 C142.398349,162.117157 142.881493,162.501034 142.845704,163.236939 C142.769095,164.7853 139.819906,164.078452 138.065155,163.64205 C136.661578,163.292258 108.649876,154.550247 74.2314877,120.088455 L80.0761829,113.446316 Z" id="Fill-80" fill="#FFC396"></path>
                        <path d="M80.0761829,113.446316 L74.2314877,120.088455 C76.749538,122.609641 79.2278856,124.977164 81.6693264,127.230138 L87.2562332,120.174506 C84.8975531,118.053961 82.5047622,115.823338 80.0761829,113.446316" id="Fill-82" fill="#F6F6F6"></path>
                        <path d="M142.936629,106.745058 L145.17005,109.088553 L144.00469,112.890448 C144.00469,112.890448 146.624513,134.543477 120.869158,140.372601 L113.123763,134.647409 L119.092599,127.7907 C140.807778,127.948833 140.042801,114.34717 140.042801,114.34717 L136.684841,111.598564 L137.331269,108.999708 L142.936629,106.745058 Z" id="Fill-84" fill="#F6F6F6"></path>
                        <path d="M142.936629,106.745058 L145.17005,109.088553 L144.00469,112.890448 C144.00469,112.890448 146.464584,132.578829 120.709229,138.407954 L112.963833,132.682761 L118.93267,125.826052 C140.647289,125.984185 140.042801,114.34717 140.042801,114.34717 L136.684841,111.598564 L137.331269,108.999708 L142.936629,106.745058 Z" id="Fill-86" fill="#2E2F41"></path>
                    </g>
                </g>
            </g>
        </g>
    </g>
</svg>