<?xml version="1.0" encoding="UTF-8"?>
<svg width="201px" height="450px" viewBox="0 0 201 450" version="1.1" xmlns="http://www.w3.org/2000/svg" xmlns:xlink="http://www.w3.org/1999/xlink">
    <!-- Generator: Sketch 42 (36781) - http://www.bohemiancoding.com/sketch -->
    <title>Group 28</title>
    <desc>Created with Sketch.</desc>
    <defs></defs>
    <g id="Page-1" stroke="none" stroke-width="1" fill="none" fill-rule="evenodd">
        <g id="01-landingspage-pt-v2@2x-copy" transform="translate(-1228.000000, -3691.000000)" fill="#9C9CA9">
            <g id="Group-28" transform="translate(1228.000000, 3683.000000)">
                <g id="Group-17-Copy-7" opacity="0.560000002">
                    <path d="M109.535958,200.318748 C109.240327,200.318748 109,200.078628 109,199.783253 L109.000683,196.535495 C109.000683,196.24012 109.24101,196 109.535958,196 C109.831588,196 110.071915,196.24012 110.071915,196.535495 L110.071915,199.783936 C110.071915,200.078628 109.831588,200.318748 109.535958,200.318748" id="Fill-1-Copy"></path>
                    <path d="M106.834089,201.367136 C106.690712,201.367136 106.556211,201.311199 106.455164,201.21024 L104.157032,198.913411 C104.055303,198.813133 104,198.678748 104,198.535495 C104,198.392924 104.055303,198.257856 104.157032,198.156897 C104.258079,198.055937 104.39258,198 104.535275,198 C104.677969,198 104.813154,198.055937 104.9142,198.156897 L107.213015,200.453726 C107.314061,200.554685 107.370047,200.68907 107.370047,200.832324 C107.370047,200.974895 107.314061,201.10928 107.212332,201.21024 C107.111285,201.311199 106.977466,201.367136 106.834089,201.367136" id="Fill-3-Copy"></path>
                    <path d="M101.535958,204.070307 C101.240327,204.070307 101,203.830187 101,203.534813 C101,203.24012 101.240327,203 101.535958,203 L104.786523,203 C105.082154,203 105.322481,203.24012 105.322481,203.535495 C105.322481,203.830187 105.082154,204.070307 104.786523,204.070307 L101.535958,204.070307 Z" id="Fill-5-Copy"></path>
                    <path d="M103.535958,209.367136 C103.393263,209.367136 103.258762,209.311199 103.157032,209.21024 C103.055985,209.108598 103,208.974895 103,208.831642 C103,208.688388 103.055985,208.554685 103.157032,208.453726 L105.456529,206.156897 C105.557576,206.055255 105.692077,206 105.834772,206 C105.978149,206 106.112651,206.055255 106.213697,206.156897 C106.314744,206.257856 106.37073,206.392241 106.37073,206.534813 C106.37073,206.678066 106.314744,206.812451 106.213697,206.913411 L103.914883,209.21024 C103.813154,209.311199 103.678652,209.367136 103.535958,209.367136" id="Fill-7-Copy"></path>
                    <path d="M108.535958,211.318066 C108.240327,211.318066 108,211.077946 108,210.782571 L108.000683,207.534813 C108.000683,207.24012 108.24101,207 108.535958,207 C108.831588,207 109.071915,207.24012 109.071915,207.534813 L109.071915,210.782571 C109.071915,211.077946 108.831588,211.318066 108.535958,211.318066" id="Fill-9-Copy"></path>
                    <path d="M113.834089,209.367136 C113.691395,209.367136 113.556893,209.311199 113.455164,209.21024 L111.157032,206.913411 C111.055985,206.812451 111,206.678066 111,206.534813 C111,206.392241 111.055985,206.257856 111.157032,206.156897 C111.258079,206.055255 111.39258,206 111.535958,206 C111.678652,206 111.813154,206.055255 111.9142,206.156897 L114.213015,208.453726 C114.314061,208.554685 114.370047,208.68907 114.370047,208.832324 C114.370047,208.974895 114.314061,209.10928 114.213015,209.21024 C114.111285,209.311199 113.976784,209.367136 113.834089,209.367136" id="Fill-11-Copy"></path>
                    <path d="M113.535958,204.070307 C113.240327,204.070307 113,203.830187 113,203.534813 C113,203.24012 113.240327,203 113.535958,203 L116.787206,203 C117.082154,203 117.322481,203.24012 117.322481,203.535495 C117.322481,203.830187 117.082154,204.07099 116.787206,204.07099 L113.535958,204.070307 Z" id="Fill-13-Copy"></path>
                    <path d="M112.535958,201.366454 C112.393263,201.366454 112.258762,201.310517 112.157032,201.209558 C112.055985,201.108598 112,200.974213 112,200.83096 C112,200.688388 112.055985,200.554003 112.157715,200.453043 L114.455846,198.156214 C114.556893,198.055255 114.691395,198 114.834772,198 C114.977466,198 115.111968,198.055255 115.213015,198.156214 C115.421936,198.364955 115.421936,198.70467 115.213015,198.913411 L112.914883,201.209558 C112.813154,201.310517 112.678652,201.366454 112.535958,201.366454" id="Fill-15-Copy"></path>
                    <path d="M85.6035497,124.844235 C85.2703684,124.844235 85,124.573418 85,124.241207 L85,115.603028 C85,115.270135 85.2703684,115 85.6035497,115 C85.9360482,115 86.2070994,115.270135 86.2070994,115.603028 L86.2070994,124.241207 C86.2070994,124.573418 85.9360482,124.844235 85.6035497,124.844235" id="Fill-21-Copy"></path>
                    <path d="M81.6035497,120.206057 C81.2703684,120.206057 81,119.93524 81,119.603028 C81,119.270135 81.2703684,119 81.6035497,119 L90.2485117,119 C90.581693,119 90.8527442,119.270135 90.8527442,119.603028 C90.8527442,119.93524 90.581693,120.206057 90.2485117,120.206057 L81.6035497,120.206057 Z" id="Fill-23-Copy"></path>
                    <path d="M138.057348,9.42343778 C137.005915,9.42343778 136.151114,10.2781829 136.151114,11.3287076 C136.151114,12.3785502 137.005915,13.2332954 138.057348,13.2332954 C139.108781,13.2332954 139.963582,12.3785502 139.963582,11.3287076 C139.963582,10.2781829 139.108781,9.42343778 138.057348,9.42343778 M138.057348,14.3827331 C136.371642,14.3827331 135,13.012958 135,11.3287076 C135,9.64377511 136.371642,8.274 138.057348,8.274 C139.743054,8.274 141.114696,9.64377511 141.114696,11.3287076 C141.114696,13.012958 139.743054,14.3827331 138.057348,14.3827331" id="Fill-29-Copy"></path>
                    <path d="M18.083519,62.5355397 C16.6791053,62.5355397 15.536867,63.6767916 15.536867,65.0799925 C15.536867,66.4825112 16.6791053,67.6244453 18.083519,67.6244453 C19.4879327,67.6244453 20.6301711,66.4825112 20.6301711,65.0799925 C20.6301711,63.6767916 19.4879327,62.5355397 18.083519,62.5355397 M18.083519,69.159985 C15.8318143,69.159985 14,67.3297526 14,65.0799925 C14,62.8302324 15.8318143,61 18.083519,61 C20.3352237,61 22.167038,62.8302324 22.167038,65.0799925 C22.167038,67.3297526 20.3352237,69.159985 18.083519,69.159985" id="Fill-33-Copy"></path>
                    <path d="M184.326151,58.5355397 C182.921737,58.5355397 181.779499,59.6767916 181.779499,61.0799925 C181.779499,62.4825112 182.921737,63.6244453 184.326151,63.6244453 C185.730565,63.6244453 186.872803,62.4825112 186.872803,61.0799925 C186.872803,59.6767916 185.730565,58.5355397 184.326151,58.5355397 M184.326151,65.159985 C182.074446,65.159985 180.242632,63.3297526 180.242632,61.0799925 C180.242632,58.8302324 182.074446,57 184.326151,57 C186.577856,57 188.40967,58.8302324 188.40967,61.0799925 C188.40967,63.3297526 186.577856,65.159985 184.326151,65.159985" id="Fill-33-Copy-2"></path>
                    <path d="M8.50363304,177.554003 C7.79630556,177.554003 7.22006579,176.9844 7.22006579,176.283141 C7.22006579,175.575742 7.79357456,175 8.49817105,175 C9.20276754,175 9.77627632,175.573013 9.77627632,176.277001 C9.77627632,176.981672 9.20481579,177.554003 8.50363304,177.554003 M13.6221988,179.653688 C13.2849211,179.653688 12.9653947,179.524078 12.7223363,179.289415 C12.2280263,178.786664 12.2239298,177.97012 12.7189225,177.474873 C12.9599327,177.23407 13.2815073,177.101049 13.6235643,177.101049 C13.9642558,177.101049 14.2844649,177.23407 14.5261579,177.474873 C15.0211506,177.97012 15.0252471,178.77916 14.5336681,179.277819 C14.2817339,179.522031 13.9642558,179.653688 13.6221988,179.653688 M3.38643275,179.686432 C3.04642398,179.686432 2.72553216,179.553411 2.48247368,179.311927 C1.98543275,178.813268 1.98543275,178.003546 2.48247368,177.506252 C2.72143567,177.263403 3.04096199,177.131064 3.38370175,177.131064 C3.72507602,177.131064 4.04596784,177.264085 4.28902632,177.506934 C4.53140205,177.745007 4.66385526,178.061529 4.66522076,178.401244 C4.66658626,178.745052 4.53276754,179.068396 4.28834357,179.312609 C4.04665058,179.554093 3.72712427,179.686432 3.38643275,179.686432 M15.7632982,184.793756 C15.0587018,184.793756 14.485193,184.218013 14.485193,183.509933 C14.485193,182.791619 15.055288,182.207691 15.7571535,182.207691 C16.456288,182.207691 17.0325278,182.77593 17.0414035,183.47446 C17.0414035,184.212556 16.4795015,184.793756 15.7632982,184.793756 M1.28425,184.806034 C0.575557018,184.806034 0,184.233703 0,183.529033 C0,182.825045 0.572826023,182.252714 1.27742251,182.252714 C1.98201901,182.252714 2.55552778,182.822316 2.55552778,183.522894 C2.55552778,184.230975 1.98543275,184.806034 1.28425,184.806034 M13.6413158,189.901079 C13.3006243,189.901079 12.9804152,189.768058 12.7387222,189.526574 C12.245095,189.032691 12.2437295,188.223651 12.736674,187.722946 C12.9804152,187.48419 13.304038,187.350487 13.6440468,187.350487 C13.9847383,187.350487 14.3049474,187.482144 14.5445921,187.7209 C14.7890161,187.965112 14.9228348,188.287774 14.9214693,188.6309 C14.9201038,188.971297 14.7856023,189.289865 14.5432266,189.527939 C14.3083611,189.770787 13.9902003,189.901079 13.6413158,189.901079 M3.40486696,189.913358 C3.14747076,189.913358 2.89963304,189.836274 2.68866374,189.68961 L2.60605117,189.632991 L2.59854094,189.632991 L2.4981769,189.535442 C2.00796345,189.046334 2.0072807,188.237294 2.50022515,187.736589 C2.74260088,187.493058 3.06554094,187.358673 3.40759795,187.358673 C3.74965497,187.358673 4.06986404,187.492376 4.30950877,187.735907 C4.80996345,188.227061 4.81132895,189.034055 4.31701901,189.537489 C4.06440205,189.781702 3.74692398,189.913358 3.40486696,189.913358 M8.52957749,192.027369 C7.82566374,192.027369 7.25215497,191.454355 7.25215497,190.750367 C7.25215497,190.045697 7.82566374,189.473366 8.52957749,189.473366 C9.23417398,189.473366 9.80768275,190.045697 9.80768275,190.750367 C9.80768275,191.454355 9.23417398,192.027369 8.52957749,192.027369" id="Fill-37-Copy"></path>
                    <path d="M174.746265,173.554003 C174.038937,173.554003 173.462698,172.9844 173.462698,172.283141 C173.462698,171.575742 174.036206,171 174.740803,171 C175.445399,171 176.018908,171.573013 176.018908,172.277001 C176.018908,172.981672 175.447448,173.554003 174.746265,173.554003 M179.864831,175.653688 C179.527553,175.653688 179.208027,175.524078 178.964968,175.289415 C178.470658,174.786664 178.466562,173.97012 178.961554,173.474873 C179.202565,173.23407 179.524139,173.101049 179.866196,173.101049 C180.206888,173.101049 180.527097,173.23407 180.76879,173.474873 C181.263782,173.97012 181.267879,174.77916 180.7763,175.277819 C180.524366,175.522031 180.206888,175.653688 179.864831,175.653688 M169.629065,175.686432 C169.289056,175.686432 168.968164,175.553411 168.725106,175.311927 C168.228065,174.813268 168.228065,174.003546 168.725106,173.506252 C168.964068,173.263403 169.283594,173.131064 169.626334,173.131064 C169.967708,173.131064 170.2886,173.264085 170.531658,173.506934 C170.774034,173.745007 170.906487,174.061529 170.907853,174.401244 C170.909218,174.745052 170.775399,175.068396 170.530975,175.312609 C170.289282,175.554093 169.969756,175.686432 169.629065,175.686432 M182.00593,180.793756 C181.301334,180.793756 180.727825,180.218013 180.727825,179.509933 C180.727825,178.791619 181.29792,178.207691 181.999785,178.207691 C182.69892,178.207691 183.27516,178.77593 183.284035,179.47446 C183.284035,180.212556 182.722133,180.793756 182.00593,180.793756 M167.526882,180.806034 C166.818189,180.806034 166.242632,180.233703 166.242632,179.529033 C166.242632,178.825045 166.815458,178.252714 167.520054,178.252714 C168.224651,178.252714 168.79816,178.822316 168.79816,179.522894 C168.79816,180.230975 168.228065,180.806034 167.526882,180.806034 M179.883948,185.901079 C179.543256,185.901079 179.223047,185.768058 178.981354,185.526574 C178.487727,185.032691 178.486361,184.223651 178.979306,183.722946 C179.223047,183.48419 179.54667,183.350487 179.886679,183.350487 C180.22737,183.350487 180.547579,183.482144 180.787224,183.7209 C181.031648,183.965112 181.165467,184.287774 181.164101,184.6309 C181.162736,184.971297 181.028234,185.289865 180.785858,185.527939 C180.550993,185.770787 180.232832,185.901079 179.883948,185.901079 M169.647499,185.913358 C169.390103,185.913358 169.142265,185.836274 168.931296,185.68961 L168.848683,185.632991 L168.841173,185.632991 L168.740809,185.535442 C168.250595,185.046334 168.249913,184.237294 168.742857,183.736589 C168.985233,183.493058 169.308173,183.358673 169.65023,183.358673 C169.992287,183.358673 170.312496,183.492376 170.552141,183.735907 C171.052595,184.227061 171.053961,185.034055 170.559651,185.537489 C170.307034,185.781702 169.989556,185.913358 169.647499,185.913358 M174.772209,188.027369 C174.068296,188.027369 173.494787,187.454355 173.494787,186.750367 C173.494787,186.045697 174.068296,185.473366 174.772209,185.473366 C175.476806,185.473366 176.050315,186.045697 176.050315,186.750367 C176.050315,187.454355 175.476806,188.027369 174.772209,188.027369" id="Fill-37-Copy-2"></path>
                </g>
                <g id="Group-17-Copy-8" opacity="0.600000024" transform="translate(73.000000, 246.000000)">
                    <path d="M95.5359576,200.318748 C95.2403275,200.318748 95,200.078628 95,199.783253 L95.0006827,196.535495 C95.0006827,196.24012 95.2410102,196 95.5359576,196 C95.8315877,196 96.0719152,196.24012 96.0719152,196.535495 L96.0719152,199.783936 C96.0719152,200.078628 95.8315877,200.318748 95.5359576,200.318748" id="Fill-1-Copy"></path>
                    <path d="M92.8340892,201.367136 C92.690712,201.367136 92.5562105,201.311199 92.4551637,201.21024 L90.1570322,198.913411 C90.0553026,198.813133 90,198.678748 90,198.535495 C90,198.392924 90.0553026,198.257856 90.1570322,198.156897 C90.2580789,198.055937 90.3925804,198 90.5352749,198 C90.6779693,198 90.8131535,198.055937 90.9142003,198.156897 L93.2130146,200.453726 C93.3140614,200.554685 93.3700468,200.68907 93.3700468,200.832324 C93.3700468,200.974895 93.3140614,201.10928 93.2123319,201.21024 C93.1112851,201.311199 92.9774664,201.367136 92.8340892,201.367136" id="Fill-3-Copy"></path>
                    <path d="M87.5359576,204.070307 C87.2403275,204.070307 87,203.830187 87,203.534813 C87,203.24012 87.2403275,203 87.5359576,203 L90.7865234,203 C91.0821535,203 91.322481,203.24012 91.322481,203.535495 C91.322481,203.830187 91.0821535,204.070307 90.7865234,204.070307 L87.5359576,204.070307 Z" id="Fill-5-Copy"></path>
                    <path d="M89.5359576,209.367136 C89.3932632,209.367136 89.2587617,209.311199 89.1570322,209.21024 C89.0559854,209.108598 89,208.974895 89,208.831642 C89,208.688388 89.0559854,208.554685 89.1570322,208.453726 L91.4565292,206.156897 C91.557576,206.055255 91.6920775,206 91.8347719,206 C91.9781491,206 92.1126506,206.055255 92.2136974,206.156897 C92.3147442,206.257856 92.3707295,206.392241 92.3707295,206.534813 C92.3707295,206.678066 92.3147442,206.812451 92.2136974,206.913411 L89.914883,209.21024 C89.8131535,209.311199 89.678652,209.367136 89.5359576,209.367136" id="Fill-7-Copy"></path>
                    <path d="M94.5359576,211.318066 C94.2403275,211.318066 94,211.077946 94,210.782571 L94.0006827,207.534813 C94.0006827,207.24012 94.2410102,207 94.5359576,207 C94.8315877,207 95.0719152,207.24012 95.0719152,207.534813 L95.0719152,210.782571 C95.0719152,211.077946 94.8315877,211.318066 94.5359576,211.318066" id="Fill-9-Copy"></path>
                    <path d="M99.8340892,209.367136 C99.6913947,209.367136 99.5568933,209.311199 99.4551637,209.21024 L97.1570322,206.913411 C97.0559854,206.812451 97,206.678066 97,206.534813 C97,206.392241 97.0559854,206.257856 97.1570322,206.156897 C97.2580789,206.055255 97.3925804,206 97.5359576,206 C97.678652,206 97.8131535,206.055255 97.9142003,206.156897 L100.213015,208.453726 C100.314061,208.554685 100.370047,208.68907 100.370047,208.832324 C100.370047,208.974895 100.314061,209.10928 100.213015,209.21024 C100.111285,209.311199 99.9767836,209.367136 99.8340892,209.367136" id="Fill-11-Copy"></path>
                    <path d="M99.5359576,204.070307 C99.2403275,204.070307 99,203.830187 99,203.534813 C99,203.24012 99.2403275,203 99.5359576,203 L102.787206,203 C103.082154,203 103.322481,203.24012 103.322481,203.535495 C103.322481,203.830187 103.082154,204.07099 102.787206,204.07099 L99.5359576,204.070307 Z" id="Fill-13-Copy"></path>
                    <path d="M98.5359576,201.366454 C98.3932632,201.366454 98.2587617,201.310517 98.1570322,201.209558 C98.0559854,201.108598 98,200.974213 98,200.83096 C98,200.688388 98.0559854,200.554003 98.1577149,200.453043 L100.455846,198.156214 C100.556893,198.055255 100.691395,198 100.834772,198 C100.977466,198 101.111968,198.055255 101.213015,198.156214 C101.421936,198.364955 101.421936,198.70467 101.213015,198.913411 L98.914883,201.209558 C98.8131535,201.310517 98.678652,201.366454 98.5359576,201.366454" id="Fill-15-Copy"></path>
                    <path d="M71.6035497,124.844235 C71.2703684,124.844235 71,124.573418 71,124.241207 L71,115.603028 C71,115.270135 71.2703684,115 71.6035497,115 C71.9360482,115 72.2070994,115.270135 72.2070994,115.603028 L72.2070994,124.241207 C72.2070994,124.573418 71.9360482,124.844235 71.6035497,124.844235" id="Fill-21-Copy"></path>
                    <path d="M67.6035497,120.206057 C67.2703684,120.206057 67,119.93524 67,119.603028 C67,119.270135 67.2703684,119 67.6035497,119 L76.2485117,119 C76.581693,119 76.8527442,119.270135 76.8527442,119.603028 C76.8527442,119.93524 76.581693,120.206057 76.2485117,120.206057 L67.6035497,120.206057 Z" id="Fill-23-Copy"></path>
                    <path d="M124.057348,9.42343778 C123.005915,9.42343778 122.151114,10.2781829 122.151114,11.3287076 C122.151114,12.3785502 123.005915,13.2332954 124.057348,13.2332954 C125.108781,13.2332954 125.963582,12.3785502 125.963582,11.3287076 C125.963582,10.2781829 125.108781,9.42343778 124.057348,9.42343778 M124.057348,14.3827331 C122.371642,14.3827331 121,13.012958 121,11.3287076 C121,9.64377511 122.371642,8.274 124.057348,8.274 C125.743054,8.274 127.114696,9.64377511 127.114696,11.3287076 C127.114696,13.012958 125.743054,14.3827331 124.057348,14.3827331" id="Fill-29-Copy"></path>
                    <path d="M4.08351901,62.5355397 C2.67910526,62.5355397 1.53686696,63.6767916 1.53686696,65.0799925 C1.53686696,66.4825112 2.67910526,67.6244453 4.08351901,67.6244453 C5.48793275,67.6244453 6.63017105,66.4825112 6.63017105,65.0799925 C6.63017105,63.6767916 5.48793275,62.5355397 4.08351901,62.5355397 M4.08351901,69.159985 C1.83181433,69.159985 0,67.3297526 0,65.0799925 C0,62.8302324 1.83181433,61 4.08351901,61 C6.33522368,61 8.16703801,62.8302324 8.16703801,65.0799925 C8.16703801,67.3297526 6.33522368,69.159985 4.08351901,69.159985" id="Fill-33-Copy"></path>
                </g>
            </g>
        </g>
    </g>
</svg>