<?xml version="1.0" encoding="UTF-8"?>
<svg width="158px" height="335px" viewBox="0 0 158 335" version="1.1" xmlns="http://www.w3.org/2000/svg" xmlns:xlink="http://www.w3.org/1999/xlink">
    <!-- Generator: Sketch 42 (36781) - http://www.bohemiancoding.com/sketch -->
    <title>Group 2</title>
    <desc>Created with Sketch.</desc>
    <defs></defs>
    <g id="Page-1" stroke="none" stroke-width="1" fill="none" fill-rule="evenodd" opacity="0.560000002">
        <g id="02-landingspage-mob-menu" transform="translate(-217.000000, -92.000000)" fill="#9C9CA9">
            <g id="Group-2" transform="translate(217.000000, 87.000000)">
                <g id="Group-17">
                    <path d="M74.8413104,136.869371 C74.6393188,136.869371 74.4751131,136.705307 74.4751131,136.50349 L74.4755796,134.284433 C74.4755796,134.082616 74.6397853,133.918552 74.8413104,133.918552 C75.043302,133.918552 75.2075077,134.082616 75.2075077,134.284433 L75.2075077,136.503956 C75.2075077,136.705307 75.043302,136.869371 74.8413104,136.869371" id="Fill-1-Copy"></path>
                    <path d="M72.9952374,137.585691 C72.8972738,137.585691 72.8053746,137.547471 72.7363336,137.47849 L71.166117,135.909163 C71.0966095,135.840648 71.0588235,135.748828 71.0588235,135.650949 C71.0588235,135.553536 71.0966095,135.46125 71.166117,135.392269 C71.235158,135.323287 71.3270572,135.285068 71.4245543,135.285068 C71.5220514,135.285068 71.6144171,135.323287 71.6834581,135.392269 L73.2541412,136.961595 C73.3231822,137.030577 73.3614347,137.122397 73.3614347,137.220276 C73.3614347,137.317688 73.3231822,137.409508 73.2536747,137.47849 C73.1846337,137.547471 73.093201,137.585691 72.9952374,137.585691" id="Fill-3-Copy"></path>
                    <path d="M69.375247,139.432653 C69.1732554,139.432653 69.0090498,139.26859 69.0090498,139.066772 C69.0090498,138.865421 69.1732554,138.701357 69.375247,138.701357 L71.5962219,138.701357 C71.7982135,138.701357 71.9624191,138.865421 71.9624191,139.067238 C71.9624191,139.26859 71.7982135,139.432653 71.5962219,139.432653 L69.375247,139.432653 Z" id="Fill-5-Copy"></path>
                    <path d="M70.7417629,143.051754 C70.6442658,143.051754 70.5523666,143.013534 70.4828591,142.944553 C70.4138181,142.875106 70.3755656,142.783752 70.3755656,142.685873 C70.3755656,142.587994 70.4138181,142.49664 70.4828591,142.427659 L72.0540087,140.858332 C72.1230497,140.788885 72.2149489,140.751131 72.312446,140.751131 C72.4104096,140.751131 72.5023088,140.788885 72.5713498,140.858332 C72.6403908,140.927313 72.6786433,141.019133 72.6786433,141.116546 C72.6786433,141.214425 72.6403908,141.306245 72.5713498,141.375226 L71.0006667,142.944553 C70.9311592,143.013534 70.83926,143.051754 70.7417629,143.051754" id="Fill-7-Copy"></path>
                    <path d="M74.1580525,144.384742 C73.9560609,144.384742 73.7918552,144.220678 73.7918552,144.018861 L73.7923217,141.799804 C73.7923217,141.598453 73.9565274,141.434389 74.1580525,141.434389 C74.3600441,141.434389 74.5242498,141.598453 74.5242498,141.799804 L74.5242498,144.018861 C74.5242498,144.220678 74.3600441,144.384742 74.1580525,144.384742" id="Fill-9-Copy"></path>
                    <path d="M77.7780428,143.051754 C77.6805457,143.051754 77.5886465,143.013534 77.519139,142.944553 L75.9489224,141.375226 C75.8798814,141.306245 75.841629,141.214425 75.841629,141.116546 C75.841629,141.019133 75.8798814,140.927313 75.9489224,140.858332 C76.0179634,140.788885 76.1098626,140.751131 76.2078262,140.751131 C76.3053233,140.751131 76.3972225,140.788885 76.4662635,140.858332 L78.0369466,142.427659 C78.1059877,142.49664 78.1442401,142.58846 78.1442401,142.686339 C78.1442401,142.783752 78.1059877,142.875572 78.0369466,142.944553 C77.9674391,143.013534 77.8755399,143.051754 77.7780428,143.051754" id="Fill-11-Copy"></path>
                    <path d="M77.5743421,139.432653 C77.3723505,139.432653 77.2081448,139.26859 77.2081448,139.066772 C77.2081448,138.865421 77.3723505,138.701357 77.5743421,138.701357 L79.7957834,138.701357 C79.9973085,138.701357 80.1615142,138.865421 80.1615142,139.067238 C80.1615142,139.26859 79.9973085,139.43312 79.7957834,139.43312 L77.5743421,139.432653 Z" id="Fill-13-Copy"></path>
                    <path d="M76.8910842,137.585224 C76.793587,137.585224 76.7016879,137.547005 76.6321803,137.478024 C76.5631393,137.409042 76.5248869,137.317222 76.5248869,137.219343 C76.5248869,137.12193 76.5631393,137.030111 76.6326468,136.961129 L78.2028634,135.391803 C78.2719045,135.322821 78.3638036,135.285068 78.4617672,135.285068 C78.5592644,135.285068 78.6511635,135.322821 78.7202046,135.391803 C78.8629515,135.534426 78.8629515,135.766539 78.7202046,135.909163 L77.149988,137.478024 C77.0804805,137.547005 76.9885813,137.585224 76.8910842,137.585224" id="Fill-15-Copy"></path>
                    <path d="M58.4893032,85.3008124 C58.2616544,85.3008124 58.0769231,85.1157745 58.0769231,84.8887884 L58.0769231,78.9866846 C58.0769231,78.7592325 58.2616544,78.5746606 58.4893032,78.5746606 C58.7164855,78.5746606 58.9016833,78.7592325 58.9016833,78.9866846 L58.9016833,84.8887884 C58.9016833,85.1157745 58.7164855,85.3008124 58.4893032,85.3008124" id="Fill-21-Copy"></path>
                    <path d="M55.7562715,82.1317403 C55.5286228,82.1317403 55.3438914,81.9467024 55.3438914,81.7197163 C55.3438914,81.4922641 55.5286228,81.3076923 55.7562715,81.3076923 L61.6630103,81.3076923 C61.890659,81.3076923 62.0758569,81.4922641 62.0758569,81.7197163 C62.0758569,81.9467024 61.890659,82.1317403 61.6630103,82.1317403 L55.7562715,82.1317403 Z" id="Fill-23-Copy"></path>
                    <path d="M94.3287762,6.43863848 C93.6103765,6.43863848 93.0263268,7.02264986 93.0263268,7.74042921 C93.0263268,8.45774246 93.6103765,9.04175384 94.3287762,9.04175384 C95.047176,9.04175384 95.6312256,8.45774246 95.6312256,7.74042921 C95.6312256,7.02264986 95.047176,6.43863848 94.3287762,6.43863848 M94.3287762,9.8271163 C93.1770041,9.8271163 92.239819,8.89120661 92.239819,7.74042921 C92.239819,6.58918571 93.1770041,5.65327602 94.3287762,5.65327602 C95.4805483,5.65327602 96.4177334,6.58918571 96.4177334,7.74042921 C96.4177334,8.89120661 95.4805483,9.8271163 94.3287762,9.8271163" id="Fill-29-Copy"></path>
                    <path d="M12.3557076,42.7279027 C11.3961307,42.7279027 10.6156874,43.5076721 10.6156874,44.4664202 C10.6156874,45.4247023 11.3961307,46.2049377 12.3557076,46.2049377 C13.3152844,46.2049377 14.0957277,45.4247023 14.0957277,44.4664202 C14.0957277,43.5076721 13.3152844,42.7279027 12.3557076,42.7279027 M12.3557076,47.2541074 C10.8172125,47.2541074 9.56561086,46.0035866 9.56561086,44.4664202 C9.56561086,42.9292538 10.8172125,41.678733 12.3557076,41.678733 C13.8942026,41.678733 15.1458043,42.9292538 15.1458043,44.4664202 C15.1458043,46.0035866 13.8942026,47.2541074 12.3557076,47.2541074" id="Fill-33-Copy"></path>
                    <path d="M125.942302,39.994871 C124.982725,39.994871 124.202282,40.7746404 124.202282,41.7333885 C124.202282,42.6916706 124.982725,43.471906 125.942302,43.471906 C126.901879,43.471906 127.682322,42.6916706 127.682322,41.7333885 C127.682322,40.7746404 126.901879,39.994871 125.942302,39.994871 M125.942302,44.5210757 C124.403807,44.5210757 123.152205,43.270555 123.152205,41.7333885 C123.152205,40.1962221 124.403807,38.9457014 125.942302,38.9457014 C127.480797,38.9457014 128.732399,40.1962221 128.732399,41.7333885 C128.732399,43.270555 127.480797,44.5210757 125.942302,44.5210757" id="Fill-33-Copy-2"></path>
                    <path d="M5.81017461,121.315179 C5.32688751,121.315179 4.93316712,120.925993 4.93316712,120.446852 C4.93316712,119.963516 5.32502153,119.570136 5.80644266,119.570136 C6.2878638,119.570136 6.67971821,119.961652 6.67971821,120.442657 C6.67971821,120.924129 6.28926328,121.315179 5.81017461,121.315179 M9.30747522,122.749805 C9.07702751,122.749805 8.85870862,122.661248 8.69263699,122.500913 C8.35489581,122.157404 8.35209685,121.599494 8.69030452,121.261112 C8.85497667,121.096582 9.07469504,121.005694 9.30840821,121.005694 C9.54118838,121.005694 9.75997376,121.096582 9.92511241,121.261112 C10.2633201,121.599494 10.266119,122.152277 9.93024383,122.492989 C9.75810779,122.65985 9.54118838,122.749805 9.30747522,122.749805 M2.31380699,122.772177 C2.08149331,122.772177 1.86224143,122.68129 1.6961698,122.516294 C1.35656265,122.175582 1.35656265,121.622332 1.6961698,121.282552 C1.85944247,121.116624 2.07776136,121.026202 2.31194102,121.026202 C2.54518769,121.026202 2.76443956,121.11709 2.93051119,121.283018 C3.09611633,121.445684 3.18661604,121.66195 3.18754903,121.894063 C3.18848201,122.128973 3.09704932,122.349899 2.9300447,122.51676 C2.76490606,122.681756 2.54658717,122.772177 2.31380699,122.772177 M10.7703983,126.261797 C10.2889772,126.261797 9.89712281,125.868416 9.89712281,125.384615 C9.89712281,124.893821 10.2866448,124.494848 10.7661999,124.494848 C11.2438891,124.494848 11.6376095,124.883101 11.6436739,125.360378 C11.6436739,125.864688 11.2597499,126.261797 10.7703983,126.261797 M0.877473982,126.270186 C0.39325389,126.270186 0,125.879137 0,125.397665 C0,124.91666 0.391387916,124.52561 0.872809048,124.52561 C1.35423018,124.52561 1.74608459,124.914795 1.74608459,125.39347 C1.74608459,125.877272 1.35656265,126.270186 0.877473982,126.270186 M9.32053703,129.751416 C9.08775685,129.751416 8.86897147,129.660529 8.70383283,129.495533 C8.36655814,129.158083 8.36562516,128.6053 8.70243335,128.263189 C8.86897147,128.100058 9.09008932,128.008704 9.32240301,128.008704 C9.55518319,128.008704 9.77396856,128.098659 9.93770773,128.261791 C10.1047123,128.428651 10.196145,128.649112 10.1952121,128.883556 C10.1942791,129.116135 10.1023799,129.333799 9.93677474,129.496465 C9.77630103,129.662393 9.55891513,129.751416 9.32053703,129.751416 M2.32640231,129.759806 C2.15053432,129.759806 1.98119724,129.707138 1.83705079,129.606928 L1.7806051,129.568243 L1.77547367,129.568243 L1.70689915,129.501592 C1.37195693,129.167405 1.37149043,128.614622 1.70829863,128.272511 C1.87390377,128.106117 2.09455512,128.014297 2.32826828,128.014297 C2.56198145,128.014297 2.78076683,128.105651 2.94450599,128.272045 C3.28644562,128.60763 3.2873786,129.159015 2.94963742,129.50299 C2.77703488,129.66985 2.56011548,129.759806 2.32640231,129.759806 M5.82790136,131.20422 C5.34694672,131.20422 4.95509231,130.812704 4.95509231,130.331699 C4.95509231,129.850227 5.34694672,129.459178 5.82790136,129.459178 C6.30932249,129.459178 6.7011769,129.850227 6.7011769,130.331699 C6.7011769,130.812704 6.30932249,131.20422 5.82790136,131.20422" id="Fill-37-Copy"></path>
                    <path d="M119.396769,118.582147 C118.913482,118.582147 118.519762,118.192961 118.519762,117.71382 C118.519762,117.230484 118.911616,116.837104 119.393037,116.837104 C119.874458,116.837104 120.266313,117.22862 120.266313,117.709625 C120.266313,118.191097 119.875858,118.582147 119.396769,118.582147 M122.89407,120.016773 C122.663622,120.016773 122.445303,119.928216 122.279232,119.767881 C121.94149,119.424372 121.938691,118.866462 122.276899,118.52808 C122.441571,118.36355 122.66129,118.272663 122.895003,118.272663 C123.127783,118.272663 123.346568,118.36355 123.511707,118.52808 C123.849915,118.866462 123.852714,119.419245 123.516838,119.759957 C123.344702,119.926818 123.127783,120.016773 122.89407,120.016773 M115.900402,120.039146 C115.668088,120.039146 115.448836,119.948258 115.282764,119.783262 C114.943157,119.44255 114.943157,118.8893 115.282764,118.549521 C115.446037,118.383592 115.664356,118.293171 115.898536,118.293171 C116.131782,118.293171 116.351034,118.384058 116.517106,118.549987 C116.682711,118.712652 116.773211,118.928918 116.774144,119.161031 C116.775077,119.395941 116.683644,119.616868 116.516639,119.783728 C116.351501,119.948724 116.133182,120.039146 115.900402,120.039146 M124.356993,123.528765 C123.875572,123.528765 123.483717,123.135385 123.483717,122.651583 C123.483717,122.16079 123.873239,121.761816 124.352795,121.761816 C124.830484,121.761816 125.224204,122.15007 125.230268,122.627346 C125.230268,123.131656 124.846344,123.528765 124.356993,123.528765 M114.464069,123.537155 C113.979848,123.537155 113.586595,123.146105 113.586595,122.664633 C113.586595,122.183628 113.977983,121.792578 114.459404,121.792578 C114.940825,121.792578 115.332679,122.181764 115.332679,122.660439 C115.332679,123.144241 114.943157,123.537155 114.464069,123.537155 M122.907132,127.018385 C122.674351,127.018385 122.455566,126.927497 122.290427,126.762501 C121.953153,126.425051 121.95222,125.872268 122.289028,125.530158 C122.455566,125.367026 122.676684,125.275672 122.908998,125.275672 C123.141778,125.275672 123.360563,125.365628 123.524302,125.528759 C123.691307,125.69562 123.78274,125.916081 123.781807,126.150524 C123.780874,126.383103 123.688974,126.600768 123.523369,126.763433 C123.362896,126.929361 123.14551,127.018385 122.907132,127.018385 M115.912997,127.026774 C115.737129,127.026774 115.567792,126.974106 115.423645,126.873897 L115.3672,126.835211 L115.362068,126.835211 L115.293494,126.76856 C114.958552,126.434373 114.958085,125.88159 115.294893,125.53948 C115.460498,125.373085 115.68115,125.281265 115.914863,125.281265 C116.148576,125.281265 116.367361,125.372619 116.531101,125.539013 C116.87304,125.874599 116.873973,126.425984 116.536232,126.769958 C116.363629,126.936819 116.14671,127.026774 115.912997,127.026774 M119.414496,128.471189 C118.933541,128.471189 118.541687,128.079673 118.541687,127.598667 C118.541687,127.117196 118.933541,126.726146 119.414496,126.726146 C119.895917,126.726146 120.287772,127.117196 120.287772,127.598667 C120.287772,128.079673 119.895917,128.471189 119.414496,128.471189" id="Fill-37-Copy-2"></path>
                </g>
                <g id="Group-17-Copy-2" transform="translate(39.000000, 195.000000)">
                    <path d="M74.8413104,136.869371 C74.6393188,136.869371 74.4751131,136.705307 74.4751131,136.50349 L74.4755796,134.284433 C74.4755796,134.082616 74.6397853,133.918552 74.8413104,133.918552 C75.043302,133.918552 75.2075077,134.082616 75.2075077,134.284433 L75.2075077,136.503956 C75.2075077,136.705307 75.043302,136.869371 74.8413104,136.869371" id="Fill-1-Copy"></path>
                    <path d="M72.9952374,137.585691 C72.8972738,137.585691 72.8053746,137.547471 72.7363336,137.47849 L71.166117,135.909163 C71.0966095,135.840648 71.0588235,135.748828 71.0588235,135.650949 C71.0588235,135.553536 71.0966095,135.46125 71.166117,135.392269 C71.235158,135.323287 71.3270572,135.285068 71.4245543,135.285068 C71.5220514,135.285068 71.6144171,135.323287 71.6834581,135.392269 L73.2541412,136.961595 C73.3231822,137.030577 73.3614347,137.122397 73.3614347,137.220276 C73.3614347,137.317688 73.3231822,137.409508 73.2536747,137.47849 C73.1846337,137.547471 73.093201,137.585691 72.9952374,137.585691" id="Fill-3-Copy"></path>
                    <path d="M69.375247,139.432653 C69.1732554,139.432653 69.0090498,139.26859 69.0090498,139.066772 C69.0090498,138.865421 69.1732554,138.701357 69.375247,138.701357 L71.5962219,138.701357 C71.7982135,138.701357 71.9624191,138.865421 71.9624191,139.067238 C71.9624191,139.26859 71.7982135,139.432653 71.5962219,139.432653 L69.375247,139.432653 Z" id="Fill-5-Copy"></path>
                    <path d="M70.7417629,143.051754 C70.6442658,143.051754 70.5523666,143.013534 70.4828591,142.944553 C70.4138181,142.875106 70.3755656,142.783752 70.3755656,142.685873 C70.3755656,142.587994 70.4138181,142.49664 70.4828591,142.427659 L72.0540087,140.858332 C72.1230497,140.788885 72.2149489,140.751131 72.312446,140.751131 C72.4104096,140.751131 72.5023088,140.788885 72.5713498,140.858332 C72.6403908,140.927313 72.6786433,141.019133 72.6786433,141.116546 C72.6786433,141.214425 72.6403908,141.306245 72.5713498,141.375226 L71.0006667,142.944553 C70.9311592,143.013534 70.83926,143.051754 70.7417629,143.051754" id="Fill-7-Copy"></path>
                    <path d="M74.1580525,144.384742 C73.9560609,144.384742 73.7918552,144.220678 73.7918552,144.018861 L73.7923217,141.799804 C73.7923217,141.598453 73.9565274,141.434389 74.1580525,141.434389 C74.3600441,141.434389 74.5242498,141.598453 74.5242498,141.799804 L74.5242498,144.018861 C74.5242498,144.220678 74.3600441,144.384742 74.1580525,144.384742" id="Fill-9-Copy"></path>
                    <path d="M77.7780428,143.051754 C77.6805457,143.051754 77.5886465,143.013534 77.519139,142.944553 L75.9489224,141.375226 C75.8798814,141.306245 75.841629,141.214425 75.841629,141.116546 C75.841629,141.019133 75.8798814,140.927313 75.9489224,140.858332 C76.0179634,140.788885 76.1098626,140.751131 76.2078262,140.751131 C76.3053233,140.751131 76.3972225,140.788885 76.4662635,140.858332 L78.0369466,142.427659 C78.1059877,142.49664 78.1442401,142.58846 78.1442401,142.686339 C78.1442401,142.783752 78.1059877,142.875572 78.0369466,142.944553 C77.9674391,143.013534 77.8755399,143.051754 77.7780428,143.051754" id="Fill-11-Copy"></path>
                    <path d="M77.5743421,139.432653 C77.3723505,139.432653 77.2081448,139.26859 77.2081448,139.066772 C77.2081448,138.865421 77.3723505,138.701357 77.5743421,138.701357 L79.7957834,138.701357 C79.9973085,138.701357 80.1615142,138.865421 80.1615142,139.067238 C80.1615142,139.26859 79.9973085,139.43312 79.7957834,139.43312 L77.5743421,139.432653 Z" id="Fill-13-Copy"></path>
                    <path d="M76.8910842,137.585224 C76.793587,137.585224 76.7016879,137.547005 76.6321803,137.478024 C76.5631393,137.409042 76.5248869,137.317222 76.5248869,137.219343 C76.5248869,137.12193 76.5631393,137.030111 76.6326468,136.961129 L78.2028634,135.391803 C78.2719045,135.322821 78.3638036,135.285068 78.4617672,135.285068 C78.5592644,135.285068 78.6511635,135.322821 78.7202046,135.391803 C78.8629515,135.534426 78.8629515,135.766539 78.7202046,135.909163 L77.149988,137.478024 C77.0804805,137.547005 76.9885813,137.585224 76.8910842,137.585224" id="Fill-15-Copy"></path>
                    <path d="M58.4893032,85.3008124 C58.2616544,85.3008124 58.0769231,85.1157745 58.0769231,84.8887884 L58.0769231,78.9866846 C58.0769231,78.7592325 58.2616544,78.5746606 58.4893032,78.5746606 C58.7164855,78.5746606 58.9016833,78.7592325 58.9016833,78.9866846 L58.9016833,84.8887884 C58.9016833,85.1157745 58.7164855,85.3008124 58.4893032,85.3008124" id="Fill-21-Copy"></path>
                    <path d="M55.7562715,82.1317403 C55.5286228,82.1317403 55.3438914,81.9467024 55.3438914,81.7197163 C55.3438914,81.4922641 55.5286228,81.3076923 55.7562715,81.3076923 L61.6630103,81.3076923 C61.890659,81.3076923 62.0758569,81.4922641 62.0758569,81.7197163 C62.0758569,81.9467024 61.890659,82.1317403 61.6630103,82.1317403 L55.7562715,82.1317403 Z" id="Fill-23-Copy"></path>
                    <path d="M94.3287762,6.43863848 C93.6103765,6.43863848 93.0263268,7.02264986 93.0263268,7.74042921 C93.0263268,8.45774246 93.6103765,9.04175384 94.3287762,9.04175384 C95.047176,9.04175384 95.6312256,8.45774246 95.6312256,7.74042921 C95.6312256,7.02264986 95.047176,6.43863848 94.3287762,6.43863848 M94.3287762,9.8271163 C93.1770041,9.8271163 92.239819,8.89120661 92.239819,7.74042921 C92.239819,6.58918571 93.1770041,5.65327602 94.3287762,5.65327602 C95.4805483,5.65327602 96.4177334,6.58918571 96.4177334,7.74042921 C96.4177334,8.89120661 95.4805483,9.8271163 94.3287762,9.8271163" id="Fill-29-Copy"></path>
                    <path d="M12.3557076,42.7279027 C11.3961307,42.7279027 10.6156874,43.5076721 10.6156874,44.4664202 C10.6156874,45.4247023 11.3961307,46.2049377 12.3557076,46.2049377 C13.3152844,46.2049377 14.0957277,45.4247023 14.0957277,44.4664202 C14.0957277,43.5076721 13.3152844,42.7279027 12.3557076,42.7279027 M12.3557076,47.2541074 C10.8172125,47.2541074 9.56561086,46.0035866 9.56561086,44.4664202 C9.56561086,42.9292538 10.8172125,41.678733 12.3557076,41.678733 C13.8942026,41.678733 15.1458043,42.9292538 15.1458043,44.4664202 C15.1458043,46.0035866 13.8942026,47.2541074 12.3557076,47.2541074" id="Fill-33-Copy"></path>
                    <path d="M5.81017461,121.315179 C5.32688751,121.315179 4.93316712,120.925993 4.93316712,120.446852 C4.93316712,119.963516 5.32502153,119.570136 5.80644266,119.570136 C6.2878638,119.570136 6.67971821,119.961652 6.67971821,120.442657 C6.67971821,120.924129 6.28926328,121.315179 5.81017461,121.315179 M9.30747522,122.749805 C9.07702751,122.749805 8.85870862,122.661248 8.69263699,122.500913 C8.35489581,122.157404 8.35209685,121.599494 8.69030452,121.261112 C8.85497667,121.096582 9.07469504,121.005694 9.30840821,121.005694 C9.54118838,121.005694 9.75997376,121.096582 9.92511241,121.261112 C10.2633201,121.599494 10.266119,122.152277 9.93024383,122.492989 C9.75810779,122.65985 9.54118838,122.749805 9.30747522,122.749805 M2.31380699,122.772177 C2.08149331,122.772177 1.86224143,122.68129 1.6961698,122.516294 C1.35656265,122.175582 1.35656265,121.622332 1.6961698,121.282552 C1.85944247,121.116624 2.07776136,121.026202 2.31194102,121.026202 C2.54518769,121.026202 2.76443956,121.11709 2.93051119,121.283018 C3.09611633,121.445684 3.18661604,121.66195 3.18754903,121.894063 C3.18848201,122.128973 3.09704932,122.349899 2.9300447,122.51676 C2.76490606,122.681756 2.54658717,122.772177 2.31380699,122.772177 M10.7703983,126.261797 C10.2889772,126.261797 9.89712281,125.868416 9.89712281,125.384615 C9.89712281,124.893821 10.2866448,124.494848 10.7661999,124.494848 C11.2438891,124.494848 11.6376095,124.883101 11.6436739,125.360378 C11.6436739,125.864688 11.2597499,126.261797 10.7703983,126.261797 M0.877473982,126.270186 C0.39325389,126.270186 0,125.879137 0,125.397665 C0,124.91666 0.391387916,124.52561 0.872809048,124.52561 C1.35423018,124.52561 1.74608459,124.914795 1.74608459,125.39347 C1.74608459,125.877272 1.35656265,126.270186 0.877473982,126.270186 M9.32053703,129.751416 C9.08775685,129.751416 8.86897147,129.660529 8.70383283,129.495533 C8.36655814,129.158083 8.36562516,128.6053 8.70243335,128.263189 C8.86897147,128.100058 9.09008932,128.008704 9.32240301,128.008704 C9.55518319,128.008704 9.77396856,128.098659 9.93770773,128.261791 C10.1047123,128.428651 10.196145,128.649112 10.1952121,128.883556 C10.1942791,129.116135 10.1023799,129.333799 9.93677474,129.496465 C9.77630103,129.662393 9.55891513,129.751416 9.32053703,129.751416 M2.32640231,129.759806 C2.15053432,129.759806 1.98119724,129.707138 1.83705079,129.606928 L1.7806051,129.568243 L1.77547367,129.568243 L1.70689915,129.501592 C1.37195693,129.167405 1.37149043,128.614622 1.70829863,128.272511 C1.87390377,128.106117 2.09455512,128.014297 2.32826828,128.014297 C2.56198145,128.014297 2.78076683,128.105651 2.94450599,128.272045 C3.28644562,128.60763 3.2873786,129.159015 2.94963742,129.50299 C2.77703488,129.66985 2.56011548,129.759806 2.32640231,129.759806 M5.82790136,131.20422 C5.34694672,131.20422 4.95509231,130.812704 4.95509231,130.331699 C4.95509231,129.850227 5.34694672,129.459178 5.82790136,129.459178 C6.30932249,129.459178 6.7011769,129.850227 6.7011769,130.331699 C6.7011769,130.812704 6.30932249,131.20422 5.82790136,131.20422" id="Fill-37-Copy"></path>
                    <path d="M119.396769,118.582147 C118.913482,118.582147 118.519762,118.192961 118.519762,117.71382 C118.519762,117.230484 118.911616,116.837104 119.393037,116.837104 C119.874458,116.837104 120.266313,117.22862 120.266313,117.709625 C120.266313,118.191097 119.875858,118.582147 119.396769,118.582147 M122.89407,120.016773 C122.663622,120.016773 122.445303,119.928216 122.279232,119.767881 C121.94149,119.424372 121.938691,118.866462 122.276899,118.52808 C122.441571,118.36355 122.66129,118.272663 122.895003,118.272663 C123.127783,118.272663 123.346568,118.36355 123.511707,118.52808 C123.849915,118.866462 123.852714,119.419245 123.516838,119.759957 C123.344702,119.926818 123.127783,120.016773 122.89407,120.016773 M115.900402,120.039146 C115.668088,120.039146 115.448836,119.948258 115.282764,119.783262 C114.943157,119.44255 114.943157,118.8893 115.282764,118.549521 C115.446037,118.383592 115.664356,118.293171 115.898536,118.293171 C116.131782,118.293171 116.351034,118.384058 116.517106,118.549987 C116.682711,118.712652 116.773211,118.928918 116.774144,119.161031 C116.775077,119.395941 116.683644,119.616868 116.516639,119.783728 C116.351501,119.948724 116.133182,120.039146 115.900402,120.039146 M124.356993,123.528765 C123.875572,123.528765 123.483717,123.135385 123.483717,122.651583 C123.483717,122.16079 123.873239,121.761816 124.352795,121.761816 C124.830484,121.761816 125.224204,122.15007 125.230268,122.627346 C125.230268,123.131656 124.846344,123.528765 124.356993,123.528765 M114.464069,123.537155 C113.979848,123.537155 113.586595,123.146105 113.586595,122.664633 C113.586595,122.183628 113.977983,121.792578 114.459404,121.792578 C114.940825,121.792578 115.332679,122.181764 115.332679,122.660439 C115.332679,123.144241 114.943157,123.537155 114.464069,123.537155 M122.907132,127.018385 C122.674351,127.018385 122.455566,126.927497 122.290427,126.762501 C121.953153,126.425051 121.95222,125.872268 122.289028,125.530158 C122.455566,125.367026 122.676684,125.275672 122.908998,125.275672 C123.141778,125.275672 123.360563,125.365628 123.524302,125.528759 C123.691307,125.69562 123.78274,125.916081 123.781807,126.150524 C123.780874,126.383103 123.688974,126.600768 123.523369,126.763433 C123.362896,126.929361 123.14551,127.018385 122.907132,127.018385 M115.912997,127.026774 C115.737129,127.026774 115.567792,126.974106 115.423645,126.873897 L115.3672,126.835211 L115.362068,126.835211 L115.293494,126.76856 C114.958552,126.434373 114.958085,125.88159 115.294893,125.53948 C115.460498,125.373085 115.68115,125.281265 115.914863,125.281265 C116.148576,125.281265 116.367361,125.372619 116.531101,125.539013 C116.87304,125.874599 116.873973,126.425984 116.536232,126.769958 C116.363629,126.936819 116.14671,127.026774 115.912997,127.026774 M119.414496,128.471189 C118.933541,128.471189 118.541687,128.079673 118.541687,127.598667 C118.541687,127.117196 118.933541,126.726146 119.414496,126.726146 C119.895917,126.726146 120.287772,127.117196 120.287772,127.598667 C120.287772,128.079673 119.895917,128.471189 119.414496,128.471189" id="Fill-37-Copy-2"></path>
                </g>
            </g>
        </g>
    </g>
</svg>