<?xml version="1.0" encoding="utf-8"?>
<!-- Generator: Adobe Illustrator 16.0.2, SVG Export Plug-In . SVG Version: 6.00 Build 0)  -->
<!DOCTYPE svg PUBLIC "-//W3C//DTD SVG 1.1//EN" "http://www.w3.org/Graphics/SVG/1.1/DTD/svg11.dtd">
<svg version="1.1" id="Layer_1" xmlns="http://www.w3.org/2000/svg" xmlns:xlink="http://www.w3.org/1999/xlink" x="0px" y="0px"
	 width="375px" height="39px" viewBox="0 0 375 39" enable-background="new 0 0 375 39" xml:space="preserve">
<title>waves</title>
<desc>Created with Sketch.</desc>
<g id="Page-1">
	<g id="_x30_1-landingspage-pt-mobile" transform="translate(0.000000, -695.000000)">
		<g id="waves" transform="translate(-276.000000, 686.000000)">
			<g>
				<g id="graph-copy-2" transform="translate(0.000000, 10.797241)">
					<path id="Rectangle" fill="#282834" d="M-67.407-0.161c0.643-0.967,19.305-0.072,32.364,1.346
						C-23.6,2.429-12.2,4.562-1.424,7.441c9.873,2.638,19.795,5.307,26.113,8.423c1.947,0.961,5.033,1.543,6.937,2.517
						c1.493,0.763,4.595,1.47,5.687,2.087c0.722,0.407,2.408,0.668,3.119,0.867c0.346,0.098-0.981,0.265,0,0.265
						c3.168,0,3.44,1.275,5.657,2.235c3.631,1.575,8.986,3.375,14.935,5.275c15.035,4.804,37.321,9.023,50.399,8.937
						c9.651-0.066,25.118-0.736,38.336-2.944c12.435-2.075,22.604-5.591,32.532-8.706c7.108-2.231,12.824-4.932,18.961-7.021
						c7.32-2.496,14.876-4.313,21.117-6.034c3.119-0.859,8.28-1.417,10.914-2.023c1.165-0.267,2.552-0.167,3.587-0.273
						c0.495-0.051,0.307-0.366,1.106-0.389c5.13-0.142,10.309-0.705,15.405-0.842c16.276-0.442,32.614,1.872,47.599,5.563
						c14.866,3.661,28.382,8.68,43.442,12.874c21.098,5.873,44.495,10.261,64.941,9.796c12.68-0.287,26.57-0.956,38.612-2.354
						c14.718-1.711,27.273-4.365,38.924-6.937c10.013-2.209,20.717-4.323,29.239-6.267c3.455-0.786,7.253-1.36,10.349-2.021
						c1.549-0.33,3.248-0.901,5.541-1.093c9.233-0.773,16.689-2.767,25.616-3.511c20.514-1.709,49.624-0.773,75.293,2.805
						c2.311,0.319,4.584,0.42,7.008,0.706c7.554,0.886,14.447,1.963,20.967,3.114c7.55,1.335,16.175,2.053,22.219,3.011
						c3.506,0.558,6.753,1.018,9.336,1.358c1.541,0.201,2.382,0.502,4.186,0.364c1.313-0.099,2.776,0.792,3.958,1.026
						c1.803,0.354,3.304,0.182,5.392,0.507c6.059,0.942,14.841,1.578,22.597,2.574c2.022,0.26,4.054,0.476,6.251,0.672
						c8.185,0.719,15.78,1.188,23.052,1.685c12.996,0.891,22.18,1.576,26.71-0.427c17.068-7.543-10.186-33.815-10.186-33.815v40.19
						H-60.55C-60.55,39.637-79.519,18.098-67.407-0.161z"/>
					<path id="COMMENTS_GRAPH" fill="none" stroke="#282834" stroke-width="4" stroke-linecap="round" stroke-linejoin="round" d="
						M-66.349-0.554c90.122,0,114.158,38.504,181.357,38.504c67.201,0,83.178-28.201,142.257-28.201
						c59.08,0,84.145,28.201,153.153,28.201c69.009,0,105.212-22.817,170.794-22.817c65.583,0,125.475,19.563,209.443,19.563"/>
				</g>
				<g id="graph-copy" transform="translate(18.276511, 0.000000)">
					<path id="Rectangle_1_" fill="#37384D" d="M-63.593-1.471c0.856-1.261,25.745-0.094,43.159,1.756
						c15.26,1.622,30.462,4.404,44.831,8.159c13.167,3.441,26.398,6.921,34.824,10.985c2.596,1.253,6.711,2.012,9.251,3.28
						c1.991,0.995,6.127,1.917,7.583,2.722c0.962,0.533,3.212,0.87,4.159,1.131c0.46,0.126-1.308,0.346,0,0.346
						c4.225,0,4.587,1.663,7.544,2.916c4.84,2.054,11.983,4.4,19.916,6.88c20.051,6.265,49.77,11.769,67.21,11.653
						c12.869-0.085,33.497-0.963,51.123-3.839c16.583-2.708,30.142-7.293,43.384-11.354c9.479-2.908,17.102-6.431,25.284-9.157
						c9.762-3.254,19.839-5.625,28.161-7.869c4.159-1.122,11.042-1.849,14.554-2.638c1.519-0.342,2.45-0.25,3.775-0.391
						c0.679-0.072,1.369-0.443,2.481-0.473c6.842-0.185,13.747-0.919,20.544-1.099c21.705-0.576,43.492,2.442,63.475,7.255
						c19.822,4.774,37.849,11.322,57.931,16.789c28.136,7.661,59.337,13.382,86.602,12.776c10.101-0.225,21.274-0.702,28.615-2.29
						c3.787-0.818,8.937-1.486,12.285-2.451c1.026-0.297,1.693-0.77,3.21-0.942c6.36-0.723,9.555-3.031,14.429-5.303
						c10.166-4.739,20.374-10.887,30.875-13.154c4.004-0.865,5.704-1.766,7.513-2.26c4.224-1.152,5.593-1.393,13.548-3.166
						c4.606-1.026,28.247-1.119,32.373-1.981c7.403-0.031,19.346,0.478,21.886,0.271c12.316-1.006,21.103,3.318,33.008,2.347
						c27.356-2.229,66.176-1.008,100.406,3.657c3.082,0.42,6.111,0.549,9.345,0.921c10.074,1.156,19.268,2.561,27.961,4.063
						c10.068,1.741,21.57,2.675,29.631,3.928c4.673,0.728,9.004,1.327,12.449,1.77c2.055,0.266,3.176,0.657,5.582,0.478
						c1.751-0.129,3.702,1.033,5.277,1.338c2.403,0.463,4.406,0.237,7.189,0.661c8.079,1.231,19.79,2.059,30.136,3.359
						c2.697,0.339,5.405,0.622,8.335,0.874c10.914,0.94,21.044,1.55,30.74,2.199c17.331,1.16,29.576,2.053,35.618-0.558
						c22.764-9.836-13.582-44.102-13.582-44.102v52.417H-54.45C-54.45,50.435-79.745,22.343-63.593-1.471z"/>
					
						<path id="COMMENTS_GRAPH_1_" fill="none" stroke="#37384D" stroke-width="4" stroke-linecap="round" stroke-linejoin="round" d="
						M-62.182-1.982C58-1.982,90.052,48.235,179.666,48.235c89.614,0,110.921-36.781,189.708-36.781
						c78.787,0,112.212,36.781,204.238,36.781c56.777,0,61.684-19.793,104.632-28.469c26.661-5.387,89.631-1.289,123.128-1.289
						c87.457,0,167.327,25.511,279.302,25.511"/>
				</g>
				<g id="graph" transform="translate(10.373155, 19.856995)">
					<path id="Rectangle_2_" fill="#4A4D72" d="M-64.356,1.032C-63.456,0.3-37.285,0.977-18.972,2.05
						c16.047,0.94,32.033,2.554,47.144,4.733c13.846,1.997,27.76,4.015,36.62,6.373c2.73,0.727,7.057,1.166,9.727,1.902
						c2.095,0.577,6.444,1.113,7.977,1.58c1.012,0.309,3.378,0.504,4.374,0.654c0.483,0.073-1.375,0.202,0,0.202
						c4.443,0,4.823,0.965,7.932,1.691c5.091,1.191,12.602,2.554,20.943,3.99c21.085,3.634,52.338,6.826,70.678,6.76
						c13.533-0.049,35.225-0.558,53.76-2.227c17.438-1.569,31.697-4.229,45.621-6.587c9.969-1.687,17.983-3.73,26.588-5.312
						c10.266-1.887,20.861-3.263,29.613-4.563c4.375-0.65,11.61-1.073,15.305-1.532c2.414-0.3,3.123-0.448,6.58-0.499
						c7.195-0.108,14.456-0.534,21.603-0.638c22.824-0.334,45.735,1.416,66.75,4.208c20.844,2.769,39.798,6.565,60.918,9.739
						c29.587,4.444,62.397,7.761,91.068,7.411c17.78-0.217,37.261-0.724,54.148-1.78c20.638-1.292,38.246-3.301,54.583-5.248
						c14.041-1.671,29.052-3.272,41.003-4.741c4.846-0.595,10.172-1.029,14.511-1.53c2.174-0.25,4.557-0.682,7.771-0.827
						c12.952-0.584,23.404-2.092,35.925-2.654c28.768-1.293,69.589-0.585,105.583,2.12c3.24,0.245,6.43,0.319,9.828,0.534
						c10.594,0.672,20.262,1.486,29.403,2.357c10.586,1.012,22.682,1.552,31.158,2.279c4.915,0.42,9.468,0.77,13.092,1.025
						c2.162,0.153,3.34,0.38,5.871,0.277c1.842-0.075,3.894,0.598,5.55,0.776c2.527,0.268,4.633,0.138,7.559,0.383
						c8.497,0.715,20.813,1.194,31.69,1.949c2.836,0.197,5.686,0.36,8.767,0.507c11.477,0.545,22.128,0.9,32.323,1.276
						c18.227,0.674,31.104,1.191,37.456-0.323c23.937-5.707-14.281-25.581-14.281-25.581v30.405H-54.741
						C-54.741,31.141-81.341,14.846-64.356,1.032z"/>
					
						<path id="COMMENTS_GRAPH_2_" fill="none" stroke="#4A4D72" stroke-width="4" stroke-linecap="round" stroke-linejoin="round" d="
						M-62.314,0.735c126.382,0,160.087,29.13,254.323,29.13S308.653,8.53,391.503,8.53s117.999,21.335,214.772,21.335
						c96.772,0,147.541-17.263,239.51-17.263c91.966,0,175.957,14.799,293.71,14.799"/>
				</g>
			</g>
		</g>
	</g>
</g>
</svg>
