<?xml version="1.0" encoding="utf-8"?>
<!-- Generator: Adobe Illustrator 16.0.2, SVG Export Plug-In . SVG Version: 6.00 Build 0)  -->
<!DOCTYPE svg PUBLIC "-//W3C//DTD SVG 1.1//EN" "http://www.w3.org/Graphics/SVG/1.1/DTD/svg11.dtd">
<svg version="1.1" id="Layer_1" xmlns="http://www.w3.org/2000/svg" xmlns:xlink="http://www.w3.org/1999/xlink" x="0px" y="0px"
   width="375px" height="39px" viewBox="0 0 375 39" enable-background="new 0 0 375 39" xml:space="preserve">
<title>waves</title>
<desc>Created with Sketch.</desc>
<g id="Page-1">
  <g id="_x30_1-landingspage-pt-mobile" transform="translate(0.000000, -7159.000000)">
    <g id="waves" transform="translate(-275.000000, 7150.000000)">
      <g>
        <g id="graph-copy-2" transform="translate(0.000000, 10.797241)">
          <path id="Rectangle" fill="#E85639" d="M3.673,2.359C4.24,1.505,20.716,2.295,32.245,3.547
            C42.347,4.645,52.411,6.528,61.924,9.07c8.716,2.329,17.476,4.685,23.053,7.436c1.719,0.848,4.443,1.362,6.124,2.221
            c1.318,0.674,4.057,1.298,5.021,1.843c0.637,0.359,2.126,0.59,2.753,0.766c0.305,0.086-0.866,0.233,0,0.233
            c2.797,0,3.037,1.126,4.994,1.974c3.205,1.391,7.933,2.979,13.185,4.657c13.273,4.241,32.948,7.966,44.494,7.89
            c8.52-0.059,22.175-0.65,33.844-2.6c10.978-1.832,19.955-4.936,28.72-7.686c6.275-1.971,11.321-4.354,16.739-6.199
            c6.462-2.203,13.133-3.808,18.642-5.327c2.754-0.759,7.31-1.251,9.635-1.786c1.028-0.236,2.253-0.147,3.167-0.242
            c0.437-0.045,0.271-0.323,0.976-0.343c4.529-0.125,9.101-0.622,13.6-0.744c14.369-0.39,28.792,1.653,42.021,4.911
            c13.124,3.232,25.056,7.663,38.352,11.365c18.626,5.186,39.282,9.059,57.332,8.648c11.194-0.254,23.457-0.844,34.088-2.078
            c12.993-1.51,24.078-3.854,34.363-6.123c8.839-1.95,18.289-3.817,25.813-5.532c3.051-0.694,6.403-1.201,9.137-1.785
            c1.367-0.291,2.867-0.796,4.892-0.965c8.151-0.683,14.733-2.442,22.614-3.099c18.11-1.509,43.81-0.683,66.471,2.475
            c2.04,0.283,4.047,0.372,6.187,0.624c6.669,0.782,12.755,1.733,18.511,2.75c6.665,1.178,14.279,1.812,19.615,2.657
            c3.095,0.492,5.961,0.898,8.241,1.199c1.361,0.178,2.104,0.443,3.695,0.322c1.159-0.088,2.451,0.699,3.494,0.905
            c1.592,0.313,2.917,0.161,4.76,0.448c5.349,0.832,13.103,1.393,19.949,2.272c1.785,0.229,3.579,0.42,5.519,0.593
            c7.226,0.635,13.932,1.049,20.351,1.487c11.474,0.786,19.581,1.392,23.58-0.377c15.068-6.659-8.992-29.853-8.992-29.853V37.49
            H9.726C9.726,37.494-7.02,18.478,3.673,2.359z"/>
          <path id="COMMENTS_GRAPH" fill="none" stroke="#E85639" stroke-width="4" stroke-linecap="round" stroke-linejoin="round" d="
            M4.607,2.012c79.562,0,100.781,33.992,160.107,33.992c59.326,0,73.431-24.896,125.588-24.896
            c52.157,0,74.285,24.896,135.207,24.896c60.923,0,92.884-20.144,150.781-20.144c57.898,0,110.772,17.271,184.902,17.271"/>
        </g>
        <g id="graph-copy" transform="translate(18.276511, 0.000000)">
          <path id="Rectangle_1_" fill="#FF876F" d="M4.898,2.468C5.654,1.354,27.626,2.385,43,4.018
            c13.472,1.432,26.893,3.888,39.578,7.203c11.624,3.038,23.305,6.11,30.743,9.698c2.292,1.106,5.925,1.776,8.167,2.896
            c1.758,0.878,5.41,1.692,6.695,2.403c0.849,0.47,2.836,0.768,3.672,0.998c0.406,0.111-1.155,0.305,0,0.305
            c3.73,0,4.049,1.468,6.66,2.575c4.273,1.813,10.579,3.885,17.582,6.073c17.701,5.531,43.938,10.39,59.335,10.288
            c11.361-0.075,29.572-0.85,45.133-3.389c14.64-2.391,26.61-6.438,38.3-10.024c8.369-2.567,15.098-5.677,22.322-8.084
            c8.618-2.873,17.514-4.966,24.861-6.947c3.672-0.99,9.748-1.632,12.849-2.329c1.341-0.302,2.163-0.22,3.333-0.345
            c0.599-0.064,1.209-0.392,2.191-0.418c6.04-0.163,12.136-0.811,18.137-0.97c19.161-0.508,38.396,2.156,56.037,6.405
            c17.5,4.215,33.414,9.996,51.143,14.822c24.839,6.764,52.384,11.813,76.454,11.279c8.917-0.198,18.781-0.62,25.262-2.021
            c3.344-0.723,7.89-1.313,10.846-2.164c0.906-0.262,1.495-0.68,2.834-0.832c5.615-0.638,8.436-2.676,12.738-4.682
            c8.975-4.184,17.986-9.611,27.257-11.613c3.535-0.763,5.036-1.559,6.633-1.995c3.729-1.017,4.938-1.23,11.96-2.795
            c4.067-0.906,24.938-0.988,28.58-1.749c6.536-0.028,17.079,0.422,19.321,0.239c10.873-0.889,18.63,2.929,29.141,2.072
            c24.15-1.968,58.421-0.89,88.641,3.228c2.721,0.371,5.396,0.485,8.25,0.813c8.894,1.021,17.01,2.261,24.685,3.587
            c8.889,1.537,19.043,2.361,26.159,3.467c4.125,0.643,7.948,1.172,10.99,1.563c1.813,0.234,2.804,0.58,4.928,0.422
            c1.546-0.114,3.269,0.912,4.659,1.181c2.122,0.409,3.89,0.21,6.347,0.584c7.133,1.087,17.472,1.817,26.604,2.966
            c2.382,0.299,4.772,0.549,7.358,0.771c9.636,0.83,18.578,1.368,27.139,1.941c15.3,1.024,26.11,1.813,31.444-0.492
            c20.097-8.684-11.99-38.934-11.99-38.934v46.275H12.97C12.97,48.291-9.361,23.491,4.898,2.468z"/>
          
            <path id="COMMENTS_GRAPH_1_" fill="none" stroke="#FF876F" stroke-width="4" stroke-linecap="round" stroke-linejoin="round" d="
            M6.144,2.016c106.1,0,134.396,44.333,213.51,44.333c79.114,0,97.924-32.472,167.479-32.472S486.197,46.35,567.439,46.35
            c50.125,0,54.456-17.474,92.372-25.134c23.537-4.756,79.128-1.138,108.7-1.138c77.209,0,147.721,22.521,246.575,22.521"/>
        </g>
        <g id="graph" transform="translate(10.373155, 19.856995)">
          <path id="Rectangle_2_" fill="#F86B4F" d="M5.151,2.35C5.945,1.704,29.05,2.302,45.217,3.249
            c14.167,0.83,28.28,2.255,41.62,4.178c12.223,1.762,24.507,3.544,32.329,5.626c2.41,0.642,6.23,1.029,8.587,1.68
            c1.849,0.51,5.689,0.982,7.042,1.395c0.893,0.272,2.982,0.445,3.861,0.578c0.427,0.064-1.214,0.179,0,0.179
            c3.923,0,4.258,0.852,7.003,1.493c4.494,1.052,11.125,2.254,18.489,3.522c18.614,3.208,46.205,6.026,62.396,5.968
            c11.947-0.043,31.097-0.492,47.461-1.966c15.395-1.386,27.983-3.733,40.275-5.815c8.801-1.488,15.876-3.293,23.473-4.688
            c9.063-1.666,18.417-2.881,26.143-4.028c3.862-0.574,10.25-0.947,13.511-1.352c2.131-0.264,2.757-0.396,5.809-0.441
            c6.352-0.095,12.762-0.471,19.072-0.563c20.15-0.295,40.376,1.25,58.929,3.715c18.401,2.444,35.135,5.797,53.78,8.599
            c26.12,3.924,55.086,6.852,80.397,6.543c15.697-0.191,32.895-0.64,47.804-1.572c18.22-1.141,33.765-2.914,48.188-4.633
            c12.396-1.476,25.647-2.889,36.198-4.186c4.277-0.525,8.979-0.909,12.811-1.352c1.919-0.221,4.022-0.602,6.859-0.729
            c11.435-0.516,20.662-1.847,31.716-2.344c25.396-1.142,61.435-0.517,93.211,1.872c2.861,0.216,5.677,0.281,8.677,0.472
            c9.353,0.593,17.888,1.312,25.958,2.081c9.346,0.893,20.024,1.37,27.508,2.012c4.339,0.371,8.358,0.68,11.558,0.905
            c1.908,0.136,2.948,0.336,5.183,0.245c1.626-0.066,3.438,0.527,4.899,0.686c2.231,0.236,4.091,0.121,6.674,0.338
            c7.501,0.631,18.373,1.055,27.977,1.721c2.504,0.174,5.02,0.318,7.739,0.447c10.132,0.481,19.535,0.795,28.536,1.127
            c16.091,0.595,27.459,1.052,33.067-0.285c21.132-5.038-12.608-22.584-12.608-22.584v26.843H13.639
            C13.639,28.931-9.844,14.545,5.151,2.35z"/>
          
            <path id="COMMENTS_GRAPH_2_" fill="none" stroke="#F86B4F" stroke-width="4" stroke-linecap="round" stroke-linejoin="round" d="
            M6.954,2.088c111.573,0,141.329,25.716,224.523,25.716S334.453,8.969,407.595,8.969s104.172,18.835,189.606,18.835
            s130.253-15.239,211.445-15.239c81.19,0,155.34,13.064,259.295,13.064"/>
        </g>
      </g>
    </g>
  </g>
</g>
</svg>
