<?xml version="1.0" encoding="UTF-8"?>
<svg width="375px" height="106px" viewBox="0 0 375 106" version="1.1" xmlns="http://www.w3.org/2000/svg" xmlns:xlink="http://www.w3.org/1999/xlink">
    <!-- Generator: Sketch 42 (36781) - http://www.bohemiancoding.com/sketch -->
    <title>Group 3</title>
    <desc>Created with Sketch.</desc>
    <defs></defs>
    <g id="Page-1" stroke="none" stroke-width="1" fill="none" fill-rule="evenodd">
        <g id="02-landingspage-mob-menu" transform="translate(0.000000, -561.000000)">
            <g id="Group-3" transform="translate(-53.000000, 560.000000)">
                <g id="header">
                    <g id="waves">
                        <g id="graph-copy-2" transform="translate(0.000000, 15.391812)">
                            <path d="M2.96516683,0.511304281 C3.42234985,-0.705810207 16.7225522,0.420375588 26.0287412,2.20592601 C34.1837756,3.77060786 42.3075642,6.45520511 49.9865467,10.0788629 C57.0224902,13.399075 64.0936161,16.7573895 68.5959143,20.6795305 C69.9833522,21.8881859 72.1823336,22.62056 73.5392041,23.8453642 C74.6033781,24.8059603 76.8137817,25.6949052 77.5922983,26.4726897 C78.1061108,26.9860191 79.3087983,27.3120289 79.8149628,27.5626198 C80.0606804,27.6842692 79.1158116,27.8961203 79.8149628,27.8961203 C82.0730559,27.8961203 82.265984,29.500336 83.8462661,30.710374 C86.4328948,32.6909818 90.2500051,34.9569574 94.4890682,37.3490683 C105.203934,43.3954863 121.085946,48.7048391 130.406003,48.5941378 C137.283121,48.5124531 148.306648,47.6670193 157.726053,44.8904417 C166.587596,42.2783063 173.833937,37.8538906 180.90988,33.9330286 C185.975725,31.1259855 190.048707,27.7284807 194.421808,25.0963548 C199.638449,21.9565111 205.023348,19.6682505 209.470393,17.5033658 C211.693561,16.4210959 215.370959,15.7199669 217.248105,14.9580433 C218.077763,14.6212891 219.067436,14.7484838 219.804539,14.6125789 C220.157268,14.5475438 220.023209,14.1517666 220.591786,14.1241306 C224.248174,13.9464097 227.938033,13.2377999 231.570329,13.0639024 C243.169142,12.508605 254.812218,15.4205713 265.490578,20.0648306 C276.08418,24.672227 285.716129,30.9887455 296.448889,36.2655952 C311.484471,43.6579624 328.158248,49.1771022 342.728574,48.5941378 C351.764631,48.2326016 361.663286,47.3923931 370.245548,45.6323432 C380.733783,43.4814163 389.681563,40.1401686 397.984465,36.9038629 C405.119156,34.122903 412.74784,31.460709 418.82134,29.0173665 C421.283531,28.0268379 423.98969,27.304064 426.195518,26.4726897 C427.299619,26.056555 428.511054,25.3375371 430.143693,25.0963548 C436.725269,24.1240884 442.037711,21.6157219 448.400372,20.6795305 C463.019026,18.5285662 483.763572,19.7065573 502.055849,24.207598 C503.702776,24.6128448 505.322753,24.7380997 507.049984,25.0963548 C512.433655,26.2130142 517.346424,27.5675832 521.992036,29.0173665 C527.371934,30.6963029 533.519478,31.5983265 537.826704,32.8069397 C540.324016,33.5076884 542.638127,34.0870154 544.479364,34.5144753 C545.577936,34.769519 546.176546,35.1475189 547.462286,34.9755002 C548.398103,34.8502976 549.440581,35.9722346 550.282988,36.2655952 C551.567552,36.7129331 552.637524,36.4948688 554.12463,36.9038629 C558.442211,38.0913137 564.700576,38.8906186 570.228052,40.1445969 C571.669801,40.4716759 573.117417,40.7449772 574.683066,40.9885179 C580.51515,41.8957132 585.928586,42.4840254 591.110123,43.1109114 C600.371625,44.2314101 606.916178,45.0925336 610.144815,42.573049 C622.308889,33.0807481 602.886048,0.0173490037 602.886048,0.0173490037 L602.886048,50.5983694 L7.85115484,50.5983694 C7.85115484,50.5983694 -5.66644334,23.4904115 2.96516683,0.511304281 Z" id="Rectangle" fill="#282834"></path>
                            <path d="M3.71896808,0.0173490037 C67.9436932,0.0173503678 85.072093,48.4746847 132.961651,48.4746847 C180.851208,48.4746847 192.237295,12.9828681 234.340198,12.9828681 C276.443101,12.9828681 294.30561,48.4746847 343.483554,48.4746847 C392.661499,48.4746847 418.461259,19.7594179 465.19792,19.7594179 C511.934581,19.7594179 554.616395,44.37647 614.456171,44.37647" id="COMMENTS_GRAPH" stroke="#282834" stroke-width="4" stroke-linecap="round" stroke-linejoin="round"></path>
                        </g>
                        <g id="graph-copy" transform="translate(14.753328, 0.000000)">
                            <path d="M3.95419716,0.666840898 C4.56387343,-0.920514711 22.3003535,0.548252078 34.7106186,2.87695945 C45.5857617,4.91761095 56.4192371,8.41885142 66.6595415,13.1448107 C76.0423214,17.4750175 85.4720189,21.8549171 91.4760571,26.970157 C93.3262743,28.5464802 96.2587252,29.5016395 98.0681794,31.0990239 C99.4873082,32.3518293 102.434991,33.5111875 103.473182,34.5255708 C104.158376,35.1950529 105.76222,35.6202334 106.437215,35.947053 C106.764892,36.1057077 105.504862,36.382003 106.437215,36.382003 C109.448494,36.382003 109.705774,38.4742145 111.813158,40.0523409 C115.262556,42.6354414 120.352862,45.5907172 126.005863,48.7104982 C140.294668,56.5962111 161.474121,63.5206468 173.902879,63.3762706 C183.073857,63.2697378 197.774277,62.1671265 210.335521,58.5459258 C222.152829,55.1391897 231.816184,49.3688853 241.252306,44.2553135 C248.007862,40.5943797 253.439385,36.1633681 259.271133,32.7305607 C266.227782,28.6355897 273.408812,25.6512498 279.339168,22.8278163 C282.303873,21.4163244 287.207866,20.5019148 289.711132,19.5082174 C290.793542,19.0785438 291.456647,19.1955084 292.401552,19.0172357 C292.884674,18.9260863 293.377527,18.4583073 294.170098,18.4206319 C299.046072,18.1888491 303.966682,17.2646831 308.810529,17.0378867 C324.278122,16.3136702 339.804743,20.1114444 354.044866,26.1684679 C368.17196,32.177415 381.016641,40.4153919 395.32931,47.2974371 C415.380005,56.9385314 437.615314,64.1365704 457.045567,63.3762706 C464.24297,63.0946384 472.206868,62.4925459 477.436896,60.4964128 C480.136097,59.466215 483.806194,58.623409 486.192401,57.4093428 C486.923492,57.0373752 487.39878,56.4418647 488.479697,56.2250697 C493.012911,55.3158621 495.288362,52.4111912 498.762402,49.5513779 C506.007014,43.5876467 513.281401,35.8495334 520.765062,32.9967598 C523.618723,31.9089434 524.830222,30.7746775 526.119218,30.1537007 C529.127896,28.7042629 530.103735,28.399313 535.773832,26.1684679 C539.057286,24.8766247 555.903017,24.76045 558.844598,23.6761751 C564.120222,23.6362899 572.631196,24.2778246 574.440962,24.016361 C583.217821,22.7483351 589.479231,28.1911338 597.964156,26.970157 C617.458857,24.1648783 645.122738,25.7012093 669.516398,31.5714478 C671.712657,32.099969 673.872978,32.2633258 676.176325,32.7305607 C683.355718,34.1869031 689.907139,35.9535263 696.102293,37.8443276 C703.276654,40.0339895 711.474709,41.2104049 717.21861,42.7866731 C720.548898,43.7005866 723.634881,44.4561425 726.090261,45.0136339 C727.555262,45.3462608 728.353538,45.8392467 730.068136,45.6149007 C731.316095,45.4516119 732.70629,46.9148375 733.829682,47.2974371 C735.542712,47.8808533 736.969573,47.5964548 738.952703,48.1298631 C744.710411,49.6785315 753.056251,50.7209815 760.427416,52.3564149 C762.350059,52.7829899 764.280527,53.1394283 766.368398,53.4570531 C774.145771,54.6402134 781.364856,55.4074877 788.274693,56.2250697 C800.625367,57.6864194 809.352852,58.8094931 813.6584,55.5235918 C829.879797,43.1437728 803.978474,0.0226264979 803.978474,0.0226264979 L803.978474,65.9901811 L10.4699047,65.9901811 C10.4699047,65.9901811 -7.5564835,30.6360961 3.95419716,0.666840898 Z" id="Rectangle" fill="#37384D"></path>
                            <path d="M4.95942856,0.0226264979 C90.6062878,0.0226282769 113.447859,63.2204804 177.310962,63.2204804 C241.174064,63.2204804 256.357977,16.932202 312.504287,16.932202 C368.650598,16.932202 392.471141,63.2204804 458.052371,63.2204804 C498.514929,63.2204804 502.01132,38.3124816 532.61819,27.3917855 C551.618569,20.6123479 596.492784,25.7701499 620.36452,25.7701499 C682.690177,25.7701499 739.608496,57.875606 819.407807,57.875606" id="COMMENTS_GRAPH" stroke="#37384D" stroke-width="4" stroke-linecap="round" stroke-linejoin="round"></path>
                        </g>
                        <g id="graph" transform="translate(8.373510, 28.306780)">
                            <path d="M4.15816062,0.49874393 C4.7992849,-0.422038702 23.4506394,0.42995372 36.5010447,1.78077473 C47.9371441,2.96450221 59.3294264,4.99547838 70.0979412,7.73688123 C79.9646991,10.2487186 89.8807946,12.7893816 96.1945301,15.7565957 C98.1401843,16.6709788 101.223895,17.2250412 103.126684,18.1516412 C104.619014,18.8783602 107.718743,19.550873 108.810484,20.1392897 C109.531022,20.5276383 111.217595,20.7742743 111.927407,20.9638536 C112.271986,21.0558849 110.946962,21.2161565 111.927407,21.2161565 C115.094013,21.2161565 115.364563,22.4297925 117.58065,23.3452215 C121.207973,24.8436092 126.560844,26.5578858 132.505436,28.3675876 C147.531279,32.9418792 169.803199,36.9585595 182.873052,36.8748108 C192.517083,36.8130139 207.975772,36.1734186 221.184945,34.0728566 C233.611807,32.0966999 243.773613,28.7495003 253.696464,25.7832538 C260.800481,23.6596438 266.512171,21.0893322 272.644729,19.0980522 C279.960213,16.7226688 287.511651,14.9915329 293.747903,13.3537344 C296.865533,12.5349656 302.022481,12.0045411 304.65487,11.4281237 C306.375085,11.051446 306.880291,10.8618425 309.343835,10.7972443 C314.471319,10.6627933 319.645742,10.1267093 324.739442,9.99515076 C341.004877,9.57505209 357.332384,11.7780395 372.307034,15.2915573 C387.162825,18.7771871 400.670054,23.5558177 415.720992,27.5479085 C436.805932,33.14045 460.188172,37.3158404 480.620667,36.8748108 C493.292257,36.6012981 507.173499,35.9656558 519.208714,34.6341267 C533.916745,33.0068877 546.46454,30.4791364 558.108001,28.0307766 C568.113236,25.9268993 578.811215,23.9128718 587.328303,22.0644119 C590.781122,21.3150481 594.576068,20.7682486 597.66938,20.1392897 C599.217701,19.8244716 600.91654,19.2805136 603.206048,19.0980522 C612.435631,18.3625042 619.885459,16.4648518 628.808049,15.7565957 C649.308316,14.1293284 678.399142,15.020513 704.051064,18.4256817 C706.360609,18.7322628 708.632362,18.8270217 711.05452,19.0980522 C718.604237,19.9428376 725.49359,20.9676086 732.008299,22.0644119 C739.552725,23.3345764 748.173648,24.0169835 754.213828,24.9313347 C757.715898,25.4614715 760.961059,25.8997493 763.543092,26.2231352 C765.08366,26.4160832 765.923112,26.7020512 767.726152,26.571914 C769.038482,26.4771946 770.500386,27.3259727 771.681724,27.5479085 C773.483115,27.8863327 774.983576,27.7213607 777.068998,28.0307766 C783.123698,28.9291178 791.900028,29.5338153 799.651409,30.4824865 C801.673225,30.7299313 803.703269,30.9366917 805.898836,31.1209374 C814.077378,31.8072571 821.668834,32.2523325 828.935091,32.72659 C841.922831,33.5742799 851.100493,34.225745 855.628128,32.3196813 C872.686249,25.1384787 845.448897,0.125052347 845.448897,0.125052347 L845.448897,38.3910705 L11.0099582,38.3910705 C11.0099582,38.3910705 -7.94625832,17.8831092 4.15816062,0.49874393 Z" id="Rectangle" fill="#4A4D72"></path>
                            <path d="M5.61398196,0.125052347 C95.6786353,0.125053379 119.69841,36.784441 186.855667,36.784441 C254.012925,36.784441 269.980046,9.93384591 329.022469,9.93384591 C388.064891,9.93384591 413.114133,36.784441 482.078142,36.784441 C551.042151,36.784441 587.222087,15.0605036 652.762596,15.0605036 C718.303105,15.0605036 778.157356,33.684022 862.072837,33.684022" id="COMMENTS_GRAPH" stroke="#4A4D72" stroke-width="4" stroke-linecap="round" stroke-linejoin="round"></path>
                        </g>
                    </g>
                </g>
                <rect id="Rectangle-2" fill="#4A4D72" x="35" y="66" width="465" height="77"></rect>
            </g>
        </g>
    </g>
</svg>