<?xml version="1.0" encoding="utf-8"?>
<!-- Generator: Adobe Illustrator 16.0.2, SVG Export Plug-In . SVG Version: 6.00 Build 0)  -->
<!DOCTYPE svg PUBLIC "-//W3C//DTD SVG 1.1//EN" "http://www.w3.org/Graphics/SVG/1.1/DTD/svg11.dtd">
<svg version="1.1" id="Layer_1" xmlns="http://www.w3.org/2000/svg" xmlns:xlink="http://www.w3.org/1999/xlink" x="0px" y="0px"
   width="1440px" height="76px" viewBox="0 0 1440 76" enable-background="new 0 0 1440 76" xml:space="preserve">
<title>header copy 2</title>
<desc>Created with Sketch.</desc>
<g id="Page-1">
  <g id="_x30_1-landingspage-pt-v2_x40_2x-copy" transform="translate(0.000000, -5443.000000)">
    <g id="Group-4-Copy-2" transform="translate(-300.000000, 5421.000000)">
      <g id="header-copy-2">
        <g id="waves">
          <g id="graph-copy-2" transform="translate(0.000000, 22.472249)">
            <g id="Rectangle">
              <g>
                <path id="path-1" fill="#FF876F" d="M9.242,1.746c1.425-1.777,42.879-0.133,71.884,2.474
                  c25.418,2.285,50.738,6.204,74.672,11.495c21.929,4.848,43.969,9.751,58.001,15.477c4.324,1.765,11.178,2.834,15.407,4.622
                  c3.317,1.403,10.206,2.701,12.632,3.836c1.602,0.749,5.35,1.225,6.928,1.591c0.766,0.178-2.179,0.487,0,0.487
                  c7.038,0,7.639,2.342,12.565,4.108c8.062,2.892,19.959,6.2,33.171,9.692c33.396,8.828,82.897,16.58,111.945,16.418
                  c21.435-0.119,55.792-1.354,85.151-5.407c27.62-3.813,50.205-10.273,72.259-15.998c15.789-4.099,28.484-9.059,42.114-12.901
                  c16.259-4.584,33.042-7.925,46.903-11.086c6.929-1.58,18.391-2.604,24.241-3.716c2.586-0.492,5.67-0.306,7.968-0.504
                  c1.1-0.095,0.682-0.673,2.454-0.713c11.396-0.26,22.896-1.294,34.218-1.548c36.15-0.811,72.439,3.44,105.722,10.221
                  c33.019,6.727,63.039,15.95,96.491,23.653c46.862,10.793,98.831,18.852,144.244,18c28.163-0.527,59.016-1.754,85.765-4.324
                  c32.689-3.141,60.578-8.019,86.456-12.743c22.237-4.061,46.015-7.947,64.944-11.515c7.674-1.446,16.108-2.502,22.983-3.715
                  c3.441-0.607,7.218-1.658,12.306-2.01c20.514-1.419,37.071-5.082,56.902-6.449c45.563-3.14,110.22-1.42,167.233,5.151
                  c5.133,0.592,10.183,0.775,15.565,1.298c16.78,1.631,32.092,3.607,46.571,5.725c16.769,2.451,35.929,3.769,49.354,5.533
                  c7.783,1.023,14.996,1.869,20.735,2.492c3.424,0.373,5.289,0.925,9.297,0.674c2.916-0.184,6.166,1.455,8.791,1.883
                  c4.004,0.654,7.339,0.336,11.974,0.933c13.457,1.733,32.963,2.9,50.191,4.731c4.493,0.478,9.005,0.877,13.886,1.232
                  c18.177,1.324,35.05,2.184,51.199,3.098c28.866,1.637,49.264,2.895,59.327-0.785c37.913-13.858-22.624-62.131-22.624-62.131
                  v73.849H24.47C24.47,74.874-17.661,35.296,9.242,1.746z"/>
              </g>
              <g>
                <path id="path-1_1_" fill="#E85639" d="M9.242,1.746c1.425-1.777,42.879-0.133,71.884,2.474
                  c25.418,2.285,50.738,6.204,74.672,11.495c21.929,4.848,43.969,9.751,58.001,15.477c4.324,1.765,11.178,2.834,15.407,4.622
                  c3.317,1.403,10.206,2.701,12.632,3.836c1.602,0.749,5.35,1.225,6.928,1.591c0.766,0.178-2.179,0.487,0,0.487
                  c7.038,0,7.639,2.342,12.565,4.108c8.062,2.892,19.959,6.2,33.171,9.692c33.396,8.828,82.897,16.58,111.945,16.418
                  c21.435-0.119,55.792-1.354,85.151-5.407c27.62-3.813,50.205-10.273,72.259-15.998c15.789-4.099,28.484-9.059,42.114-12.901
                  c16.259-4.584,33.042-7.925,46.903-11.086c6.929-1.58,18.391-2.604,24.241-3.716c2.586-0.492,5.67-0.306,7.968-0.504
                  c1.1-0.095,0.682-0.673,2.454-0.713c11.396-0.26,22.896-1.294,34.218-1.548c36.15-0.811,72.439,3.44,105.722,10.221
                  c33.019,6.727,63.039,15.95,96.491,23.653c46.862,10.793,98.831,18.852,144.244,18c28.163-0.527,59.016-1.754,85.765-4.324
                  c32.689-3.141,60.578-8.019,86.456-12.743c22.237-4.061,46.015-7.947,64.944-11.515c7.674-1.446,16.108-2.502,22.983-3.715
                  c3.441-0.607,7.218-1.658,12.306-2.01c20.514-1.419,37.071-5.082,56.902-6.449c45.563-3.14,110.22-1.42,167.233,5.151
                  c5.133,0.592,10.183,0.775,15.565,1.298c16.78,1.631,32.092,3.607,46.571,5.725c16.769,2.451,35.929,3.769,49.354,5.533
                  c7.783,1.023,14.996,1.869,20.735,2.492c3.424,0.373,5.289,0.925,9.297,0.674c2.916-0.184,6.166,1.455,8.791,1.883
                  c4.004,0.654,7.339,0.336,11.974,0.933c13.457,1.733,32.963,2.9,50.191,4.731c4.493,0.478,9.005,0.877,13.886,1.232
                  c18.177,1.324,35.05,2.184,51.199,3.098c28.866,1.637,49.264,2.895,59.327-0.785c37.913-13.858-22.624-62.131-22.624-62.131
                  v73.849H24.47C24.47,74.874-17.661,35.296,9.242,1.746z"/>
              </g>
            </g>
            <path id="COMMENTS_GRAPH" fill="none" stroke="#E85639" stroke-width="4" stroke-linecap="round" stroke-linejoin="round" d="
              M11.591,1.025c200.175,0,253.561,70.749,402.822,70.749c149.262,0,184.75-51.819,315.976-51.819
              s186.899,51.819,340.177,51.819s233.69-41.925,379.358-41.925c145.669,0,278.699,35.941,465.207,35.941"/>
          </g>
          <g id="graph-copy" transform="translate(45.983051, 0.000000)">
            <path id="Rectangle_1_" fill="#FF876F" d="M12.325,1.974c1.9-2.317,57.181-0.173,95.861,3.227
              c33.896,2.979,67.661,8.091,99.578,14.991c29.244,6.322,58.634,12.717,77.348,20.186c5.767,2.301,14.907,3.696,20.546,6.028
              c4.423,1.83,13.61,3.522,16.846,5.003c2.136,0.978,7.135,1.598,9.238,2.076c1.021,0.231-2.906,0.635,0,0.635
              c9.386,0,10.188,3.055,16.756,5.359c10.751,3.771,26.616,8.085,44.236,12.641c44.535,11.513,110.547,21.623,149.285,21.412
              c28.584-0.155,74.402-1.766,113.553-7.052c36.832-4.975,66.951-13.399,96.361-20.865
              c21.056-5.345,37.984-11.814,56.161-16.826c21.683-5.979,44.064-10.336,62.548-14.458c9.24-2.061,24.525-3.396,32.327-4.847
              c3.374-0.627,5.44-0.457,8.386-0.717c1.506-0.133,3.042-0.816,5.512-0.871c15.197-0.338,30.534-1.688,45.632-2.019
              c48.209-1.057,96.603,4.487,140.985,13.331c44.031,8.773,84.065,20.801,128.676,30.849
              c62.493,14.076,131.796,24.586,192.356,23.476c22.433-0.411,47.255-1.29,63.556-4.204c8.412-1.505,19.852-2.735,27.289-4.508
              c2.278-0.543,3.76-1.412,7.129-1.729c14.129-1.328,21.221-5.568,32.049-9.744c22.58-8.707,45.253-20.005,68.578-24.17
              c8.894-1.588,12.67-3.244,16.688-4.151c9.377-2.116,12.419-2.562,30.092-5.819c10.233-1.886,62.738-2.056,71.906-3.639
              c16.443-0.058,42.97,0.878,48.61,0.497c27.356-1.852,46.872,6.095,73.317,4.313c60.761-4.096,146.983-1.853,223.014,6.718
              c6.845,0.771,13.578,1.01,20.757,1.692c22.377,2.126,42.797,4.706,62.105,7.466c22.361,3.197,47.913,4.915,65.815,7.215
              c10.38,1.335,19.998,2.438,27.65,3.252c4.566,0.485,7.055,1.205,12.398,0.878c3.89-0.239,8.223,1.897,11.725,2.456
              c5.339,0.852,9.786,0.437,15.967,1.216c17.945,2.261,43.958,3.782,66.933,6.171c5.992,0.623,12.009,1.143,18.517,1.606
              c24.24,1.728,46.741,2.848,68.277,4.042c38.494,2.133,65.696,3.773,79.116-1.024c50.559-18.075-30.171-81.032-30.171-81.032
              v96.313H32.633C32.633,97.347-23.552,45.729,12.325,1.974z"/>
            
              <path id="COMMENTS_GRAPH_1_" fill="none" stroke="#FF876F" stroke-width="4" stroke-linecap="round" stroke-linejoin="round" d="
              M15.457,1.033c266.943,0,338.136,92.27,537.184,92.27s246.373-67.582,421.37-67.582c174.996,0,249.24,67.582,453.643,67.582
              c126.113,0,137.011-36.366,232.406-52.311c59.221-9.898,199.084-2.367,273.487-2.367c194.256,0,371.658,46.874,620.376,46.874
              "/>
          </g>
          <g id="graph" transform="translate(26.098488, 41.328275)">
            <path id="Rectangle_2_" fill="#F86B4F" d="M12.96,1.728C14.958,0.384,73.091,1.628,113.766,3.6
              c35.644,1.728,71.151,4.693,104.714,8.696c30.753,3.667,61.659,7.377,81.338,11.709c6.064,1.335,15.675,2.144,21.606,3.497
              c4.651,1.061,14.313,2.043,17.715,2.902c2.246,0.566,7.502,0.927,9.715,1.203c1.074,0.135-3.056,0.369,0,0.369
              c9.87,0,10.713,1.771,17.62,3.107c11.306,2.188,27.99,4.691,46.518,7.333c46.833,6.679,116.25,12.543,156.985,12.421
              c30.058-0.09,78.24-1.023,119.411-4.091c38.731-2.886,70.403-7.772,101.331-12.103c22.142-3.102,39.944-6.854,59.058-9.761
              c22.801-3.468,46.338-5.996,65.774-8.388c9.717-1.195,25.79-1.969,33.995-2.811c5.361-0.55,6.936-0.827,14.614-0.921
              c15.981-0.196,32.108-0.979,47.985-1.171c50.695-0.613,101.585,2.603,148.258,7.733
              c46.303,5.089,88.401,12.066,135.313,17.895c65.717,8.165,138.595,14.262,202.278,13.617
              c39.495-0.399,82.76-1.328,120.271-3.271c45.842-2.376,84.95-6.066,121.241-9.641c31.184-3.072,64.527-6.013,91.073-8.711
              c10.762-1.095,22.59-1.893,32.23-2.811c4.826-0.46,10.121-1.254,17.257-1.521c28.767-1.074,51.986-3.845,79.796-4.879
              c63.896-2.376,154.565-1.075,234.517,3.897c7.198,0.447,14.278,0.586,21.828,0.981c23.53,1.233,45.003,2.729,65.309,4.331
              c23.514,1.854,50.384,2.851,69.21,4.186c10.915,0.773,21.029,1.414,29.077,1.886c4.802,0.282,7.418,0.699,13.038,0.509
              c4.09-0.138,8.646,1.102,12.328,1.426c5.615,0.494,10.291,0.253,16.791,0.705c18.871,1.311,46.226,2.194,70.385,3.579
              c6.302,0.361,12.629,0.663,19.472,0.933c25.491,1.002,49.152,1.651,71.8,2.344c40.479,1.238,69.084,2.189,83.196-0.594
              c53.167-10.484-31.727-47.005-31.727-47.005v55.869H34.316C34.316,57.052-24.767,27.109,12.96,1.728z"/>
            
              <path id="COMMENTS_GRAPH_2_" fill="none" stroke="#F86B4F" stroke-width="4" stroke-linecap="round" stroke-linejoin="round" d="
              M17.498,1.182c280.713,0,355.577,53.523,564.892,53.523c209.315,0,259.082-39.202,443.104-39.202
              c184.023,0,262.097,39.202,477.043,39.202s327.712-31.718,531.987-31.718c204.276,0,390.83,27.191,652.377,27.191"/>
          </g>
        </g>
      </g>
    </g>
  </g>
</g>
</svg>
