<?xml version="1.0" encoding="utf-8"?>
<!-- Generator: Adobe Illustrator 16.0.2, SVG Export Plug-In . SVG Version: 6.00 Build 0)  -->
<!DOCTYPE svg PUBLIC "-//W3C//DTD SVG 1.1//EN" "http://www.w3.org/Graphics/SVG/1.1/DTD/svg11.dtd">
<svg version="1.1" id="Layer_1" xmlns="http://www.w3.org/2000/svg" xmlns:xlink="http://www.w3.org/1999/xlink" x="0px" y="0px"
   width="1440px" height="88px" viewBox="0 0 1440 88" enable-background="new 0 0 1440 88" xml:space="preserve">
<title>header copy</title>
<desc>Created with Sketch.</desc>
<g id="Page-1">
  <g id="_x30_1-landingspage-pt-v2_x40_2x-copy" transform="translate(0.000000, -4512.000000)">
    <g id="Group-4" transform="translate(-260.000000, 4492.000000)">
      <g id="header-copy">
        <g id="waves">
          <g id="graph-copy-2" transform="translate(0.000000, 24.765336)">
            <path id="Rectangle" fill="#37384D" d="M9.242,2.823c1.425-1.958,42.879-0.146,71.884,2.727
              c25.418,2.518,50.738,6.837,74.672,12.668c21.929,5.342,43.969,10.746,58.001,17.056c4.324,1.945,11.178,3.123,15.407,5.094
              c3.317,1.545,10.206,2.976,12.632,4.227c1.602,0.826,5.35,1.351,6.928,1.754c0.766,0.195-2.179,0.537,0,0.537
              c7.038,0,7.639,2.581,12.565,4.527c8.062,3.188,19.959,6.833,33.171,10.682c33.396,9.729,82.897,18.271,111.945,18.094
              c21.435-0.131,55.792-1.492,85.151-5.959c27.62-4.203,50.205-11.322,72.259-17.631c15.789-4.517,28.483-9.982,42.114-14.219
              c16.259-5.051,33.042-8.733,46.903-12.216c6.929-1.742,18.391-2.87,24.241-4.096c2.586-0.542,5.67-0.337,7.968-0.556
              c1.1-0.104,0.682-0.742,2.454-0.786c11.396-0.286,22.896-1.426,34.218-1.706c36.15-0.894,72.439,3.792,105.722,11.264
              c33.019,7.414,63.039,17.577,96.491,26.067c46.862,11.895,98.831,20.774,144.244,19.837
              c28.163-0.582,59.016-1.934,85.765-4.766c32.689-3.461,60.578-8.837,86.456-14.044c22.237-4.475,46.015-8.759,64.944-12.689
              c7.674-1.594,16.108-2.757,22.983-4.095c3.441-0.669,7.218-1.826,12.306-2.215c20.514-1.563,37.071-5.6,56.902-7.106
              c45.563-3.461,110.22-1.565,167.233,5.676c5.133,0.652,10.183,0.854,15.565,1.43c16.78,1.797,32.092,3.977,46.571,6.31
              c16.769,2.701,35.929,4.153,49.354,6.098c7.783,1.128,14.996,2.06,20.735,2.747c3.424,0.41,5.289,1.019,9.297,0.742
              c2.916-0.201,6.166,1.604,8.791,2.075c4.004,0.72,7.339,0.369,11.974,1.027c13.457,1.911,32.963,3.196,50.191,5.214
              c4.493,0.526,9.005,0.967,13.886,1.358c18.177,1.46,35.05,2.406,51.199,3.415c28.866,1.803,49.264,3.188,59.327-0.865
              c37.913-15.273-22.624-68.473-22.624-68.473v81.385H24.47C24.47,83.412-17.661,39.796,9.242,2.823z"/>
            <path id="COMMENTS_GRAPH" fill="none" stroke="#37384D" stroke-width="4" stroke-linecap="round" stroke-linejoin="round" d="
              M11.591,2.028c200.175,0,253.561,77.968,402.822,77.968c149.262,0,184.75-57.106,315.976-57.106
              s186.899,57.106,340.177,57.106s233.69-46.203,379.358-46.203c145.669,0,278.699,39.609,465.207,39.609"/>
          </g>
          <g id="graph-copy" transform="translate(45.983051, 0.000000)">
            <path id="Rectangle_1_" fill="#4A4D72" d="M12.325,3.073c1.9-2.554,57.181-0.19,95.861,3.556
              c33.896,3.284,67.661,8.917,99.578,16.521c29.244,6.967,58.634,14.015,77.348,22.245c5.767,2.536,14.907,4.073,20.546,6.643
              c4.423,2.016,13.61,3.881,16.846,5.513c2.136,1.078,7.135,1.761,9.238,2.288c1.021,0.255-2.906,0.7,0,0.7
              c9.386,0,10.188,3.366,16.756,5.905c10.751,4.156,26.616,8.912,44.236,13.932c44.535,12.688,110.547,23.829,149.285,23.598
              c28.584-0.172,74.402-1.946,113.553-7.772c36.832-5.481,66.951-14.767,96.361-22.993
              c21.056-5.891,37.984-13.021,56.161-18.544c21.683-6.588,44.064-11.391,62.548-15.933c9.24-2.271,24.525-3.743,32.327-5.341
              c3.374-0.691,5.44-0.503,8.386-0.79c1.506-0.146,3.042-0.899,5.512-0.96c15.197-0.373,30.534-1.86,45.632-2.225
              c48.209-1.166,96.603,4.945,140.985,14.691c44.031,9.668,84.065,22.923,128.676,33.997
              c62.493,15.512,131.796,27.094,192.356,25.871c22.433-0.453,47.255-1.422,63.556-4.635c8.412-1.657,19.852-3.014,27.289-4.967
              c2.278-0.598,3.76-1.557,7.129-1.905c14.129-1.463,21.221-6.137,32.049-10.737c22.58-9.596,45.253-22.047,68.578-26.637
              c8.894-1.75,12.67-3.576,16.688-4.575c9.377-2.332,12.419-2.823,30.092-6.412c10.233-2.079,62.738-2.266,71.906-4.01
              c16.443-0.064,42.97,0.968,48.61,0.547c27.356-2.04,46.872,6.717,73.317,4.753c60.761-4.514,146.983-2.042,223.014,7.403
              c6.845,0.85,13.578,1.113,20.757,1.865c22.377,2.343,42.797,5.186,62.105,8.228c22.361,3.523,47.913,5.416,65.815,7.953
              c10.38,1.471,19.998,2.686,27.65,3.583c4.566,0.535,7.055,1.328,12.398,0.968c3.89-0.264,8.223,2.092,11.725,2.707
              c5.339,0.938,9.786,0.48,15.967,1.339c17.945,2.492,43.958,4.169,66.933,6.801c5.992,0.687,12.009,1.26,18.517,1.771
              c24.24,1.904,46.741,3.139,68.277,4.454c38.494,2.352,65.696,4.158,79.116-1.129c50.559-19.919-30.171-89.301-30.171-89.301
              v106.142H32.633C32.633,108.178-23.552,51.293,12.325,3.073z"/>
            
              <path id="COMMENTS_GRAPH_1_" fill="none" stroke="#4A4D72" stroke-width="4" stroke-linecap="round" stroke-linejoin="round" d="
              M15.457,2.036c266.943,0,338.136,101.685,537.184,101.685s246.373-74.477,421.37-74.477
              c174.996,0,249.24,74.477,453.643,74.477c126.113,0,137.011-40.076,232.406-57.647c59.221-10.908,199.084-2.609,273.487-2.609
              c194.256,0,371.658,51.657,620.376,51.657"/>
          </g>
          <g id="graph" transform="translate(26.098488, 45.545445)">
            <path id="Rectangle_2_" fill="#2E2F41" d="M12.96,2.803c1.998-1.482,60.131-0.111,100.806,2.063
              c35.644,1.905,71.151,5.172,104.714,9.583c30.753,4.042,61.659,8.129,81.338,12.904c6.064,1.471,15.675,2.361,21.606,3.854
              c4.651,1.169,14.313,2.251,17.715,3.197c2.246,0.625,7.502,1.021,9.715,1.327c1.074,0.147-3.056,0.405,0,0.405
              c9.87,0,10.713,1.953,17.62,3.426c11.306,2.411,27.99,5.17,46.518,8.082c46.833,7.359,116.25,13.822,156.986,13.688
              c30.058-0.1,78.239-1.129,119.41-4.508c38.731-3.18,70.403-8.566,101.331-13.338c22.142-3.418,39.944-7.553,59.058-10.758
              c22.801-3.821,46.338-6.606,65.774-9.242c9.717-1.316,25.79-2.17,33.995-3.098c5.361-0.606,6.936-0.912,14.614-1.016
              c15.981-0.217,32.108-1.079,47.985-1.291c50.695-0.676,101.585,2.869,148.258,8.522
              c46.303,5.608,88.401,13.298,135.313,19.721c65.717,8.998,138.595,15.716,202.278,15.007
              c39.495-0.44,82.76-1.463,120.271-3.605c45.842-2.618,84.95-6.686,121.241-10.625c31.184-3.385,64.527-6.625,91.073-9.6
              c10.762-1.205,22.59-2.086,32.23-3.098c4.826-0.506,10.121-1.381,17.257-1.676c28.767-1.183,51.986-4.236,79.796-5.375
              c63.896-2.619,154.565-1.186,234.517,4.294c7.198,0.493,14.278,0.646,21.828,1.081c23.53,1.359,45.003,3.009,65.308,4.773
              c23.515,2.044,50.385,3.142,69.211,4.613c10.915,0.853,21.029,1.558,29.077,2.078c4.802,0.311,7.418,0.771,13.038,0.561
              c4.09-0.152,8.646,1.214,12.328,1.571c5.615,0.544,10.291,0.278,16.791,0.776c18.871,1.445,46.226,2.419,70.385,3.945
              c6.302,0.398,12.629,0.73,19.472,1.027c25.491,1.104,49.152,1.82,71.8,2.583c40.479,1.364,69.084,2.412,83.196-0.654
              c53.167-11.555-31.727-51.801-31.727-51.801v61.57H34.316C34.316,63.771-24.767,30.774,12.96,2.803z"/>
            
              <path id="COMMENTS_GRAPH_2_" fill="none" stroke="#2E2F41" stroke-width="4" stroke-linecap="round" stroke-linejoin="round" d="
              M17.498,2.201c280.713,0,355.577,58.985,564.892,58.985c209.315,0,259.082-43.203,443.104-43.203
              c184.023,0,262.097,43.203,477.043,43.203s327.712-34.954,531.987-34.954c204.276,0,390.83,29.965,652.377,29.965"/>
          </g>
        </g>
      </g>
    </g>
  </g>
</g>
</svg>
