<?xml version="1.0" encoding="utf-8"?>
<!-- Generator: Adobe Illustrator 16.0.2, SVG Export Plug-In . SVG Version: 6.00 Build 0)  -->
<!DOCTYPE svg PUBLIC "-//W3C//DTD SVG 1.1//EN" "http://www.w3.org/Graphics/SVG/1.1/DTD/svg11.dtd">
<svg version="1.1" id="Layer_1" xmlns="http://www.w3.org/2000/svg" xmlns:xlink="http://www.w3.org/1999/xlink" x="0px" y="0px"
   width="1440px" height="90px" viewBox="0 0 1440 90" enable-background="new 0 0 1440 90" xml:space="preserve">
<title>waves</title>
<desc>Created with Sketch.</desc>
<g id="Page-1">
  <g id="_x30_1-landingspage-pt-v2_x40_2x-copy" transform="translate(0.000000, -636.000000)">
    <g id="waves" transform="translate(-350.000000, 609.000000)">
      <g>
        <g id="graph-copy-2" transform="translate(0.000000, 27.000000)">
          <path id="Rectangle" fill="#282834" d="M9.242,1.897c1.425-2.135,42.879-0.16,71.884,2.973
            c25.418,2.745,50.738,7.454,74.672,13.811c21.929,5.824,43.969,11.715,58.001,18.595c4.324,2.121,11.178,3.405,15.407,5.554
            c3.317,1.685,10.206,3.244,12.632,4.608c1.602,0.9,5.35,1.473,6.928,1.912c0.766,0.213-2.179,0.585,0,0.585
            c7.038,0,7.639,2.814,12.565,4.937c8.062,3.475,19.959,7.449,33.171,11.646c33.396,10.605,82.897,19.92,111.945,19.725
            c21.435-0.143,55.792-1.625,85.151-6.496c27.62-4.582,50.205-12.344,72.259-19.222c15.789-4.924,28.484-10.884,42.114-15.501
            c16.259-5.508,33.043-9.522,46.904-13.319c6.929-1.898,18.391-3.128,24.241-4.465c2.586-0.591,5.67-0.368,7.968-0.606
            c1.1-0.114,0.682-0.808,2.454-0.856c11.396-0.312,22.896-1.555,34.218-1.86c36.15-0.974,72.439,4.134,105.722,12.281
            c33.019,8.082,63.039,19.162,96.491,28.419c46.862,12.968,98.831,22.649,144.244,21.626
            c28.163-0.634,59.016-2.107,85.765-5.195c32.689-3.772,60.578-9.634,86.456-15.311c22.237-4.879,46.015-9.549,64.944-13.834
            c7.674-1.738,16.108-3.006,22.983-4.465c3.441-0.729,7.218-1.991,12.306-2.414c20.514-1.706,37.071-6.105,56.902-7.748
            c45.563-3.773,110.22-1.707,167.233,6.189c5.133,0.711,10.183,0.931,15.565,1.559c16.78,1.959,32.092,4.335,46.571,6.879
            c16.769,2.944,35.929,4.527,49.354,6.646c7.783,1.229,14.996,2.246,20.735,2.996c3.424,0.447,5.289,1.11,9.297,0.809
            c2.916-0.22,6.166,1.748,8.791,2.263c4.004,0.784,7.339,0.402,11.974,1.12c13.457,2.082,32.963,3.484,50.191,5.685
            c4.493,0.573,9.005,1.054,13.886,1.48c18.177,1.591,35.05,2.623,51.199,3.723c28.866,1.966,49.264,3.477,59.327-0.943
            c37.913-16.651-22.624-74.65-22.624-74.65v88.729H24.47C24.47,89.759-17.661,42.207,9.242,1.897z"/>
          <path id="COMMENTS_GRAPH" fill="none" stroke="#282834" stroke-width="4" stroke-linecap="round" stroke-linejoin="round" d="
            M11.591,1.03c200.175,0,253.561,85.003,402.822,85.003c149.262,0,184.75-62.259,315.976-62.259
            c131.226,0,186.899,62.259,340.177,62.259s233.69-50.372,379.358-50.372c145.669,0,278.699,43.182,465.207,43.182"/>
        </g>
        <g id="graph-copy" transform="translate(45.983051, 0.000000)">
          <path id="Rectangle_1_" fill="#37384D" d="M12.325,2.17c1.9-2.785,57.181-0.208,95.861,3.877
            c33.896,3.58,67.661,9.721,99.578,18.012c29.244,7.596,58.634,15.279,77.348,24.252c5.767,2.765,14.907,4.44,20.546,7.243
            c4.423,2.198,13.61,4.231,16.846,6.011c2.136,1.174,7.135,1.92,9.238,2.494c1.021,0.278-2.906,0.763,0,0.763
            c9.386,0,10.188,3.67,16.756,6.438c10.751,4.531,26.616,9.716,44.236,15.188c44.535,13.832,110.547,25.979,149.285,25.727
            c28.584-0.188,74.402-2.121,113.553-8.474c36.832-5.976,66.951-16.099,96.361-25.068c21.056-6.422,37.984-14.195,56.161-20.217
            c21.683-7.183,44.064-12.418,62.548-17.371c9.24-2.476,24.525-4.08,32.327-5.823c3.374-0.753,5.44-0.548,8.386-0.861
            c1.506-0.16,3.042-0.98,5.512-1.046c15.197-0.407,30.534-2.028,45.632-2.425c48.209-1.271,96.603,5.392,140.985,16.017
            c44.031,10.541,84.065,24.992,128.676,37.064c62.493,16.912,131.796,29.538,192.356,28.205
            c22.433-0.494,47.255-1.551,63.556-5.053c8.412-1.807,19.852-3.285,27.289-5.415c2.278-0.652,3.76-1.696,7.129-2.077
            c14.129-1.595,21.221-6.69,32.049-11.707c22.58-10.461,45.253-24.035,68.578-29.04c8.894-1.908,12.67-3.898,16.688-4.987
            c9.377-2.542,12.419-3.078,30.092-6.991c10.233-2.266,62.738-2.47,71.906-4.372c16.443-0.07,42.97,1.056,48.61,0.597
            c27.356-2.224,46.872,7.323,73.317,5.182c60.761-4.921,146.983-2.226,223.014,8.071c6.845,0.927,13.578,1.214,20.757,2.033
            c22.377,2.555,42.797,5.654,62.105,8.971c22.361,3.841,47.913,5.905,65.815,8.67c10.38,1.603,19.998,2.929,27.65,3.906
            c4.566,0.583,7.055,1.448,12.398,1.055c3.89-0.286,8.223,2.28,11.725,2.952c5.339,1.023,9.786,0.523,15.967,1.459
            c17.945,2.717,43.958,4.546,66.933,7.415c5.992,0.748,12.009,1.373,18.517,1.931c24.24,2.075,46.741,3.422,68.277,4.855
            c38.494,2.563,65.696,4.533,79.116-1.23c50.559-21.717-30.171-97.359-30.171-97.359v115.719H32.633
            C32.633,116.759-23.552,54.741,12.325,2.17z"/>
          
            <path id="COMMENTS_GRAPH_1_" fill="none" stroke="#37384D" stroke-width="4" stroke-linecap="round" stroke-linejoin="round" d="
            M15.457,1.04C282.401,1.04,353.593,111.9,552.641,111.9s246.373-81.198,421.37-81.198c174.996,0,249.24,81.198,453.643,81.198
            c126.113,0,137.011-43.693,232.406-62.85c59.221-11.893,199.084-2.845,273.487-2.845c194.256,0,371.658,56.319,620.376,56.319"
            />
        </g>
        <g id="graph" transform="translate(26.098488, 49.655172)">
          <path id="Rectangle_2_" fill="#4A4D72" d="M12.96,1.875c1.998-1.615,60.131-0.121,100.806,2.249
            C149.41,6.2,184.918,9.763,218.481,14.572c30.753,4.406,61.659,8.863,81.338,14.068c6.064,1.604,15.675,2.576,21.606,4.201
            c4.651,1.275,14.313,2.455,17.715,3.486c2.246,0.682,7.502,1.115,9.715,1.447c1.074,0.161-3.056,0.442,0,0.442
            c9.87,0,10.713,2.129,17.62,3.735c11.306,2.628,27.99,5.635,46.518,8.81c46.833,8.024,116.25,15.07,156.985,14.923
            c30.059-0.107,78.24-1.23,119.411-4.915c38.731-3.466,70.403-9.338,101.331-14.541c22.142-3.726,39.944-8.234,59.058-11.728
            c22.801-4.166,46.338-7.203,65.774-10.076c9.717-1.437,25.79-2.367,33.995-3.378c5.361-0.661,6.936-0.993,14.614-1.106
            c15.981-0.236,32.108-1.177,47.985-1.407c50.695-0.737,101.585,3.127,148.258,9.291c46.303,6.114,88.401,14.497,135.313,21.499
            c65.717,9.811,138.595,17.135,202.278,16.361c39.495-0.479,82.76-1.595,120.271-3.93c45.842-2.855,84.95-7.289,121.241-11.584
            c31.184-3.69,64.527-7.224,91.073-10.466c10.762-1.315,22.59-2.274,32.23-3.378c4.826-0.552,10.121-1.506,17.257-1.826
            c28.767-1.29,51.986-4.619,79.796-5.861c63.896-2.854,154.565-1.291,234.517,4.682c7.198,0.538,14.278,0.705,21.828,1.18
            c23.53,1.482,45.003,3.279,65.309,5.204c23.514,2.228,50.384,3.425,69.21,5.028c10.915,0.931,21.029,1.699,29.077,2.267
            c4.802,0.339,7.418,0.84,13.038,0.612c4.09-0.166,8.646,1.322,12.328,1.711c5.615,0.594,10.291,0.305,16.791,0.848
            c18.871,1.576,46.226,2.637,70.385,4.301c6.302,0.434,12.629,0.797,19.472,1.12c25.491,1.204,49.152,1.984,71.8,2.816
            c40.479,1.487,69.084,2.63,83.196-0.714c53.167-12.598-31.727-56.475-31.727-56.475v67.125H34.316
            C34.316,68.345-24.767,32.37,12.96,1.875z"/>
          
            <path id="COMMENTS_GRAPH_2_" fill="none" stroke="#4A4D72" stroke-width="4" stroke-linecap="round" stroke-linejoin="round" d="
            M17.498,1.219c280.713,0,355.577,64.307,564.893,64.307c209.315,0,259.082-47.101,443.104-47.101
            c184.023,0,262.097,47.101,477.043,47.101s327.712-38.107,531.987-38.107c204.276,0,390.83,32.669,652.377,32.669"/>
        </g>
      </g>
    </g>
  </g>
</g>
</svg>
