<?xml version="1.0" encoding="UTF-8"?>
<svg width="153px" height="275px" viewBox="0 0 153 275" version="1.1" xmlns="http://www.w3.org/2000/svg" xmlns:xlink="http://www.w3.org/1999/xlink">
    <!-- Generator: Sketch 42 (36781) - http://www.bohemiancoding.com/sketch -->
    <title>Group 4 Copy</title>
    <desc>Created with Sketch.</desc>
    <defs></defs>
    <g id="Page-1" stroke="none" stroke-width="1" fill="none" fill-rule="evenodd">
        <g id="01-landingspage-pt-v2@2x-copy" transform="translate(-1219.000000, -5290.000000)">
            <g id="Group-4-Copy" transform="translate(1219.000000, 5290.000000)">
                <path d="M125.079273,183.916104 C122.420479,176.8873 118.720745,163.64759 108.479671,167.736074 C98.8784449,171.568964 100.457338,184.258899 103.191055,192.100087 C103.719017,193.6146 106.132061,192.963089 105.599103,191.433541 C103.357385,185.003627 101.361917,174.780413 108.37278,170.555113 C116.973025,165.371589 120.574359,179.039793 122.671224,184.58265 C123.236648,186.077618 125.65169,185.429615 125.079273,183.916104" id="Fill-55" fill="#37384D"></path>
                <path d="M116.587917,192.937028 C114.086463,186.91055 111.660433,180.868034 110.594018,174.394017 C110.331785,172.802826 107.925735,173.480398 108.18597,175.060563 C109.251885,181.534079 111.678415,187.577096 114.179868,193.603574 C114.789248,195.072482 117.206787,194.428989 116.587917,192.937028" id="Fill-56" fill="#37384D"></path>
                <polygon id="Fill-57" fill="#37384D" points="152.496412 240.894417 127.009358 249.03931 110.893763 188.8938 130.588714 182.600202"></polygon>
                <path d="M151.523752,241.205689 C148.70612,232.875868 141.362097,227.809116 134.955618,229.855863 C128.54964,231.903112 125.478766,240.299086 127.982217,248.728639 L151.523752,241.205689 Z" id="Fill-58" fill="#2E2F41"></path>
                <path d="M100.136165,197.228683 C100.142658,197.902747 99.6037066,198.453524 98.9318905,198.46054 C98.2605739,198.467557 97.7111333,197.926802 97.7046399,197.252739 L97.463885,172.85615 C97.4573916,172.182086 97.9963429,171.630307 98.66716,171.623791 C99.3384766,171.616775 99.8889163,172.158031 99.8954097,172.831092 L100.136165,197.228683 Z" id="Fill-59" fill="#BA987D"></path>
                <polygon id="Fill-60" fill="#4A4D72" points="127.847904 249.44014 101.303426 252.751821 96.4673494 190.660297 116.978969 188.100861"></polygon>
                <path d="M126.834785,249.566884 C125.589553,240.859687 119.296959,234.525996 112.625251,235.357925 C105.953542,236.190857 101.398679,243.877687 102.317244,252.625979 L126.834785,249.566884 Z" id="Fill-61" fill="#37384D"></path>
                <path d="M46.8888204,170.125817 C44.7989479,165.762195 38.5747841,169.886261 36.2061953,171.598232 C32.1812926,174.507981 28.9011318,178.214579 25.0920095,181.358872 C23.8472767,182.386255 25.6244675,184.148343 26.857712,183.130482 C29.892123,180.626173 32.5748919,177.709407 35.6167953,175.201089 C37.4369424,173.700108 39.3784659,172.294347 41.5177881,171.288013 C42.3769135,170.884076 44.9457984,170.106272 44.6900587,171.884396 C44.1316272,175.760386 40.1911386,179.625853 37.7726007,182.44439 C35.7756336,184.771789 32.9709887,186.987428 31.3900981,189.63106 C30.5589442,191.019781 32.7187455,192.279202 33.5464029,190.895493 C34.0009402,190.136232 35.5773355,188.640262 36.428469,187.709603 C38.285079,185.678893 40.1017296,183.612099 41.8259743,181.466622 C43.8339302,178.968829 48.6235544,173.747718 46.8888204,170.125817" id="Fill-62" fill="#37384D"></path>
                <path d="M50.2874606,170.885379 C46.3614572,168.847652 43.2960778,173.652297 41.9674303,176.591113 C40.0214114,180.897602 38.776179,186.018982 38.7117446,190.764489 C38.6902665,192.381239 41.1877241,192.379235 41.2092022,190.764489 C41.2601504,186.998754 42.2306624,183.158346 43.4424288,179.617132 C44.0338267,177.888623 46.9054035,170.736032 49.7210372,173.553066 C51.9247937,175.75768 51.1870448,181.1983 51.0406938,183.959705 C50.8583794,187.39768 50.2430058,190.830141 50.2000495,194.272626 C50.1800699,195.889376 52.6775275,195.887372 52.6975071,194.272626 C52.7514522,189.942583 53.5576315,185.643611 53.6340537,181.305048 C53.6919947,178.011408 53.7174688,172.66651 50.2874606,170.885379" id="Fill-63" fill="#E85639"></path>
                <polygon id="Fill-64" fill="#4A4D72" points="0.0656363568 238.889768 25.5526905 247.03466 41.6682849 186.88915 21.9733343 180.595552"></polygon>
                <path d="M1.03854594,239.20104 C3.8556781,230.871218 11.2002014,225.804466 17.6061801,227.851213 C24.0126583,229.898462 27.0835321,238.294437 24.5800807,246.723989 L1.03854594,239.20104 Z" id="Fill-65" fill="#37384D"></path>
                <path d="M52.4259336,195.224033 C52.4194402,195.898097 52.9583915,196.448874 53.6302076,196.45589 C54.3010247,196.462907 54.8509649,195.922152 54.8574583,195.248089 L55.0982132,170.8515 C55.1047066,170.177437 54.5657552,169.625657 53.8944386,169.619142 C53.223122,169.612125 52.6736814,170.153381 52.6666885,170.826442 L52.4259336,195.224033 Z" id="Fill-66" fill="#BA987D"></path>
                <polygon id="Fill-67" fill="#37384D" points="24.7141442 247.43549 51.2586219 250.747171 56.0946988 188.655648 35.5830796 186.096211"></polygon>
                <path d="M25.7272628,247.562234 C26.9724952,238.855037 33.2650893,232.521346 39.9367975,233.353275 C46.6085057,234.186207 51.1633689,241.873037 50.2453035,250.621329 L25.7272628,247.562234 Z" id="Fill-68" fill="#2E2F41"></path>
                <path d="M63.024744,113.632929 L55.1952145,111.079507 L52.3615991,111.079507 C50.7921967,114.371643 51.2757045,119.046988 51.4615154,122.645334 C51.809661,129.396494 52.3855747,135.898074 51.0054796,142.551507 C49.5529583,149.557257 47.0420144,154.913181 43.416705,161.235345 C41.8003504,164.053382 38.7209852,169.124143 39.9247598,172.383704 C41.6994531,177.192358 55.8300682,182.939188 55.3305767,174.491593 C55.0918197,170.443203 51.3541247,169.887915 52.367593,165.555366 C53.4170247,161.065952 56.4824041,156.221215 58.575773,151.917231 C61.6541393,145.587048 63.9488033,138.232489 65.0661658,131.50739 C66.1385741,125.050914 62.7445293,119.774174 63.024744,113.632929" id="Fill-69" fill="#EDAC80"></path>
                <path d="M92.3147768,113.632929 L100.144306,111.079507 L102.977922,111.079507 C104.547324,114.371643 104.063816,119.046988 103.878005,122.645334 C103.52986,129.396494 102.953946,135.898074 104.334041,142.551507 C105.786562,149.557257 108.796998,154.913181 112.422307,161.235345 C114.038662,164.053382 116.618536,169.124143 115.414761,172.383704 C113.640068,177.192358 99.5094526,182.939188 100.008944,174.491593 C100.247701,170.443203 103.985396,169.887915 102.971928,165.555366 C101.922496,161.065952 98.8571167,156.221215 96.7637477,151.917231 C93.6853815,145.587048 91.3907174,138.232489 90.2733549,131.50739 C89.2009466,125.050914 92.594492,119.774174 92.3147768,113.632929" id="Fill-70" fill="#EDAC80"></path>
                <path d="M94.4051488,132.128481 C94.4051488,132.128481 104.894471,158.188929 106.892437,165.205203 L98.4010809,165.706366 L88.4112505,138.643593 L94.4051488,132.128481 Z" id="Fill-71" fill="#292A3F"></path>
                <path d="M78.8472867,268.317426 L74.8463596,260.988426 L76.4122655,203.53466 L59.7157625,200.393875 C60.0634086,201.789612 63.8900132,241.094281 67.019827,260.988426 L63.8900132,268.317426 L78.8472867,268.317426 Z" id="Fill-73" fill="#EDAC80"></path>
                <path d="M80.5069471,274.83349 C81.5703646,271.711248 82.7281859,264.826779 72.237865,264.826779 C61.7470447,264.826779 62.0742116,271.711248 62.7610125,274.83349 L80.5069471,274.83349 Z" id="Fill-74" fill="#2E2F41"></path>
                <path d="M82.6880767,268.317426 L86.6875053,260.988426 L84.0791606,203.53466 L99.133835,200.393875 C98.7866883,201.789612 97.6453502,241.094281 94.5140379,260.988426 L97.6453502,268.317426 L82.6880767,268.317426 Z" id="Fill-75" fill="#EDAC80"></path>
                <path d="M98.7745008,274.83349 C99.4608021,271.711248 99.7869701,264.826779 89.2966492,264.826779 C78.8058289,264.826779 79.9641497,271.711248 81.0285661,274.83349 L98.7745008,274.83349 Z" id="Fill-76" fill="#2E2F41"></path>
                <path d="M94.9519921,139.430568 L98.9953759,116.915844 L107.70451,116.36657 C104.968295,90.006928 87.5145634,93.5010327 87.5145634,93.5010327 L69.4269765,94.0498056 C48.4518292,92.0356336 48.8119626,113.071427 48.8119626,113.071427 L57.0221047,114.718247 L60.4705941,139.979842 L61.3382109,139.430568 C47.8824089,158.101877 49.1631051,215.410306 49.8109456,217.255586 L107.540177,217.255586 C110.876781,182.430308 97.4784202,143.576184 94.8061405,139.979842 L94.9519921,139.430568 Z" id="Fill-77" fill="#2E2F41"></path>
                <path d="M81.2688715,102.088602 C81.2688715,103.90732 79.7983685,105.383745 77.9847148,105.383745 C76.1710611,105.383745 74.700558,103.90732 74.700558,102.088602 C74.700558,100.268881 76.1710611,98.7934587 77.9847148,98.7934587 C79.7983685,98.7934587 81.2688715,100.268881 81.2688715,102.088602" id="Fill-78" fill="#F86B4F"></path>
                <path d="M81.2688715,112.522454 C81.2688715,114.341673 79.7983685,115.817096 77.9847148,115.817096 C76.1710611,115.817096 74.700558,114.341673 74.700558,112.522454 C74.700558,110.702232 76.1710611,109.22731 77.9847148,109.22731 C79.7983685,109.22731 81.2688715,110.702232 81.2688715,112.522454" id="Fill-79" fill="#F86B4F"></path>
                <path d="M81.2688715,122.956105 C81.2688715,124.775826 79.7983685,126.251248 77.9847148,126.251248 C76.1710611,126.251248 74.700558,124.775826 74.700558,122.956105 C74.700558,121.136384 76.1710611,119.660962 77.9847148,119.660962 C79.7983685,119.660962 81.2688715,121.136384 81.2688715,122.956105" id="Fill-80" fill="#F86B4F"></path>
                <polygon id="Fill-81" fill="#4A4D72" points="95.9985267 132.841083 59.4712115 132.841083 60.4701945 139.979642 95.4990352 139.979642"></polygon>
                <path d="M84.5528784,86.3464874 L70.5051789,86.712336 C70.5051789,86.712336 73.4237079,90.0069781 67.2210222,94.0348208 C67.2210222,94.0348208 76.4281493,99.923981 87.5143636,93.5005816 C87.5143636,93.5005816 81.9984787,90.0069781 84.5528784,86.3464874" id="Fill-82" fill="#EDAC80"></path>
                <g id="Group" transform="translate(48.866920, 27.923954)">
                    <path d="M19.4373727,59.2888539 C5.63416448,52.7182865 -2.55384658,32.1514061 1.14912396,13.3508345 C4.85250352,-5.44782958 24.2829431,0.084348265 38.0869693,6.65491563 C51.8889504,13.225483 54.5155843,18.1417408 50.8134318,36.9423123 C47.1096432,55.7422481 33.2405808,65.8581496 19.4373727,59.2888539 Z" id="Fill-86" fill="#FFC396"></path>
                    <path d="M24.3283138,46.7595662 C24.2512392,46.5664845 24.3283138,46.335227 24.5213675,46.2581411 C24.7136871,46.1810553 24.944911,46.2970511 25.0227197,46.4893986 C25.292114,47.1839054 25.755296,47.7235063 26.3337229,48.1096697 C26.9121498,48.4561889 27.6058217,48.6492706 28.3002277,48.6103606 C28.9938996,48.5332748 29.6494012,48.2249314 30.1896578,47.7624163 C30.6910101,47.2991671 31.0763833,46.6053945 31.2305326,45.8727119 C31.269437,45.6414543 31.4617566,45.5254585 31.6548103,45.5643685 C31.8860342,45.6025443 32.0020132,45.795626 31.9631089,46.0268836 C31.7707893,46.9137379 31.3076073,47.7235063 30.6910101,48.3020172 C30.0355085,48.9194382 29.2251235,49.2666915 28.338398,49.3437774 C27.4905768,49.4208632 26.6420215,49.1888716 25.9476156,48.7263565 C25.2539437,48.2638414 24.6755168,47.6082446 24.3283138,46.7595662" id="Fill-9" fill="#F86B4F"></path>
                    <path d="M17.1148124,33.2675076 C18.5799649,33.1515118 19.890968,34.2314478 20.0069471,35.696813 C20.122192,37.1629124 19.0042425,38.4741059 17.53909,38.5893676 C16.0739375,38.7053635 14.8011047,37.5872516 14.6858597,36.1211522 C14.5698807,34.655787 15.6496599,33.3835035 17.1148124,33.2675076" id="Fill-1" fill="#21120F"></path>
                    <path d="M36.680998,33.0560291 C38.1461505,32.9400332 39.4571536,34.0199692 39.5731326,35.4853344 C39.6883776,36.9514338 38.5704281,38.2626273 37.1052756,38.377889 C35.6401231,38.4938849 34.32912,37.375773 34.213141,35.9096737 C34.097162,34.4443084 35.2158455,33.1720249 36.680998,33.0560291" id="Fill-3" fill="#21120F"></path>
                    <path d="M16.1009533,41.6597335 C18.1834371,41.4666518 19.9568882,42.5465878 20.0728672,44.0119531 C20.1881121,45.4780524 18.6077147,46.8274218 16.5252309,46.9815935 C14.4427472,47.1357652 12.6303917,46.0947392 12.5151467,44.629374 C12.3991677,43.1250988 14.0184695,41.8139052 16.1009533,41.6597335" id="Fill-5" fill="#FF5A6C" opacity="0.300000012"></path>
                    <path d="M39.1477435,41.4264028 C41.2302273,41.2333211 43.0425827,42.3132571 43.1578277,43.7786223 C43.2738067,45.2447217 41.6545049,46.5559152 39.5720212,46.7482628 C37.4895374,46.9024345 35.7160863,45.8614085 35.6001073,44.3571333 C35.4848623,42.891768 37.0652598,41.5805745 39.1477435,41.4264028" id="Fill-7" fill="#FF5A6C" opacity="0.300000012"></path>
                </g>
                <path d="M88.9107421,166.207528 C73.9259965,166.207528 62.9371831,93.5389707 62.9371831,93.5389707 L59.4407425,94.0401332 C72.427522,179.738915 89.9097251,169.715665 89.9097251,169.715665 L88.9107421,166.207528 Z" id="Fill-102" fill="#292A3F"></path>
                <path d="M109.470412,169.886963 C110.024348,174.394919 106.831099,178.500442 102.338173,179.05573 L86.8809084,180.967665 C82.3884817,181.523454 78.2971467,178.319021 77.7432106,173.811566 L77.3421189,170.546493 C76.7881828,166.038536 79.9814321,161.933514 84.4738588,161.377725 L99.9311233,159.465791 C104.42405,158.910502 108.515385,162.114434 109.069321,166.621889 L109.470412,169.886963 Z" id="Fill-103" fill="#37384D"></path>
                <path d="M84.4445886,170.865282 C86.5269687,172.953626 89.5483929,173.657258 92.4034864,173.727421 C98.2120733,173.870252 104.020161,172.049028 109.46262,169.823866 L109.069021,166.621939 C108.515085,162.114484 104.42375,158.910553 99.9313231,159.465841 L84.4740586,161.377775 C83.2213339,161.533136 82.0750008,161.971653 81.0775163,162.610134 C81.4071807,165.64768 82.2907812,168.705773 84.4445886,170.865282" id="Fill-104" fill="#292A3E"></path>
                <path d="M90.6699512,170.225147 C96.9150936,171.333217 103.192204,169.321551 109.117172,167.012696 L109.069221,166.62229 C108.515285,162.114334 104.42395,158.910402 99.9310234,159.46569 L84.4742584,161.378126 C83.3229304,161.520456 82.259513,161.898333 81.320469,162.453621 C83.5791696,166.049462 86.0161887,169.399232 90.6699512,170.225147" id="Fill-105" fill="#37384D"></path>
                <path d="M104.848867,168.638968 C105.219989,170.962357 103.920312,173.102822 101.945323,173.420559 C99.9708329,173.738296 98.0687692,172.113026 97.697647,169.790138 C97.3260253,167.466749 98.6262017,165.326284 100.601191,165.008547 C102.575681,164.69081 104.477245,166.31608 104.848867,168.638968" id="Fill-106" fill="#C19978"></path>
                <path d="M104.772794,168.651196 C105.143917,170.974586 104.281794,173.044888 102.846755,173.275422 C101.411716,173.506458 99.9477064,171.810525 99.5765842,169.487637 C99.205462,167.164247 100.067584,165.093945 101.502624,164.862909 C102.937163,164.632375 104.401173,166.328308 104.772794,168.651196" id="Fill-107" fill="#FCEEE3"></path>
                <g id="Group-2" transform="translate(45.958175, 0.000000)">
                    <path d="M28.2972378,0.278897807 C38.6555952,0.278897807 47.018648,6.41606637 47.018648,13.9261592 C47.018648,18.0461772 44.5905838,21.6944406 40.6913466,24.1833458 C50.0959564,29.3759674 56.5959425,40.3626821 56.5959425,53.0236795 C56.5959425,56.3288676 56.1627638,59.5473009 55.3385297,62.5511304 C49.5762258,57.1854146 44.2877569,50.1900386 39.7805606,40.5343236 C24.6570276,54.9978678 12.480032,61.7782249 1.9060283,64.610413 C0.693044046,61.0067723 0,57.1003202 0,53.0236795 C0,40.3626821 6.49998613,29.3759674 15.9469288,24.1833458 C12.047482,21.6944406 9.57729449,18.0461772 9.57729449,13.9261592 C9.57729449,6.41606637 17.9403473,0.278897807 28.2972378,0.278897807" id="Fill-23" fill="#F86B4F"></path>
                    <path d="M15.8691545,23.8636171 C23.7236199,22.1990098 31.7875026,22.0326497 40.1465193,23.8636171 C32.2914445,18.831977 24.1863284,18.7480929 15.8691545,23.8636171" id="Fill-26" fill="#2E2F41"></path>
                </g>
            </g>
        </g>
    </g>
</svg>