<?xml version="1.0" standalone="no"?>
<!DOCTYPE svg PUBLIC "-//W3C//DTD SVG 20010904//EN"
 "http://www.w3.org/TR/2001/REC-SVG-20010904/DTD/svg10.dtd">
<svg version="1.0" xmlns="http://www.w3.org/2000/svg"
 width="16.000000pt" height="16.000000pt" viewBox="0 0 16.000000 16.000000"
 preserveAspectRatio="xMidYMid meet">
<metadata>
Created by potrace 1.11, written by Peter Selinger 2001-2013
</metadata>
<g transform="translate(0.000000,16.000000) scale(0.002000,-0.002000)"
fill="#000000" stroke="none">
<path d="M3928 7975 c-21 -14 -38 -22 -38 -18 0 4 -4 4 -8 -2 -4 -5 -20 -18
-37 -27 -16 -10 -122 -70 -235 -135 -113 -65 -206 -121 -208 -125 -2 -5 -7 -8
-12 -8 -5 0 -75 -39 -157 -87 -81 -47 -157 -91 -168 -97 -26 -14 -405 -235
-425 -247 -45 -28 -344 -199 -347 -199 -2 0 -29 -16 -59 -35 -30 -19 -56 -35
-58 -35 -3 0 -54 -29 -115 -65 -60 -36 -114 -65 -120 -65 -6 0 -11 -4 -11 -10
0 -5 -4 -10 -10 -10 -5 0 -33 -14 -62 -31 -116 -70 -271 -159 -274 -159 -2 0
-28 -16 -58 -35 -30 -19 -58 -35 -61 -35 -3 0 -22 -11 -43 -24 -20 -13 -113
-68 -207 -121 -93 -54 -203 -118 -242 -142 -40 -23 -76 -43 -80 -43 -3 0 -14
-6 -22 -14 -9 -7 -41 -27 -71 -43 -30 -17 -90 -51 -133 -76 -43 -26 -81 -47
-84 -47 -8 0 -29 -24 -41 -47 -16 -29 -17 -3983 -2 -3983 6 0 10 -6 10 -14 0
-13 75 -61 223 -145 64 -36 111 -63 139 -80 113 -67 210 -121 218 -121 6 0 10
-4 10 -9 0 -5 8 -11 18 -15 9 -3 33 -15 52 -27 19 -11 87 -51 150 -87 63 -36
117 -69 120 -72 3 -3 23 -14 45 -25 22 -11 63 -34 92 -52 29 -18 54 -33 57
-33 3 0 25 -13 49 -30 25 -16 50 -30 55 -30 6 0 17 -7 25 -15 8 -8 21 -16 28
-17 7 -2 18 -7 24 -11 23 -19 400 -234 404 -231 2 2 3 906 3 2009 l0 2006 39
25 c21 13 43 24 49 24 5 0 10 5 10 10 0 6 4 10 10 10 5 0 49 23 97 52 48 28
97 57 108 62 22 13 282 162 305 176 25 16 172 100 225 130 28 15 154 89 282
163 127 74 234 132 237 129 3 -3 6 -1 6 4 0 5 21 21 48 34 26 14 49 27 52 30
12 13 259 150 270 150 6 0 31 -13 55 -30 24 -16 47 -30 50 -30 4 0 35 -17 69
-37 33 -21 78 -47 98 -58 20 -11 67 -38 105 -60 37 -22 80 -47 95 -55 15 -8
114 -65 220 -126 106 -62 245 -141 308 -178 63 -36 120 -70 127 -76 7 -5 14
-10 17 -10 4 0 85 -46 217 -124 20 -11 111 -64 203 -116 l166 -95 0 -1003 0
-1002 -22 -10 c-13 -6 -30 -14 -38 -20 -27 -18 -195 -116 -210 -123 -8 -4 -32
-17 -52 -30 -21 -12 -61 -35 -90 -51 -29 -16 -84 -48 -123 -71 -38 -23 -151
-88 -250 -145 -99 -56 -192 -111 -207 -121 -15 -11 -29 -19 -31 -19 -3 0 -54
-29 -115 -64 -61 -36 -131 -76 -154 -89 -24 -13 -59 -34 -78 -46 -19 -11 -41
-24 -48 -27 -7 -4 -81 -46 -164 -95 -170 -99 -141 -95 -253 -28 -27 16 -61 35
-75 42 -14 6 -27 14 -30 18 -3 3 -12 9 -20 13 -8 4 -24 12 -35 19 -11 7 -63
36 -115 66 -52 30 -123 71 -157 92 -34 22 -64 39 -67 39 -2 0 -39 20 -80 45
-42 25 -81 45 -86 45 -6 0 -10 5 -10 10 0 6 -5 10 -10 10 -6 0 -28 11 -51 25
-22 14 -43 24 -47 21 -8 -5 -10 -2012 -2 -2019 3 -2 43 -25 90 -52 47 -27 87
-53 88 -57 2 -4 10 -8 18 -8 7 0 38 -16 68 -35 30 -19 57 -35 60 -35 2 0 41
-22 86 -50 45 -27 83 -50 85 -50 3 0 50 -27 105 -60 55 -33 102 -60 104 -60 2
0 35 -19 72 -41 112 -69 97 -73 402 104 147 85 283 164 302 176 19 11 71 41
115 66 44 25 105 60 136 78 30 17 183 106 340 196 156 90 300 174 320 187 19
13 40 24 47 24 7 0 12 3 12 8 0 4 10 12 23 18 49 24 143 78 166 96 13 10 28
18 33 18 5 0 32 15 61 33 29 18 73 44 100 57 26 14 47 28 47 32 0 5 4 8 9 8 6
0 38 17 73 37 115 68 143 84 161 90 9 3 17 9 17 14 0 5 6 9 13 9 8 0 24 9 37
20 13 11 26 20 31 20 4 0 40 19 81 43 40 24 93 55 118 69 25 14 86 49 135 78
50 29 110 64 134 78 25 14 67 38 93 53 27 16 53 29 58 29 6 0 10 4 10 10 0 5
11 12 25 16 14 3 25 10 25 15 0 5 4 9 9 9 5 0 42 19 83 43 40 24 93 55 118 69
215 121 239 140 241 186 5 177 -1 3924 -6 3945 -6 23 -79 87 -98 87 -3 0 -35
18 -71 40 -36 22 -68 40 -72 40 -3 0 -25 14 -50 30 -24 17 -44 27 -44 23 0 -4
-4 -3 -8 3 -4 5 -27 22 -52 35 -50 29 -54 31 -265 154 -82 48 -168 97 -190
110 -22 12 -58 32 -80 45 -22 12 -52 31 -67 41 -14 11 -29 19 -32 19 -3 0 -27
13 -53 29 -92 56 -138 82 -155 88 -10 3 -18 9 -18 14 0 5 -5 9 -10 9 -6 0 -47
21 -91 48 -44 26 -104 60 -132 75 -29 16 -63 36 -77 45 -14 9 -34 22 -45 28
-60 33 -290 167 -324 189 -22 14 -43 25 -45 25 -3 0 -72 39 -153 86 -263 154
-327 191 -363 210 -19 10 -37 22 -40 26 -3 4 -17 12 -30 17 -14 6 -34 17 -45
23 -49 32 -100 62 -105 63 -3 0 -18 9 -35 21 -16 11 -45 26 -62 33 -18 8 -33
17 -33 21 0 4 -8 10 -17 13 -10 4 -38 18 -63 33 -173 102 -348 202 -362 207
-10 4 -18 11 -18 17 0 5 -7 10 -15 10 -9 0 -33 12 -55 26 -58 38 -106 41 -152
9z"/>
<path d="M3840 5069 c-85 -49 -167 -95 -182 -100 -16 -6 -28 -15 -28 -20 0 -5
-4 -9 -9 -9 -8 0 -150 -80 -211 -119 -14 -8 -28 -16 -32 -16 -4 0 -13 -6 -19
-12 -7 -7 -19 -13 -26 -13 -7 0 -13 -4 -13 -9 0 -5 -8 -11 -17 -14 -18 -6 -56
-27 -196 -111 -43 -25 -82 -46 -87 -46 -5 0 -11 -8 -13 -17 -3 -10 -5 -272 -4
-581 l2 -564 30 -15 c17 -9 32 -19 35 -23 3 -3 19 -13 35 -22 17 -8 102 -56
190 -107 88 -52 180 -105 204 -119 25 -13 67 -38 93 -53 27 -16 53 -29 58 -29
6 0 10 -4 10 -10 0 -5 4 -10 9 -10 5 0 69 -35 142 -77 203 -118 178 -110 240
-74 30 17 74 42 99 56 25 14 59 33 75 43 30 17 127 73 176 102 15 8 78 44 140
79 63 36 116 68 119 71 3 3 21 14 40 23 19 10 49 26 65 37 37 23 63 38 140 79
33 18 65 37 72 43 11 8 13 128 11 585 l-3 574 -55 31 c-30 16 -66 37 -80 46
-14 9 -43 26 -65 38 -22 11 -134 76 -250 143 -115 68 -235 137 -265 154 -30
16 -84 47 -119 69 -34 21 -65 38 -67 38 -3 0 -22 11 -44 25 -22 14 -41 25 -42
25 -2 0 -73 -41 -158 -91z"/>
</g>
</svg>
